SplineFontDB: 3.2
FontName: CopticEyesLatin
FullName: Coptic Eyes Latin
FamilyName: Coptic Eyes Latin
Weight: Book
Copyright: Coptic Eyes(c) (Yellowyellow). 2009. All Rights Reserved. Freeware for personal use.
Version: 1.00 February 13, 2009, initial release
ItalicAngle: 0
UnderlinePosition: -292
UnderlineWidth: 150
Ascent: 1638
Descent: 410
InvalidEm: 0
sfntRevision: 0x00010000
LayerCount: 2
Layer: 0 1 "Back" 1
Layer: 1 1 "Fore" 0
XUID: [1021 565 -115038069 7607760]
StyleMap: 0x0040
FSType: 8
OS2Version: 1
OS2_WeightWidthSlopeOnly: 0
OS2_UseTypoMetrics: 0
CreationTime: 1234176766
ModificationTime: 1770427509
PfmFamily: 17
TTFWeight: 400
TTFWidth: 5
LineGap: 67
VLineGap: 0
Panose: 2 0 0 0 0 0 0 0 0 0
OS2TypoAscent: 1491
OS2TypoAOffset: 0
OS2TypoDescent: -431
OS2TypoDOffset: 0
OS2TypoLinegap: 307
OS2WinAscent: 1854
OS2WinAOffset: 0
OS2WinDescent: 434
OS2WinDOffset: 0
HheadAscent: 1854
HheadAOffset: 0
HheadDescent: -434
HheadDOffset: 0
OS2SubXSize: 1434
OS2SubYSize: 1331
OS2SubXOff: 0
OS2SubYOff: 283
OS2SupXSize: 1434
OS2SupYSize: 1331
OS2SupXOff: 0
OS2SupYOff: 977
OS2StrikeYSize: 102
OS2StrikeYPos: 530
OS2Vendor: 'HL  '
OS2CodePages: 6000019f.dff70000
OS2UnicodeRanges: a00002af.500078fb.00000000.00000000
DEI: 91125
ShortTable: maxp 16
  1
  0
  1144
  101
  7
  102
  8
  2
  16
  47
  66
  0
  1036
  0
  3
  4
EndShort
LangName: 1033 "Coptic Eyes+AKkA (Yellowyellow). 2009. All Rights Reserved. Freeware for personal use." "" "Regular" "Coptic Eyes Latin:Version 1.00" "" "Version 1.00 February 13, 2009, initial release" "" "" "" "" "This font was created using Font Creator 5.0 from High-Logic.com"
LangName: 1027 "" "" "Normal"
LangName: 1029 "" "" "oby+AQ0A-ejn+AOkA"
LangName: 1030 "" "" "normal"
LangName: 1031 "" "" "Standard"
LangName: 1032 "" "" "+A5oDsQO9A78DvQO5A7oDrAAA"
LangName: 1034 "" "" "Normal"
LangName: 1035 "" "" "Normaali"
LangName: 1036 "" "" "Normal"
LangName: 1038 "" "" "Norm+AOEA-l"
LangName: 1040 "" "" "Normale"
LangName: 1043 "" "" "Standaard"

StartChar: .notdef
Encoding: 65536 -1 0
Width: 1536
GlyphClass: 1
Flags: W
LayerCount: 2
Fore
SplineSet
256 0 m 1,0,-1
 256 1280 l 1,1,-1
 1280 1280 l 1,2,-1
 1280 0 l 1,3,-1
 256 0 l 1,0,-1
288 32 m 1,4,-1
 1248 32 l 1,5,-1
 1248 1248 l 1,6,-1
 288 1248 l 1,7,-1
 288 32 l 1,4,-1
EndSplineSet
Validated: 1
EndChar

StartChar: exclam
Encoding: 33 33 4
Width: 296
GlyphClass: 1
Flags: W
LayerCount: 2
Fore
SplineSet
162 1386 m 2,0,-1
 129 1386 l 2,1,2
 16 1386 16 1386 16 1282 c 0,3,4
 16 558 16 558 118 402 c 1,5,-1
 189 402 l 1,6,-1
 276 1265 l 1,7,-1
 276 1282 l 2,8,9
 276 1386 276 1386 162 1386 c 2,0,-1
270 129 m 2,10,-1
 270 167 l 2,11,12
 270 300 270 300 157 300 c 0,13,14
 62 300 62 300 62 167 c 2,15,-1
 62 84 l 1,16,-1
 138 -5 l 1,17,-1
 157 -5 l 2,18,19
 270 -5 270 -5 270 129 c 2,10,-1
EndSplineSet
Validated: 9
EndChar

StartChar: numbersign
Encoding: 35 35 6
Width: 996
GlyphClass: 1
Flags: W
LayerCount: 2
Fore
SplineSet
814 344 m 128,-1,1
 684 344 684 344 647.5 159.5 c 128,-1,2
 611 -25 611 -25 547 -25 c 128,-1,3
 483 -25 483 -25 520 159.5 c 128,-1,4
 557 344 557 344 424.5 344 c 128,-1,5
 292 344 292 344 255.5 159.5 c 128,-1,6
 219 -25 219 -25 155 -25 c 128,-1,7
 91 -25 91 -25 128.5 159.5 c 128,-1,8
 166 344 166 344 94.5 344 c 128,-1,9
 23 344 23 344 23 408 c 128,-1,10
 23 472 23 472 106.5 472 c 128,-1,11
 190 472 190 472 222 629.5 c 128,-1,12
 254 787 254 787 138.5 787 c 128,-1,13
 23 787 23 787 23 851.5 c 128,-1,14
 23 916 23 916 150.5 916 c 128,-1,15
 278 916 278 916 315 1102 c 128,-1,16
 352 1288 352 1288 415 1288 c 128,-1,17
 478 1288 478 1288 442 1102 c 128,-1,18
 406 916 406 916 538 916 c 128,-1,19
 670 916 670 916 707 1102 c 128,-1,20
 744 1288 744 1288 807 1288 c 128,-1,21
 870 1288 870 1288 833.5 1102 c 128,-1,22
 797 916 797 916 870.5 916 c 128,-1,23
 944 916 944 916 944 851.5 c 128,-1,24
 944 787 944 787 857.5 787 c 128,-1,25
 771 787 771 787 740.5 629.5 c 128,-1,26
 710 472 710 472 827 472 c 128,-1,27
 944 472 944 472 944 408 c 128,-1,0
 944 344 944 344 814 344 c 128,-1,1
512.5 787 m 128,-1,29
 379 787 379 787 348.5 629.5 c 128,-1,30
 318 472 318 472 450 472 c 128,-1,31
 582 472 582 472 614 629.5 c 128,-1,28
 646 787 646 787 512.5 787 c 128,-1,29
EndSplineSet
Validated: 33
EndChar

StartChar: dollar
Encoding: 36 36 7
Width: 1059
GlyphClass: 1
Flags: W
LayerCount: 2
Fore
SplineSet
1019 971 m 1,1,2
 973 842 973 842 883 842 c 0,3,4
 746 842 746 842 713 1003 c 1,5,-1
 713 1083 l 1,6,-1
 597 1100 l 1,7,8
 478 1100 478 1100 427 988 c 1,9,10
 427 900 427 900 546 826 c 1,11,12
 1023 753 1023 753 1023 535 c 1,13,-1
 989 405 l 1,14,15
 796 131 796 131 580 131 c 2,16,-1
 325 131 l 1,17,18
 6 333 6 333 6 462 c 2,19,-1
 6 527 l 2,20,21
 6 572 6 572 176 592 c 1,22,-1
 278 592 l 1,23,-1
 312 431 l 1,24,25
 312 232 312 232 495 228 c 1,26,27
 767 292 767 292 767 438 c 0,28,29
 767 492 767 492 717 551 c 1,30,31
 172 712 172 712 172 842 c 1,32,33
 275 1214 275 1214 530 1214 c 1,34,-1
 780 1197 l 1,35,0
 964 1197 964 1197 1019 971 c 1,1,2
594 -60 m 128,-1,37
 528 -60 528 -60 528 668.5 c 128,-1,38
 528 1397 528 1397 594 1397 c 128,-1,39
 660 1397 660 1397 660 668.5 c 128,-1,36
 660 -60 660 -60 594 -60 c 128,-1,37
EndSplineSet
Validated: 5
EndChar

StartChar: percent
Encoding: 37 37 8
Width: 1103
GlyphClass: 1
Flags: W
LayerCount: 2
Fore
SplineSet
650.5 621.5 m 128,-1,1
 384 -4 384 -4 293 -4 c 128,-1,2
 202 -4 202 -4 468.5 621.5 c 128,-1,3
 735 1247 735 1247 826 1247 c 128,-1,0
 917 1247 917 1247 650.5 621.5 c 128,-1,1
342 1153 m 0,4,5
 621 1153 621 1153 640 976 c 1,6,7
 631 791 631 791 330 791 c 0,8,9
 48 791 48 791 12 954 c 1,10,-1
 12 1000 l 1,11,12
 54 1153 54 1153 342 1153 c 0,4,5
195 1046 m 2,13,-1
 195 913 l 2,14,15
 195 855 195 855 293 832 c 1,16,-1
 330 832 l 1,17,18
 464 840 464 840 464 888 c 2,19,-1
 464 1056 l 1,20,21
 444 1112 444 1112 330 1112 c 2,22,-1
 305 1112 l 1,23,24
 195 1091 195 1091 195 1046 c 2,13,-1
793 417 m 0,25,26
 1073 417 1073 417 1091 240 c 1,27,28
 1083 55 1083 55 781 55 c 0,29,30
 500 55 500 55 463 219 c 1,31,-1
 463 264 l 1,32,33
 505 417 505 417 793 417 c 0,25,26
646 310 m 2,34,-1
 646 178 l 2,35,36
 646 119 646 119 744 96 c 1,37,-1
 781 96 l 1,38,39
 916 105 916 105 916 152 c 2,40,-1
 916 320 l 1,41,42
 896 376 896 376 781 376 c 2,43,-1
 756 376 l 1,44,45
 646 355 646 355 646 310 c 2,34,-1
EndSplineSet
Validated: 37
EndChar

StartChar: ampersand
Encoding: 38 38 9
Width: 1001
GlyphClass: 1
Flags: W
LayerCount: 2
Fore
SplineSet
981 81 m 1,0,-1
 887 -35 l 1,1,2
 812 16 812 16 761.5 74 c 128,-1,3
 711 132 711 132 643 53 c 128,-1,4
 575 -26 575 -26 479.5 -26 c 128,-1,5
 384 -26 384 -26 302.5 -26 c 128,-1,6
 221 -26 221 -26 121 79 c 128,-1,7
 21 184 21 184 21 251 c 128,-1,8
 21 318 21 318 21 372.5 c 128,-1,9
 21 427 21 427 89 515.5 c 128,-1,10
 157 604 157 604 224.5 638 c 128,-1,11
 292 672 292 672 260.5 709.5 c 128,-1,12
 229 747 229 747 196.5 807.5 c 128,-1,13
 164 868 164 868 164 899.5 c 128,-1,14
 164 931 164 931 164 985 c 128,-1,15
 164 1039 164 1039 246 1117 c 128,-1,16
 328 1195 328 1195 388.5 1195 c 128,-1,17
 449 1195 449 1195 506.5 1195 c 128,-1,18
 564 1195 564 1195 639 1121 c 128,-1,19
 714 1047 714 1047 714 995 c 128,-1,20
 714 943 714 943 714 900 c 128,-1,21
 714 857 714 857 660 785 c 128,-1,22
 606 713 606 713 552 684 c 128,-1,23
 498 655 498 655 601.5 519.5 c 128,-1,24
 705 384 705 384 720 417 c 128,-1,25
 735 450 735 450 759 549 c 1,26,-1
 905 518 l 1,27,28
 866 362 866 362 834 312 c 128,-1,29
 802 262 802 262 844.5 206 c 128,-1,30
 887 150 887 150 981 81 c 1,0,-1
469.5 830.5 m 128,-1,32
 504 847 504 847 529 876 c 128,-1,33
 554 905 554 905 554 923.5 c 128,-1,34
 554 942 554 942 554 962 c 128,-1,35
 554 982 554 982 522 1007 c 128,-1,36
 490 1032 490 1032 468.5 1032 c 128,-1,37
 447 1032 447 1032 425 1032 c 128,-1,38
 403 1032 403 1032 370.5 1008 c 128,-1,39
 338 984 338 984 338 965 c 128,-1,40
 338 946 338 946 338 939 c 128,-1,41
 338 932 338 932 346 911.5 c 128,-1,42
 354 891 354 891 394.5 852.5 c 128,-1,31
 435 814 435 814 469.5 830.5 c 128,-1,32
466 357.5 m 128,-1,44
 363 484 363 484 324 461 c 128,-1,45
 285 438 285 438 246.5 390.5 c 128,-1,46
 208 343 208 343 208 318.5 c 128,-1,47
 208 294 208 294 208 263.5 c 128,-1,48
 208 233 208 233 254.5 177 c 128,-1,49
 301 121 301 121 339.5 121 c 128,-1,50
 378 121 378 121 403.5 121 c 128,-1,51
 429 121 429 121 482 151.5 c 128,-1,52
 535 182 535 182 552 206.5 c 128,-1,43
 569 231 569 231 466 357.5 c 128,-1,44
EndSplineSet
Validated: 33
EndChar

StartChar: quotesingle
Encoding: 39 39 10
Width: 212
GlyphClass: 1
Flags: W
LayerCount: 2
Fore
SplineSet
114 1386 m 2,0,-1
 91 1386 l 2,1,2
 9 1386 9 1386 9 1273 c 0,3,4
 9 1178 9 1178 83 1008 c 1,5,-1
 133 1008 l 1,6,-1
 196 1254 l 1,7,-1
 196 1273 l 2,8,9
 196 1386 196 1386 114 1386 c 2,0,-1
EndSplineSet
Validated: 9
EndChar

StartChar: parenleft
Encoding: 40 40 11
Width: 584
GlyphClass: 1
Flags: W
LayerCount: 2
Fore
SplineSet
496.5 -430 m 128,-1,1
 439 -430 439 -430 365.5 -329 c 128,-1,2
 292 -228 292 -228 207.5 10 c 128,-1,3
 123 248 123 248 123 364.5 c 128,-1,4
 123 481 123 481 123 613.5 c 128,-1,5
 123 746 123 746 213 972.5 c 128,-1,6
 303 1199 303 1199 371 1296 c 128,-1,7
 439 1393 439 1393 496.5 1393 c 128,-1,8
 554 1393 554 1393 475 1254.5 c 128,-1,9
 396 1116 396 1116 342 907 c 128,-1,10
 288 698 288 698 288 590.5 c 128,-1,11
 288 483 288 483 288 254 c 128,-1,12
 288 25 288 25 421 -202.5 c 128,-1,0
 554 -430 554 -430 496.5 -430 c 128,-1,1
EndSplineSet
Validated: 33
EndChar

StartChar: parenright
Encoding: 41 41 12
Width: 472
GlyphClass: 1
Flags: W
LayerCount: 2
Fore
SplineSet
277 254 m 128,-1,1
 277 483 277 483 277 590.5 c 128,-1,2
 277 698 277 698 223 907 c 128,-1,3
 169 1116 169 1116 90 1254.5 c 128,-1,4
 11 1393 11 1393 68.5 1393 c 128,-1,5
 126 1393 126 1393 194 1296 c 128,-1,6
 262 1199 262 1199 352 972.5 c 128,-1,7
 442 746 442 746 442 613.5 c 128,-1,8
 442 481 442 481 442 364.5 c 128,-1,9
 442 248 442 248 357.5 10 c 128,-1,10
 273 -228 273 -228 199.5 -329 c 128,-1,11
 126 -430 126 -430 68.5 -430 c 128,-1,12
 11 -430 11 -430 144 -202.5 c 128,-1,0
 277 25 277 25 277 254 c 128,-1,1
EndSplineSet
Validated: 33
EndChar

StartChar: asterisk
Encoding: 42 42 13
Width: 697
GlyphClass: 1
Flags: W
LayerCount: 2
Fore
SplineSet
609.5 1064.5 m 128,-1,1
 550 1046 550 1046 484.5 1037 c 128,-1,2
 419 1028 419 1028 442.5 1007 c 128,-1,3
 466 986 466 986 529.5 912.5 c 128,-1,4
 593 839 593 839 532.5 796 c 128,-1,5
 472 753 472 753 442.5 792.5 c 128,-1,6
 413 832 413 832 374 900 c 128,-1,7
 335 968 335 968 298.5 898.5 c 128,-1,8
 262 829 262 829 233 791 c 128,-1,9
 204 753 204 753 145.5 796 c 128,-1,10
 87 839 87 839 160.5 927 c 128,-1,11
 234 1015 234 1015 243.5 1021.5 c 128,-1,12
 253 1028 253 1028 180.5 1042.5 c 128,-1,13
 108 1057 108 1057 58 1070 c 128,-1,14
 8 1083 8 1083 31.5 1154.5 c 128,-1,15
 55 1226 55 1226 146 1192.5 c 128,-1,16
 237 1159 237 1159 261.5 1143.5 c 128,-1,17
 286 1128 286 1128 276 1214.5 c 128,-1,18
 266 1301 266 1301 266 1339.5 c 128,-1,19
 266 1378 266 1378 337.5 1378 c 128,-1,20
 409 1378 409 1378 409 1332 c 128,-1,21
 409 1286 409 1286 400 1219.5 c 128,-1,22
 391 1153 391 1153 388.5 1149.5 c 128,-1,23
 386 1146 386 1146 386 1138 c 128,-1,24
 386 1130 386 1130 433.5 1153.5 c 128,-1,25
 481 1177 481 1177 551.5 1201.5 c 128,-1,26
 622 1226 622 1226 645.5 1154.5 c 128,-1,0
 669 1083 669 1083 609.5 1064.5 c 128,-1,1
EndSplineSet
Validated: 33
EndChar

StartChar: plus
Encoding: 43 43 14
Width: 1042
GlyphClass: 1
Flags: W
LayerCount: 2
Fore
SplineSet
815.5 639 m 128,-1,1
 615 639 615 639 615 438.5 c 128,-1,2
 615 238 615 238 531 238 c 128,-1,3
 447 238 447 238 447 438.5 c 128,-1,4
 447 639 447 639 246.5 639 c 128,-1,5
 46 639 46 639 46 723 c 128,-1,6
 46 807 46 807 246.5 807 c 128,-1,7
 447 807 447 807 447 1007.5 c 128,-1,8
 447 1208 447 1208 531 1208 c 128,-1,9
 615 1208 615 1208 615 1007.5 c 128,-1,10
 615 807 615 807 815.5 807 c 128,-1,11
 1016 807 1016 807 1016 723 c 128,-1,0
 1016 639 1016 639 815.5 639 c 128,-1,1
EndSplineSet
Validated: 1
EndChar

StartChar: comma
Encoding: 44 44 15
Width: 364
GlyphClass: 1
Flags: W
LayerCount: 2
Fore
SplineSet
286 32 m 1,1,2
 312 -39 312 -39 286 -114 c 1,3,4
 188 -273 188 -273 50 -273 c 1,5,-1
 50 -205 l 1,6,7
 147 -205 147 -205 221 -80 c 1,8,-1
 221 -1 l 1,9,-1
 194 -1 l 1,10,0
 231 134 231 134 286 32 c 1,1,2
199 -15 m 2,12,-1
 180 -15 l 1,13,-1
 105 73 l 1,14,-1
 105 156 l 2,15,16
 105 289 105 289 199 289 c 0,17,18
 313 289 313 289 313 156 c 2,19,-1
 313 118 l 2,20,11
 313 -15 313 -15 199 -15 c 2,12,-1
EndSplineSet
Validated: 37
EndChar

StartChar: hyphen
Encoding: 45 45 16
AltUni2: 0000ad.ffffffff.0 0000ad.ffffffff.0
Width: 682
GlyphClass: 1
Flags: W
LayerCount: 2
Fore
SplineSet
341 440 m 128,-1,1
 66 440 66 440 66 530.5 c 128,-1,2
 66 621 66 621 341 621 c 128,-1,3
 616 621 616 621 616 530.5 c 128,-1,0
 616 440 616 440 341 440 c 128,-1,1
EndSplineSet
Validated: 1
EndChar

StartChar: period
Encoding: 46 46 17
Width: 245
GlyphClass: 1
Flags: W
LayerCount: 2
Fore
SplineSet
210 146 m 2,0,-1
 210 184 l 2,1,2
 210 317 210 317 97 317 c 0,3,4
 2 317 2 317 2 184 c 2,5,-1
 2 101 l 1,6,-1
 78 12 l 1,7,-1
 97 12 l 2,8,9
 210 12 210 12 210 146 c 2,0,-1
EndSplineSet
Validated: 9
EndChar

StartChar: slash
Encoding: 47 47 18
Width: 490
GlyphClass: 1
Flags: W
LayerCount: 2
Fore
SplineSet
315 708.5 m 128,-1,1
 103 -49 103 -49 30.5 -49 c 128,-1,2
 -42 -49 -42 -49 170 708.5 c 128,-1,3
 382 1466 382 1466 454.5 1466 c 128,-1,0
 527 1466 527 1466 315 708.5 c 128,-1,1
EndSplineSet
Validated: 33
EndChar

StartChar: zero
Encoding: 48 48 19
Width: 981
GlyphClass: 1
Flags: W
LayerCount: 2
Fore
SplineSet
506 1184 m 0,0,1
 917 1184 917 1184 944 603 c 1,2,3
 932 0 932 0 489 0 c 0,4,5
 75 0 75 0 22 534 c 1,6,-1
 22 684 l 1,7,8
 84 1184 84 1184 506 1184 c 0,0,1
290 834 m 2,9,-1
 290 400 l 2,10,11
 290 208 290 208 434 133 c 1,12,-1
 489 133 l 1,13,14
 686 161 686 161 686 317 c 2,15,-1
 686 867 l 1,16,17
 657 1051 657 1051 489 1051 c 2,18,-1
 452 1051 l 1,19,20
 290 981 290 981 290 834 c 2,9,-1
EndSplineSet
Validated: 1
EndChar

StartChar: one
Encoding: 49 49 20
Width: 594
GlyphClass: 1
Flags: W
LayerCount: 2
Fore
SplineSet
68 1191 m 1,0,-1
 381 1191 l 1,1,-1
 415 1156 l 1,2,-1
 415 155 l 2,3,4
 415 127 415 127 537 104 c 1,5,-1
 537 35 l 1,6,-1
 502 0 l 1,7,-1
 33 0 l 1,8,-1
 -2 35 l 1,9,-1
 -2 86 l 2,10,11
 -2 115 -2 115 120 138 c 1,12,-1
 120 1036 l 1,13,-1
 33 1122 l 1,14,-1
 33 1156 l 1,15,-1
 68 1191 l 1,0,-1
EndSplineSet
Validated: 1
EndChar

StartChar: two
Encoding: 50 50 21
Width: 963
GlyphClass: 1
Flags: W
LayerCount: 2
Fore
SplineSet
894 4 m 1,0,-1
 17 4 l 1,1,-1
 17 21 l 2,2,3
 17 97 17 97 440 641 c 1,4,-1
 643 942 l 1,5,6
 602 1066 602 1066 440 1066 c 2,7,-1
 267 1066 l 2,8,9
 35 1066 35 1066 143.5 1134.5 c 128,-1,10
 252 1203 252 1203 299 1189 c 1,11,12
 894 1189 894 1189 894 1083 c 1,13,-1
 925 1012 l 1,14,15
 925 864 925 864 408 199 c 1,16,-1
 393 180 l 1,17,-1
 393 163 l 1,18,-1
 424 128 l 1,19,-1
 690 128 l 1,20,-1
 894 375 l 1,21,-1
 910 375 l 1,22,-1
 925 358 l 1,23,-1
 925 39 l 1,24,-1
 894 4 l 1,0,-1
EndSplineSet
Validated: 33
EndChar

StartChar: three
Encoding: 51 51 22
Width: 1094
GlyphClass: 1
Flags: W
LayerCount: 2
Fore
SplineSet
19 1184 m 1,0,-1
 875 1184 l 1,1,-1
 875 1170 l 2,2,3
 875 1112 875 1112 506 777 c 1,4,5
 462 683 462 683 620 683 c 2,6,-1
 789 683 l 2,7,8
 1016 683 1016 683 1079 394 c 1,9,-1
 1048 283 l 1,10,11
 543 -44 543 -44 426 -44 c 2,12,-1
 289 -44 l 1,13,-1
 227 -15 l 1,14,-1
 227 25 l 1,15,16
 718 187 718 187 833 324 c 1,17,-1
 852 407 l 1,18,19
 804 576 804 576 758 587 c 1,20,21
 177 587 177 587 177 670 c 1,22,-1
 146 725 l 1,23,24
 271 852 271 852 493 1032 c 1,25,-1
 508 1046 l 1,26,-1
 508 1060 l 1,27,-1
 478 1087 l 1,28,-1
 217 1087 l 1,29,-1
 19 894 l 1,30,-1
 3 894 l 1,31,-1
 -12 907 l 1,32,-1
 -12 1157 l 1,33,-1
 19 1184 l 1,0,-1
EndSplineSet
Validated: 33
EndChar

StartChar: four
Encoding: 52 52 23
Width: 1086
GlyphClass: 1
Flags: W
LayerCount: 2
Fore
SplineSet
1056 415 m 1,0,1
 863 419 863 419 863 808 c 128,-1,2
 863 1197 863 1197 758 1199 c 128,-1,3
 653 1201 653 1201 342 811.5 c 128,-1,4
 31 422 31 422 31 354 c 128,-1,5
 31 286 31 286 327 286 c 128,-1,6
 623 286 623 286 623 0 c 1,7,-1
 863 -4 l 1,8,9
 863 283 863 283 1056 279 c 1,10,-1
 1056 415 l 1,0,1
407.5 693.5 m 128,-1,12
 620 965 620 965 621.5 965 c 128,-1,13
 623 965 623 965 623 693.5 c 128,-1,14
 623 422 623 422 409 422 c 128,-1,11
 195 422 195 422 407.5 693.5 c 128,-1,12
EndSplineSet
Validated: 41
EndChar

StartChar: five
Encoding: 53 53 24
Width: 1130
GlyphClass: 1
Flags: W
LayerCount: 2
Fore
SplineSet
188 1100 m 1,0,-1
 377 1100 l 1,1,2
 464 1090 464 1090 464 1055 c 2,3,-1
 464 754 l 1,4,-1
 493 724 l 1,5,-1
 595 724 l 1,6,7
 1059 648 1059 648 1059 377 c 2,8,-1
 1059 362 l 2,9,10
 1059 170 1059 170 755 16 c 1,11,-1
 479 31 l 1,12,-1
 464 31 l 2,13,14
 333 31 333 31 290 -104 c 1,15,-1
 14 -104 l 2,16,17
 -15 -104 -15 -104 -15 -58 c 1,18,19
 17 45 17 45 130 122 c 1,20,-1
 537 122 l 1,21,22
 827 156 827 156 827 347 c 0,23,24
 827 469 827 469 653 588 c 1,25,-1
 537 618 l 1,26,27
 464 599 464 599 464 573 c 2,28,-1
 464 494 l 1,29,-1
 435 464 l 1,30,-1
 261 464 l 1,31,-1
 232 494 l 1,32,-1
 232 949 l 2,33,34
 232 988 232 988 188 1100 c 1,0,-1
131 1199 m 1,35,-1
 1036 1199 l 1,36,37
 1122 1189 1122 1189 1122 1150 c 1,38,-1
 1110 1071 l 1,39,-1
 504 1068 l 1,40,41
 461 1052 461 1052 461 971 c 1,42,-1
 189 1036 l 1,43,44
 189 1063 189 1063 88 1084 c 1,45,-1
 88 1150 l 1,46,-1
 131 1199 l 1,35,-1
EndSplineSet
Validated: 5
EndChar

StartChar: six
Encoding: 54 54 25
Width: 1029
GlyphClass: 1
Flags: W
LayerCount: 2
Fore
SplineSet
526 1176 m 1,0,1
 704 1176 704 1176 991 878 c 1,2,3
 897 629 897 629 585 994 c 1,4,-1
 510 1027 l 1,5,-1
 391 1027 l 2,6,7
 316 1027 316 1027 255 812 c 1,8,-1
 255 762 l 1,9,-1
 526 845 l 1,10,11
 691 845 691 845 886 513 c 1,12,-1
 886 381 l 2,13,14
 886 151 886 151 540 17 c 1,15,-1
 451 0 l 1,16,17
 106 53 106 53 30 364 c 1,18,-1
 0 530 l 1,19,-1
 0 646 l 1,20,21
 84 1159 84 1159 465 1159 c 1,22,-1
 526 1176 l 1,0,1
255 480 m 2,23,-1
 255 348 l 2,24,25
 255 165 255 165 451 132 c 1,26,27
 582 132 582 132 630 381 c 1,28,-1
 630 447 l 1,29,30
 585 696 585 696 451 696 c 2,31,-1
 391 696 l 1,32,33
 255 606 255 606 255 480 c 2,23,-1
EndSplineSet
Validated: 33
EndChar

StartChar: seven
Encoding: 55 55 26
Width: 1033
GlyphClass: 1
Flags: W
LayerCount: 2
Fore
SplineSet
60 1191 m 1,0,-1
 997 1191 l 1,1,-1
 997 1177 l 2,2,3
 997 1118 997 1118 623 690 c 1,4,-1
 335 25 l 1,5,-1
 86 -31 l 1,6,7
 194 515 194 515 650 1038 c 1,8,-1
 664 1052 l 1,9,-1
 664 1066 l 1,10,-1
 637 1093 l 1,11,-1
 240 1093 l 1,12,-1
 60 899 l 1,13,-1
 46 899 l 1,14,-1
 32 913 l 1,15,-1
 32 1164 l 1,16,-1
 60 1191 l 1,0,-1
EndSplineSet
Validated: 1
EndChar

StartChar: eight
Encoding: 56 56 27
Width: 982
GlyphClass: 1
Flags: W
LayerCount: 2
Fore
SplineSet
827 603.5 m 128,-1,1
 959 568 959 568 959 451.5 c 128,-1,2
 959 335 959 335 959 258 c 128,-1,3
 959 181 959 181 829.5 78 c 128,-1,4
 700 -25 700 -25 598.5 -25 c 128,-1,5
 497 -25 497 -25 394.5 -25 c 128,-1,6
 292 -25 292 -25 163 79 c 128,-1,7
 34 183 34 183 34 261 c 128,-1,8
 34 339 34 339 34 395.5 c 128,-1,9
 34 452 34 452 106.5 536.5 c 128,-1,10
 179 621 179 621 240 630 c 128,-1,11
 301 639 301 639 301 640.5 c 128,-1,12
 301 642 301 642 196 669.5 c 128,-1,13
 91 697 91 697 91 790 c 128,-1,14
 91 883 91 883 91 949 c 128,-1,15
 91 1015 91 1015 202 1103 c 128,-1,16
 313 1191 313 1191 403 1191 c 128,-1,17
 493 1191 493 1191 584.5 1191 c 128,-1,18
 676 1191 676 1191 788.5 1100 c 128,-1,19
 901 1009 901 1009 901 944.5 c 128,-1,20
 901 880 901 880 901 792.5 c 128,-1,21
 901 705 901 705 798 673.5 c 128,-1,22
 695 642 695 642 695 640.5 c 128,-1,0
 695 639 695 639 827 603.5 c 128,-1,1
522.5 779 m 128,-1,24
 561 779 561 779 613.5 817.5 c 128,-1,25
 666 856 666 856 666 885 c 128,-1,26
 666 914 666 914 666 943 c 128,-1,27
 666 972 666 972 613 1012.5 c 128,-1,28
 560 1053 560 1053 521.5 1053 c 128,-1,29
 483 1053 483 1053 443.5 1053 c 128,-1,30
 404 1053 404 1053 352.5 1013.5 c 128,-1,31
 301 974 301 974 301 947 c 128,-1,32
 301 920 301 920 301 887.5 c 128,-1,33
 301 855 301 855 354 817 c 128,-1,34
 407 779 407 779 445.5 779 c 128,-1,23
 484 779 484 779 522.5 779 c 128,-1,24
533 144 m 128,-1,36
 576 144 576 144 634 196.5 c 128,-1,37
 692 249 692 249 692 290.5 c 128,-1,38
 692 332 692 332 692 374 c 128,-1,39
 692 416 692 416 632.5 469.5 c 128,-1,40
 573 523 573 523 530 523 c 128,-1,41
 487 523 487 523 442.5 523 c 128,-1,42
 398 523 398 523 342 467.5 c 128,-1,43
 286 412 286 412 286 373.5 c 128,-1,44
 286 335 286 335 286 294.5 c 128,-1,45
 286 254 286 254 343.5 199 c 128,-1,46
 401 144 401 144 445.5 144 c 128,-1,35
 490 144 490 144 533 144 c 128,-1,36
EndSplineSet
Validated: 1
EndChar

StartChar: nine
Encoding: 57 57 28
Width: 1029
GlyphClass: 1
Flags: W
LayerCount: 2
Fore
SplineSet
465 0 m 1,0,1
 287 0 287 0 0 298 c 1,2,3
 94 547 94 547 406 182 c 1,4,-1
 481 149 l 1,5,-1
 600 149 l 2,6,7
 675 149 675 149 736 364 c 1,8,-1
 736 414 l 1,9,-1
 465 331 l 1,10,11
 300 331 300 331 105 663 c 1,12,-1
 105 795 l 2,13,14
 105 1025 105 1025 451 1159 c 1,15,-1
 540 1176 l 1,16,17
 885 1123 885 1123 961 812 c 1,18,-1
 991 646 l 1,19,-1
 991 530 l 1,20,21
 907 17 907 17 526 17 c 1,22,-1
 465 0 l 1,0,1
736 696 m 2,23,-1
 736 828 l 2,24,25
 736 1011 736 1011 540 1044 c 1,26,27
 409 1044 409 1044 361 795 c 1,28,-1
 361 729 l 1,29,30
 406 480 406 480 540 480 c 2,31,-1
 600 480 l 1,32,33
 736 570 736 570 736 696 c 2,23,-1
EndSplineSet
Validated: 33
EndChar

StartChar: colon
Encoding: 58 58 29
Width: 245
GlyphClass: 1
Flags: W
LayerCount: 2
Fore
SplineSet
210 146 m 2,0,-1
 210 184 l 2,1,2
 210 317 210 317 97 317 c 0,3,4
 2 317 2 317 2 184 c 2,5,-1
 2 101 l 1,6,-1
 78 12 l 1,7,-1
 97 12 l 2,8,9
 210 12 210 12 210 146 c 2,0,-1
218 757 m 2,10,-1
 218 795 l 2,11,12
 218 928 218 928 105 928 c 0,13,14
 10 928 10 928 10 795 c 2,15,-1
 10 712 l 1,16,-1
 86 623 l 1,17,-1
 105 623 l 2,18,19
 218 623 218 623 218 757 c 2,10,-1
EndSplineSet
Validated: 9
EndChar

StartChar: semicolon
Encoding: 59 59 30
AltUni2: 00037e.ffffffff.0 00037e.ffffffff.0
Width: 364
GlyphClass: 1
Flags: W
LayerCount: 2
Fore
SplineSet
276 757 m 2,0,-1
 276 795 l 2,1,2
 276 928 276 928 162 928 c 0,3,4
 68 928 68 928 68 795 c 2,5,-1
 68 712 l 1,6,-1
 143 623 l 1,7,-1
 162 623 l 2,8,9
 276 623 276 623 276 757 c 2,0,-1
286 32 m 1,11,12
 312 -39 312 -39 286 -114 c 1,13,14
 188 -273 188 -273 50 -273 c 1,15,-1
 50 -205 l 1,16,17
 147 -205 147 -205 221 -80 c 1,18,-1
 221 -1 l 1,19,-1
 194 -1 l 1,20,10
 231 134 231 134 286 32 c 1,11,12
199 -15 m 2,22,-1
 180 -15 l 1,23,-1
 105 73 l 1,24,-1
 105 156 l 2,25,26
 105 289 105 289 199 289 c 0,27,28
 313 289 313 289 313 156 c 2,29,-1
 313 118 l 2,30,21
 313 -15 313 -15 199 -15 c 2,22,-1
EndSplineSet
Validated: 37
EndChar

StartChar: less
Encoding: 60 60 31
Width: 1019
GlyphClass: 1
Flags: W
LayerCount: 2
Fore
SplineSet
516 434 m 128,-1,1
 31 641 31 641 31 725 c 128,-1,2
 31 809 31 809 516 1014 c 128,-1,3
 1001 1219 1001 1219 1001 1129.5 c 128,-1,4
 1001 1040 1001 1040 616 882.5 c 128,-1,5
 231 725 231 725 616 565.5 c 128,-1,6
 1001 406 1001 406 1001 316.5 c 128,-1,0
 1001 227 1001 227 516 434 c 128,-1,1
EndSplineSet
Validated: 33
EndChar

StartChar: equal
Encoding: 61 61 32
Width: 1064
GlyphClass: 1
Flags: W
LayerCount: 2
Fore
SplineSet
538 862 m 128,-1,1
 53 862 53 862 53 946 c 128,-1,2
 53 1030 53 1030 538 1030 c 128,-1,3
 1023 1030 1023 1030 1023 946 c 128,-1,0
 1023 862 1023 862 538 862 c 128,-1,1
538 416 m 128,-1,5
 53 416 53 416 53 500 c 128,-1,6
 53 584 53 584 538 584 c 128,-1,7
 1023 584 1023 584 1023 500 c 128,-1,4
 1023 416 1023 416 538 416 c 128,-1,5
EndSplineSet
Validated: 1
EndChar

StartChar: greater
Encoding: 62 62 33
Width: 1019
GlyphClass: 1
Flags: W
LayerCount: 2
Fore
SplineSet
416 565.5 m 128,-1,1
 801 725 801 725 416 882.5 c 128,-1,2
 31 1040 31 1040 31 1129.5 c 128,-1,3
 31 1219 31 1219 516 1014 c 128,-1,4
 1001 809 1001 809 1001 725 c 128,-1,5
 1001 641 1001 641 516 434 c 128,-1,6
 31 227 31 227 31 316.5 c 128,-1,0
 31 406 31 406 416 565.5 c 128,-1,1
EndSplineSet
Validated: 33
EndChar

StartChar: question
Encoding: 63 63 34
Width: 801
GlyphClass: 1
Flags: W
LayerCount: 2
Fore
SplineSet
243 1409 m 2,0,-1
 415 1409 l 2,1,2
 672 1409 672 1409 776 1050 c 1,3,4
 776 925 776 925 391 772 c 1,5,6
 388 685 388 685 388 633 c 0,7,8
 388 491 388 491 373.5 413.5 c 128,-1,9
 359 336 359 336 164 601 c 1,10,-1
 130 726 l 1,11,12
 171 900 171 900 398 1034 c 0,13,14
 518 1106 518 1106 518 1190 c 1,15,16
 467 1300 467 1300 346 1300 c 2,17,-1
 312 1300 l 1,18,-1
 312 1222 l 1,19,20
 278 1066 278 1066 140 1066 c 0,21,22
 48 1066 48 1066 2 1190 c 1,23,24
 58 1409 58 1409 243 1409 c 2,0,-1
446 146 m 2,25,-1
 446 184 l 2,26,27
 446 317 446 317 333 317 c 0,28,29
 238 317 238 317 238 184 c 2,30,-1
 238 101 l 1,31,-1
 314 12 l 1,32,-1
 333 12 l 2,33,34
 446 12 446 12 446 146 c 2,25,-1
EndSplineSet
Validated: 41
EndChar

StartChar: at
Encoding: 64 64 35
Width: 1921
GlyphClass: 1
Flags: W
LayerCount: 2
Fore
SplineSet
914 1094 m 1,0,-1
 1397 1094 l 1,1,-1
 1477 1010 l 1,2,-1
 1477 946 l 1,3,-1
 1343 926 l 1,4,5
 1486 252 1486 252 1629 252 c 128,-1,6
 1772 252 1772 252 1825.5 252 c 128,-1,7
 1879 252 1879 252 1879 224 c 128,-1,8
 1879 196 1879 196 1879 168 c 128,-1,9
 1879 140 1879 140 1812 70 c 128,-1,10
 1745 0 1745 0 1651 0 c 128,-1,11
 1557 0 1557 0 1477 70 c 128,-1,12
 1397 140 1397 140 1222.5 70 c 128,-1,13
 1048 0 1048 0 981 0 c 128,-1,14
 914 0 914 0 807 57.5 c 128,-1,15
 700 115 700 115 700 198 c 128,-1,16
 700 281 700 281 700 337 c 128,-1,17
 700 393 700 393 731 467.5 c 128,-1,18
 762 542 762 542 865 607.5 c 128,-1,19
 968 673 968 673 995 729 c 128,-1,20
 1022 785 1022 785 1022 813.5 c 128,-1,21
 1022 842 1022 842 928 926 c 128,-1,22
 834 1010 834 1010 914 1094 c 1,0,-1
1022 238.5 m 128,-1,24
 1022 196 1022 196 1075.5 196 c 128,-1,25
 1129 196 1129 196 1196 266.5 c 128,-1,26
 1263 337 1263 337 1263 379 c 128,-1,27
 1263 421 1263 421 1249.5 421 c 128,-1,28
 1236 421 1236 421 1163 421 c 128,-1,29
 1090 421 1090 421 1056 351 c 128,-1,23
 1022 281 1022 281 1022 238.5 c 128,-1,24
1411 1052 m 1,31,-1
 1411 975 l 1,32,33
 1224 939 1224 939 1224 873 c 1,34,-1
 789 795 l 1,35,-1
 623 744 l 1,36,37
 374 543 374 543 374 337 c 0,38,39
 374 14 374 14 789 -45 c 1,40,-1
 1370 -45 l 1,41,42
 1531 -174 1531 -174 1577 -350 c 1,43,44
 1577 -427 1577 -427 1536 -427 c 2,45,-1
 1141 -427 l 1,46,47
 1080 -198 1080 -198 892 -198 c 2,48,-1
 872 -198 l 1,49,-1
 478 -223 l 1,50,51
 42 36 42 36 42 362 c 2,52,-1
 42 388 l 2,53,54
 42 845 42 845 706 973 c 1,55,-1
 851 973 l 1,56,-1
 892 1024 l 1,57,-1
 892 1052 l 2,58,59
 892 1112 892 1112 1017 1128 c 1,60,-1
 1287 1128 l 2,61,30
 1390 1128 1390 1128 1411 1052 c 1,31,-1
EndSplineSet
Validated: 37
EndChar

StartChar: A
Encoding: 65 65 36
Width: 1355
GlyphClass: 1
Flags: W
LayerCount: 2
Fore
SplineSet
424 1405 m 0,0,1
 1036 1405 1036 1405 1254 401 c 1,2,3
 1254 401 1254 401 1254 401 c 1,4,-1
 1330 0 l 1,5,-1
 1264 0 l 1,6,7
 960 0 960 0 960 246 c 1,8,-1
 960 246 l 1,9,10
 766 248 766 248 591 249 c 1,11,-1
 591 249 l 1,12,-1
 591 249 l 0,13,14
 591 0 591 0 336 0 c 2,15,-1
 253 0 l 2,16,17
 33 0 33 0 22 364 c 1,18,19
 22 364 22 364 330 362 c 1,20,21
 330 362 330 362 330 362 c 2,22,-1
 336 1114 l 1,23,24
 336 1114 336 1114 22 1114.5 c 1,25,26
 15.5 1225 15.5 1225 97.5 1315 c 0,27,28
 186 1405 186 1405 424 1405 c 0,0,1
608 998 m 1,29,-1
 596 478 l 1,30,31
 596 478 596 478 929 478 c 1,32,33
 818 850 818 850 608 998 c 1,29,-1
EndSplineSet
Validated: 524325
EndChar

StartChar: B
Encoding: 66 66 37
Width: 1207
GlyphClass: 1
Flags: W
LayerCount: 2
Fore
SplineSet
90 1393 m 1,0,-1
 734 1393 l 2,1,2
 957 1393 957 1393 1039 1015 c 1,3,-1
 913 776 l 1,4,5
 1140 478 1140 478 1146 279 c 1,6,7
 1146 35 1146 35 877 0 c 1,8,-1
 54 0 l 1,9,-1
 0 60 l 1,10,-1
 0 80 l 2,11,12
 0 119 0 119 125 139 c 1,13,-1
 125 1214 l 2,14,15
 125 1254 125 1254 54 1254 c 1,16,-1
 36 1274 l 1,17,-1
 36 1333 l 1,18,-1
 90 1393 l 1,0,-1
448 1214 m 1,19,-1
 430 1114 l 1,20,-1
 430 935 l 1,21,22
 441 816 441 816 483 816 c 0,23,24
 788 816 788 816 788 995 c 1,25,-1
 806 995 l 1,26,27
 806 1128 806 1128 663 1214 c 1,28,-1
 448 1214 l 1,19,-1
430 557 m 2,29,-1
 430 259 l 1,30,31
 441 139 441 139 483 139 c 2,32,-1
 519 139 l 2,33,34
 788 139 788 139 788 378 c 1,35,-1
 806 398 l 1,36,-1
 806 418 l 1,37,38
 754 677 754 677 555 677 c 2,39,-1
 483 677 l 1,40,41
 430 657 430 657 430 557 c 2,29,-1
EndSplineSet
Validated: 1
EndChar

StartChar: C
Encoding: 67 67 38
Width: 1353
GlyphClass: 1
Flags: W
LayerCount: 2
Fore
SplineSet
685 1405 m 1,0,1
 1080 1405 1080 1405 1287 1009 c 1,2,-1
 1287 989 l 1,3,-1
 955 871 l 1,4,5
 925 871 925 871 872 1128 c 1,6,-1
 747 1227 l 1,7,-1
 623 1227 l 1,8,-1
 478 1088 l 1,9,-1
 478 356 l 1,10,11
 512 139 512 139 706 139 c 1,12,13
 893 205 893 205 893 416 c 1,14,15
 906 574 906 574 955 574 c 2,16,-1
 997 574 l 1,17,18
 1229 487 1229 487 1308 396 c 1,19,20
 1178 117 1178 117 830 0 c 1,21,-1
 561 0 l 2,22,23
 275 0 275 0 42 435 c 1,24,-1
 0 613 l 1,25,-1
 0 772 l 2,26,27
 0 1182 0 1182 540 1385 c 1,28,-1
 685 1405 l 1,0,1
EndSplineSet
Validated: 1
EndChar

StartChar: D
Encoding: 68 68 39
Width: 1551
GlyphClass: 1
Flags: W
LayerCount: 2
Fore
SplineSet
282 1397 m 2,0,-1
 552 1397 l 1,1,2
 677 1381 677 1381 677 1321 c 2,3,-1
 677 1293 l 1,4,-1
 718 1242 l 1,5,-1
 863 1242 l 1,6,7
 1527 1114 1527 1114 1527 657 c 2,8,-1
 1527 631 l 2,9,10
 1527 305 1527 305 1091 46 c 1,11,-1
 697 71 l 1,12,-1
 677 71 l 2,13,14
 489 71 489 71 428 -158 c 1,15,-1
 33 -158 l 2,16,17
 -8 -158 -8 -158 -8 -81 c 1,18,19
 38 95 38 95 199 224 c 1,20,-1
 780 224 l 1,21,22
 1195 283 1195 283 1195 606 c 0,23,24
 1195 812 1195 812 946 1013 c 1,25,-1
 780 1064 l 1,26,27
 677 1031 677 1031 677 988 c 2,28,-1
 677 248 l 1,29,-1
 635 197 l 1,30,-1
 386 197 l 1,31,-1
 345 248 l 1,32,-1
 345 1142 l 2,33,34
 345 1208 345 1208 158 1244 c 1,35,-1
 158 1321 l 1,36,37
 179 1397 179 1397 282 1397 c 2,0,-1
EndSplineSet
Validated: 5
EndChar

StartChar: E
Encoding: 69 69 40
Width: 1199
GlyphClass: 1
Flags: W
LayerCount: 2
Fore
SplineSet
602 1401 m 1,0,1
 943 1401 943 1401 1148 1066 c 1,2,-1
 1148 1006 l 2,3,4
 1147 953 1147 953 885 888 c 1,5,-1
 828 888 l 1,6,-1
 828 987 l 1,7,8
 764 1243 764 1243 602 1243 c 2,9,-1
 584 1243 l 1,10,11
 414 1149 414 1149 414 967 c 0,12,13
 414 770 414 770 527 770 c 2,14,-1
 809 770 l 1,15,-1
 847 730 l 1,16,-1
 847 651 l 1,17,-1
 809 612 l 1,18,-1
 471 612 l 1,19,-1
 433 572 l 1,20,-1
 433 316 l 1,21,22
 494 202 494 202 565 158 c 1,23,-1
 621 158 l 2,24,25
 766 158 766 158 809 375 c 1,26,-1
 809 553 l 2,27,28
 809 592 809 592 866 592 c 1,29,30
 1156 462 1156 462 1167 414 c 1,31,32
 1167 233 1167 233 828 39 c 1,33,-1
 602 0 l 1,34,35
 202 0 202 0 38 454 c 1,36,-1
 0 572 l 1,37,-1
 0 829 l 2,38,39
 0 1092 0 1092 358 1342 c 1,40,-1
 602 1401 l 1,0,1
EndSplineSet
Validated: 1
EndChar

StartChar: F
Encoding: 70 70 41
Width: 1369
GlyphClass: 1
Flags: W
LayerCount: 2
Fore
SplineSet
31 1397 m 1,0,-1
 1314 1397 l 1,1,-1
 1345 1361 l 1,2,-1
 1345 1324 l 1,3,4
 1314.96246264 1201.84734805 1314.96246264 1201.84734805 1261 1202 c 2,5,-1
 554 1204 l 1,6,7
 442 1175 442 1175 498 1044 c 0,8,9
 950 -20 950 -20 0 0 c 1,10,-1
 30 288 l 1,11,12
 463.636793654 229.049375978 463.636793654 229.049375978 374 596 c 2,13,-1
 246 1120 l 2,14,15
 233 1174 233 1174 306 1200 c 1,16,-1
 8 1208 l 1,17,-1
 0 1361 l 1,18,-1
 31 1397 l 1,0,-1
416 949 m 1,19,-1
 1156 949 l 1,20,-1
 1186 913 l 1,21,-1
 1186 876 l 1,22,23
 1172.91994948 821.667482435 1172.91994948 821.667482435 1095 822 c 2,24,-1
 392 825 l 1,25,26
 388 841 388 841 385 858 c 1,27,-1
 385 913 l 1,28,-1
 416 949 l 1,19,-1
EndSplineSet
Validated: 524325
EndChar

StartChar: G
Encoding: 71 71 42
Width: 1438
GlyphClass: 1
Flags: W
LayerCount: 2
Fore
SplineSet
1393 538 m 1,0,-1
 1393 505 l 1,1,-1
 1311 489 l 5,2,-1
 1338 358 l 1,3,-1
 1325 276 l 1,4,5
 1204 135 1204 135 1188 64 c 1,6,-1
 1229 -1 l 1,7,8
 1352 -1 1352 -1 1352 -34 c 0,9,10
 1352 -87 1352 -87 1216 -100 c 5,11,12
 984 -77 984 -77 984 -1 c 2,13,-1
 984 96 l 1,14,-1
 1202 374 l 1,15,-1
 1202 473 l 1,16,-1
 1148 505 l 1,17,-1
 933 505 l 1,18,-1
 919 489 l 1,19,-1
 946 358 l 1,20,-1
 905 309 l 5,21,-1
 892 309 l 1,22,23
 818 373 818 373 728 538 c 1,24,-1
 728 554 l 1,25,-1
 755 587 l 1,26,-1
 1352 587 l 1,27,-1
 1393 538 l 1,0,-1
685 1405 m 1,28,29
 1080 1405 1080 1405 1287 1009 c 1,30,-1
 1287 989 l 1,31,-1
 955 871 l 1,32,33
 925 871 925 871 872 1128 c 1,34,-1
 747 1227 l 1,35,-1
 623 1227 l 1,36,-1
 478 1088 l 1,37,-1
 478 356 l 1,38,39
 512 139 512 139 706 139 c 1,40,41
 913 165 913 165 987.5 241.5 c 128,-1,42
 1062 318 1062 318 984 446 c 128,-1,43
 906 574 906 574 955 574 c 2,44,-1
 997 574 l 1,45,46
 1229 487 1229 487 1308 396 c 1,47,48
 1178 117 1178 117 830 0 c 1,49,-1
 561 0 l 2,50,51
 275 0 275 0 42 435 c 1,52,-1
 0 613 l 1,53,-1
 0 772 l 2,54,55
 0 1182 0 1182 540 1385 c 1,56,-1
 685 1405 l 1,28,29
EndSplineSet
Validated: 37
EndChar

StartChar: H
Encoding: 72 72 43
Width: 1434
GlyphClass: 1
Flags: W
LayerCount: 2
Fore
SplineSet
109 1401 m 1,0,-1
 564 1401 l 1,1,-1
 651 1319 l 1,2,-1
 564 1216 l 1,3,-1
 564 762 l 1,4,-1
 803 762 l 1,5,-1
 846 804 l 1,6,-1
 846 1216 l 1,7,-1
 760 1319 l 1,8,-1
 760 1339 l 1,9,10
 781 1401 781 1401 890 1401 c 2,11,-1
 1280 1401 l 1,12,-1
 1346 1339 l 1,13,-1
 1346 1298 l 1,14,15
 1259 1226 1259 1226 1259 1154 c 2,16,-1
 1259 185 l 2,17,18
 1259 145 1259 145 1389 103 c 1,19,-1
 1389 41 l 1,20,-1
 1346 0 l 1,21,-1
 803 0 l 1,22,-1
 760 41 l 1,23,-1
 760 82 l 1,24,-1
 846 185 l 1,25,-1
 846 556 l 1,26,-1
 781 618 l 1,27,-1
 608 618 l 1,28,-1
 564 577 l 1,29,-1
 564 165 l 1,30,-1
 651 62 l 1,31,-1
 586 0 l 1,32,-1
 43 0 l 1,33,-1
 0 41 l 1,34,-1
 0 62 l 1,35,36
 43 144 43 144 130 144 c 1,37,-1
 130 1216 l 2,38,39
 130 1257 130 1257 65 1257 c 1,40,-1
 43 1277 l 1,41,-1
 43 1339 l 1,42,-1
 109 1401 l 1,0,-1
EndSplineSet
Validated: 1
EndChar

StartChar: I
Encoding: 73 73 44
Width: 566
GlyphClass: 1
Flags: W
LayerCount: 2
Fore
SplineSet
408 1252 m 1,0,-1
 538 1319 l 1,1,2
 538 1319 538 1319 538 1360 c 1,3,-1
 503 1401 l 1,4,-1
 78 1401 l 1,5,-1
 25 1339 l 1,6,-1
 25 1298 l 1,7,8
 167 1265 167 1265 167 1216 c 0,9,10
 168 1215 168 1215 167 824 c 1,11,12
 167 824 167 824 149 144 c 1,13,-1
 61 144 l 1,14,-1
 25 103 l 1,15,-1
 25 41 l 1,16,-1
 61 0 l 1,17,-1
 503 0 l 1,18,-1
 538 41 l 1,19,-1
 538 103 l 2,20,21
 538 156 538 156 408 156 c 1,22,-1
 408 1252 l 1,0,-1
166 819 m 1,23,24
 166 819 166 819 167 824 c 1,25,-1
 166 819 l 1,23,24
EndSplineSet
Validated: 37
EndChar

StartChar: J
Encoding: 74 74 45
Width: 1086
GlyphClass: 1
Flags: W
LayerCount: 2
Fore
SplineSet
305 1250 m 1028,0,-1
925 1515 m 1028,1,-1
1047 1492 m 5,2,3
 1051 1486 1051 1486 1053 1479 c 260,4,5
 1055 1472 1055 1472 1053 1462 c 4,6,7
 1051 1447 1051 1447 1044 1436 c 4,8,9
 1039 1425 1039 1425 1027 1415 c 4,10,11
 1016 1406 1016 1406 1002 1399 c 4,12,13
 998 1397 998 1397 989 1393 c 4,14,15
 980 1390 980 1390 977 1388 c 4,16,17
 933 1362 933 1362 914 1339 c 4,18,19
 890 1309 890 1309 877 1268 c 4,20,21
 855 1199 855 1199 871 1109 c 4,22,23
 882 1048 882 1048 921 940 c 4,24,25
 960 833 960 833 969 802 c 4,26,27
 1013 651 1013 651 997 513 c 4,28,29
 981 370 981 370 905 239 c 4,30,31
 837 121 837 121 738 44 c 4,32,33
 628 -42 628 -42 504 -59 c 4,34,35
 369 -78 369 -78 254 -13 c 4,36,37
 143 50 143 50 84 176 c 4,38,39
 40 269 40 269 26 393 c 4,40,41
 20 455 20 455 23 506 c 4,42,43
 27 571 27 571 49 615 c 4,44,45
 74 667 74 667 119 687 c 4,46,47
 169 709 169 709 216 684 c 4,48,49
 261 661 261 661 279 607 c 4,50,51
 293 565 293 565 288 507 c 4,52,53
 287 494 287 494 283 459 c 4,54,55
 280 426 280 426 279 407 c 4,56,57
 275 323 275 323 308 267 c 4,58,59
 327 236 327 236 357 214 c 4,60,61
 387 193 387 193 422 185 c 4,62,63
 495 171 495 171 560 215 c 4,64,65
 618 254 618 254 649 327 c 4,66,67
 691 427 691 427 671 589 c 4,68,69
 668 620 668 620 661 656 c 4,70,71
 655 693 655 693 649 718 c 4,72,73
 644 744 644 744 635 786.5 c 132,-1,74
 626 829 626 829 621 850 c 4,75,76
 548 1189 548 1189 565 1364 c 5,77,78
 565 1364 565 1364 219 1368 c 5,79,-1
 221 1502 l 5,80,-1
 1047 1492 l 5,2,3
553 435 m 1028,81,-1
272 647 m 1028,82,-1
-15 543 m 1028,83,-1
81 -1 m 1028,84,-1
EndSplineSet
Validated: 33
EndChar

StartChar: K
Encoding: 75 75 46
Width: 1491
GlyphClass: 1
Flags: W
LayerCount: 2
Fore
SplineSet
1081 1438 m 2,0,-1
 1183 1438 l 2,1,2
 1278 1438 1278 1438 1368 1175 c 1,3,4
 1280 972 1280 972 1142 972 c 1,5,-1
 957 1114 l 1,6,-1
 773 810 l 1,7,-1
 998 567 l 1,8,9
 1238 162 1238 162 1429 162 c 1,10,11
 1532 156 1532 156 1532 101 c 2,12,-1
 1532 61 l 1,13,-1
 1470 0 l 1,14,-1
 1142 0 l 2,15,16
 950 0 950 0 609 567 c 1,17,-1
 547 587 l 1,18,-1
 547 182 l 1,19,-1
 609 101 l 1,20,-1
 609 81 l 1,21,-1
 547 20 l 1,22,-1
 55 20 l 1,23,-1
 -7 81 l 1,24,-1
 137 203 l 1,25,-1
 137 1215 l 1,26,27
 34 1297 34 1297 34 1357 c 1,28,-1
 96 1397 l 1,29,-1
 568 1397 l 1,30,-1
 609 1357 l 1,31,-1
 609 1316 l 1,32,-1
 547 1235 l 1,33,-1
 547 851 l 1,34,35
 629 865 629 865 896 1337 c 1,36,37
 1002 1438 1002 1438 1081 1438 c 2,0,-1
EndSplineSet
Validated: 1
EndChar

StartChar: L
Encoding: 76 76 47
Width: 1296
GlyphClass: 1
Flags: W
LayerCount: 2
Fore
SplineSet
1218 -8 m 1,0,-1
 141 -4 l 1,1,2
 25 9 25 9 25 57 c 2,3,-1
 25 118 l 1,4,-1
 180 199 l 1,5,-1
 180 1214 l 2,6,7
 180 1263 180 1263 25 1295 c 1,8,-1
 25 1356 l 1,9,-1
 64 1397 l 1,10,-1
 605 1397 l 1,11,-1
 644 1356 l 1,12,-1
 644 1316 l 2,13,14
 644 1275 644 1275 567 1275 c 1,15,-1
 547 1255 l 1,16,-1
 547 199 l 1,17,-1
 586 158 l 1,18,-1
 1276 159 l 1,19,-1
 1276 53 l 1,20,-1
 1218 -8 l 1,0,-1
EndSplineSet
Validated: 1
EndChar

StartChar: M
Encoding: 77 77 48
Width: 1580
GlyphClass: 1
Flags: W
LayerCount: 2
Fore
SplineSet
4 41 m 1,0,-1
 4 62 l 1,1,2
 21 115 21 115 186 247 c 1,3,4
 72 541 72 541 40 762 c 1,5,-1
 40 927 l 1,6,7
 242 1401 242 1401 460 1401 c 0,8,9
 606 1401 606 1401 752 1298 c 1,10,-1
 825 1298 l 1,11,-1
 953 1380 l 1,12,-1
 1117 1380 l 1,13,14
 1519 1150 1519 1150 1519 886 c 2,15,-1
 1519 762 l 2,16,17
 1519 613 1519 613 1373 288 c 1,18,-1
 1373 247 l 1,19,-1
 1555 62 l 1,20,-1
 1500 0 l 1,21,-1
 1099 0 l 1,22,-1
 1081 21 l 1,23,24
 1208 587 1208 587 1208 721 c 0,25,26
 1208 1166 1208 1166 1008 1236 c 1,27,28
 935 1236 935 1236 898 1154 c 1,29,-1
 1008 783 l 1,30,-1
 1008 515 l 2,31,32
 1008 226 1008 226 789 41 c 1,33,-1
 734 41 l 1,34,35
 634 99 634 99 551 536 c 1,36,-1
 551 701 l 1,37,-1
 679 1133 l 1,38,39
 668 1195 668 1195 570 1236 c 1,40,41
 396 1236 396 1236 351 701 c 1,42,43
 387 344 387 344 478 62 c 1,44,45
 478 0 478 0 442 0 c 2,46,-1
 40 0 l 1,47,-1
 4 41 l 1,0,-1
782 260 m 1,49,-1
 790 260 l 2,50,51
 827 260 827 260 854 403 c 0,52,53
 891 587 891 587 866 815 c 1,54,55
 834 933 834 933 790 954 c 1,56,-1
 778 954 l 1,57,58
 746 898 746 898 726 772 c 1,59,60
 689 588 689 588 718 428 c 1,61,48
 746 313 746 313 782 260 c 1,49,-1
EndSplineSet
Validated: 33
EndChar

StartChar: N
Encoding: 78 78 49
Width: 1278
GlyphClass: 1
Flags: W
LayerCount: 2
Fore
SplineSet
195 1397 m 1,0,-1
 545 1397 l 1,1,2
 702 1296 702 1296 702 1150 c 2,3,-1
 702 1068 l 1,4,5
 747 657 747 657 758.5 657 c 128,-1,6
 770 657 770 657 793 863 c 1,7,-1
 793 1356 l 1,8,-1
 838 1397 l 1,9,-1
 1155 1397 l 1,10,-1
 1200 1356 l 1,11,-1
 1200 1315 l 2,12,13
 1200 1253 1200 1253 1110 1253 c 1,14,-1
 1110 185 l 1,15,-1
 1245 103 l 1,16,-1
 1245 62 l 1,17,18
 1222 0 1222 0 1110 0 c 2,19,-1
 793 0 l 1,20,-1
 725 62 l 1,21,-1
 725 103 l 1,22,23
 793 178 793 178 793 247 c 2,24,-1
 793 390 l 1,25,26
 567 539 567 539 567 718 c 1,27,-1
 545 822 l 1,28,-1
 522 822 l 1,29,-1
 499 719 l 1,30,-1
 499 185 l 1,31,-1
 567 103 l 1,32,-1
 567 62 l 1,33,-1
 499 0 l 1,34,-1
 150 0 l 2,35,36
 33 0 33 0 15 62 c 1,37,-1
 15 82 l 2,38,39
 15 123 15 123 150 164 c 1,40,-1
 150 1356 l 1,41,-1
 195 1397 l 1,0,-1
EndSplineSet
Validated: 1
EndChar

StartChar: O
Encoding: 79 79 50
Width: 1180
GlyphClass: 1
Flags: W
LayerCount: 2
Fore
SplineSet
620 1397 m 0,0,1
 1127 1397 1127 1397 1160 712 c 1,2,3
 1145 0 1145 0 598 0 c 0,4,5
 88 0 88 0 22 630 c 1,6,-1
 22 807 l 1,7,8
 98 1397 98 1397 620 1397 c 0,0,1
353 984 m 2,9,-1
 353 472 l 2,10,11
 353 245 353 245 531 157 c 1,12,-1
 598 157 l 1,13,14
 842 190 842 190 842 374 c 2,15,-1
 842 1023 l 1,16,17
 806 1240 806 1240 598 1240 c 2,18,-1
 553 1240 l 1,19,20
 353 1157 353 1157 353 984 c 2,9,-1
EndSplineSet
Validated: 1
EndChar

StartChar: P
Encoding: 80 80 51
Width: 1199
GlyphClass: 1
Flags: W
LayerCount: 2
Fore
SplineSet
62 1393 m 1,0,-1
 825 1393 l 2,1,2
 1123 1393 1123 1393 1175 995 c 1,3,4
 1103 697 1103 697 866 697 c 2,5,-1
 557 697 l 1,6,-1
 536 597 l 1,7,-1
 536 239 l 1,8,-1
 557 139 l 1,9,-1
 660 139 l 1,10,-1
 701 100 l 1,11,-1
 701 40 l 1,12,-1
 660 0 l 1,13,-1
 62 0 l 1,14,-1
 0 60 l 1,15,-1
 0 80 l 1,16,-1
 21 100 l 1,17,18
 21 134 21 134 124 139 c 1,19,-1
 144 159 l 1,20,-1
 144 1234 l 1,21,22
 0 1261 0 1261 0 1313 c 1,23,-1
 62 1393 l 1,0,-1
536 1234 m 1,24,-1
 536 856 l 1,25,-1
 660 856 l 2,26,27
 825 856 825 856 825 1055 c 0,28,29
 825 1221 825 1221 598 1254 c 1,30,-1
 536 1234 l 1,24,-1
EndSplineSet
Validated: 1
EndChar

StartChar: Q
Encoding: 81 81 52
Width: 1320
GlyphClass: 1
Flags: W
LayerCount: 2
Fore
SplineSet
620 1397 m 0,0,1
 1127 1397 1127 1397 1160 712 c 1,2,3
 1145 0 1145 0 598 0 c 0,4,5
 88 0 88 0 22 630 c 1,6,-1
 22 807 l 1,7,8
 98 1397 98 1397 620 1397 c 0,0,1
353 984 m 2,9,-1
 353 472 l 2,10,11
 353 245 353 245 531 157 c 1,12,-1
 598 157 l 1,13,14
 842 190 842 190 842 374 c 2,15,-1
 842 1023 l 1,16,17
 806 1240 806 1240 598 1240 c 2,18,-1
 553 1240 l 1,19,20
 353 1157 353 1157 353 984 c 2,9,-1
1281 175 m 1,21,22
 1358 -211 1358 -211 1162 -281 c 2,23,-1
 1151 -285 l 2,24,25
 1011 -335 1011 -335 814 -134 c 1,26,-1
 747 87 l 1,27,-1
 743 99 l 2,28,29
 705 203 705 203 551 314 c 1,30,-1
 517 419 l 2,31,32
 509 442 509 442 542 454 c 1,33,34
 626 456 626 456 714 386 c 1,35,-1
 829 65 l 1,36,37
 936 -155 936 -155 1074 -106 c 0,38,39
 1163 -74 1163 -74 1200 94 c 1,40,-1
 1188 194 l 1,41,-1
 1281 175 l 1,21,22
EndSplineSet
Validated: 37
EndChar

StartChar: R
Encoding: 82 82 53
Width: 1354
GlyphClass: 1
Flags: W
LayerCount: 2
Fore
SplineSet
422 797 m 1,0,1
 503 850 503 850 888 267 c 1,2,3
 929 228 929 228 1034 253 c 1,4,-1
 1037 277 l 1,5,6
 1098 318 1098 318 1075 545 c 1,7,-1
 1116 572 l 1,8,-1
 1183 528 l 1,9,-1
 1274 390 l 2,10,11
 1352 272 1352 272 1250 43 c 1,12,-1
 1142 -28 l 1,13,14
 964 -54 964 -54 814 174 c 2,15,-1
 702 343 l 2,16,17
 598 501 598 501 422 797 c 1,0,1
88 1393 m 1,18,-1
 851 1393 l 2,19,20
 1149 1393 1149 1393 1201 995 c 1,21,22
 1129 697 1129 697 892 697 c 2,23,-1
 583 697 l 1,24,-1
 562 597 l 1,25,-1
 562 239 l 1,26,-1
 583 139 l 1,27,-1
 686 139 l 1,28,-1
 727 100 l 1,29,-1
 727 40 l 1,30,-1
 686 0 l 1,31,-1
 88 0 l 1,32,-1
 26 60 l 1,33,-1
 26 80 l 1,34,-1
 47 100 l 1,35,36
 47 134 47 134 150 139 c 1,37,-1
 170 159 l 1,38,-1
 170 1234 l 1,39,40
 26 1261 26 1261 26 1313 c 1,41,-1
 88 1393 l 1,18,-1
562 1234 m 1,42,-1
 562 856 l 1,43,-1
 686 856 l 2,44,45
 851 856 851 856 851 1055 c 0,46,47
 851 1221 851 1221 624 1254 c 1,48,-1
 562 1234 l 1,42,-1
EndSplineSet
Validated: 37
EndChar

StartChar: S
Encoding: 83 83 54
Width: 1413
GlyphClass: 1
Flags: W
LayerCount: 2
Fore
SplineSet
1292 1102 m 1,1,2
 1238 936 1238 936 1131 936 c 0,3,4
 969 936 969 936 929 1144 c 1,5,-1
 929 1247 l 1,6,-1
 888 1247 l 2,7,8
 747 1247 747 1247 686 1102 c 1,9,10
 686 989 686 989 828 894 c 1,11,12
 1393 800 1393 800 1393 520 c 1,13,-1
 1353 353 l 1,14,15
 1124 0 1124 0 868 0 c 2,16,-1
 565 0 l 1,17,-1
 424 42 l 1,18,19
 0 311 0 311 0 478 c 2,20,-1
 0 561 l 2,21,22
 0 619 0 619 202 645 c 1,23,-1
 323 645 l 1,24,-1
 363 437 l 1,25,26
 363 181 363 181 767 125 c 1,27,28
 1090 207 1090 207 1090 395 c 0,29,30
 1090 465 1090 465 1030 541 c 1,31,32
 384 748 384 748 384 915 c 1,33,34
 506 1393 506 1393 808 1393 c 2,35,-1
 1009 1393 l 2,36,0
 1227 1393 1227 1393 1292 1102 c 1,1,2
EndSplineSet
Validated: 1
EndChar

StartChar: T
Encoding: 84 84 55
Width: 1405
GlyphClass: 1
Flags: W
LayerCount: 2
Fore
SplineSet
789 48 m 1048,0,-1
32 1401 m 1,1,-1
 1357 1401 l 1,2,-1
 1389 1365 l 1,3,-1
 1389 1328 l 1,4,5
 1373 1274 1373 1274 1294 1274 c 2,6,-1
 979 1274 l 1,7,8
 931 1255 931 1255 931 1164 c 2,9,-1
 931 437 l 2,10,11
 931 -76 931 -76 504 -215 c 1,12,-1
 690 270 l 1,13,14
 715 307 715 307 693 1272 c 1,15,-1
 316 1274 l 1,16,-1
 379 1055 l 1,17,-1
 331 1055 l 1,18,19
 111 1180 111 1180 0 1310 c 1,20,-1
 0 1365 l 1,21,-1
 32 1401 l 1,1,-1
EndSplineSet
Validated: 33
EndChar

StartChar: U
Encoding: 85 85 56
Width: 1140
GlyphClass: 1
Flags: W
LayerCount: 2
Fore
SplineSet
1099 296 m 0,0,1
 1104 0 1104 0 606 20 c 1,2,3
 116 0 116 0 116 359 c 0,4,5
 115 1209 115 1209 116 1213 c 0,6,7
 116 1256 116 1256 58 1256 c 1,8,-1
 39 1277 l 1,9,-1
 39 1341 l 1,10,11
 58 1405 58 1405 154 1405 c 2,12,-1
 366 1405 l 1,13,14
 482 1392 482 1392 482 1341 c 2,15,-1
 485 380 l 2,16,17
 485 252 485 252 600 188 c 1,18,19
 736 225 736 225 735 380 c 2,20,-1
 732 1213 l 1,21,-1
 655 1320 l 1,22,-1
 655 1341 l 2,23,24
 655 1405 655 1405 867 1405 c 2,25,-1
 983 1405 l 1,26,27
 1099 1392 1099 1392 1099 1341 c 2,28,-1
 1099 316 l 2,29,30
 1099 306 1099 306 1099 296 c 0,0,1
EndSplineSet
Validated: 33
EndChar

StartChar: V
Encoding: 86 86 57
Width: 1083
GlyphClass: 1
Flags: W
LayerCount: 2
Fore
SplineSet
116 1405 m 2,0,-1
 328 1405 l 1,1,2
 443 1392 443 1392 443 1341 c 2,3,-1
 443 316 l 2,4,5
 443 188 443 188 559 124 c 1,6,7
 694 161 694 161 694 316 c 2,8,-1
 694 1213 l 1,9,-1
 617 1320 l 1,10,-1
 617 1341 l 2,11,12
 617 1405 617 1405 829 1405 c 2,13,-1
 944 1405 l 1,14,15
 1060 1392 1060 1392 1060 1341 c 1,16,-1
 867 188 l 1,17,18
 745 -90 745 -90 559 -90 c 0,19,20
 415 -90 415 -90 270 188 c 1,21,-1
 77 1213 l 1,22,23
 77 1256 77 1256 19 1256 c 1,24,-1
 0 1277 l 1,25,-1
 0 1341 l 1,26,27
 19 1405 19 1405 116 1405 c 2,0,-1
EndSplineSet
Validated: 1
EndChar

StartChar: W
Encoding: 87 87 58
Width: 1565
GlyphClass: 1
Flags: W
LayerCount: 2
Fore
SplineSet
30 1401 m 1,0,-1
 432 1401 l 2,1,2
 468 1401 468 1401 468 1339 c 1,3,4
 377 1057 377 1057 341 701 c 1,5,6
 386 165 386 165 560 165 c 1,7,8
 658 206 658 206 669 268 c 1,9,-1
 541 701 l 1,10,-1
 541 865 l 1,11,12
 624 1302 624 1302 724 1360 c 1,13,-1
 779 1360 l 1,14,15
 998 1175 998 1175 998 886 c 2,16,-1
 998 618 l 1,17,-1
 888 247 l 1,18,19
 925 165 925 165 998 165 c 1,20,21
 1198 235 1198 235 1198 680 c 0,22,23
 1198 814 1198 814 1071 1380 c 1,24,-1
 1089 1401 l 1,25,-1
 1490 1401 l 1,26,-1
 1545 1339 l 1,27,-1
 1363 1154 l 1,28,-1
 1363 1113 l 1,29,30
 1509 788 1509 788 1509 639 c 2,31,-1
 1509 515 l 2,32,33
 1509 251 1509 251 1107 21 c 1,34,-1
 943 21 l 1,35,-1
 815 103 l 1,36,-1
 742 103 l 1,37,38
 596 0 596 0 450 0 c 0,39,40
 232 0 232 0 30 474 c 1,41,-1
 30 639 l 1,42,43
 62 860 62 860 176 1154 c 1,44,45
 11 1286 11 1286 -6 1339 c 1,46,-1
 -6 1360 l 1,47,-1
 30 1401 l 1,0,-1
708 973 m 1,48,49
 679 813 679 813 716 629 c 1,50,51
 736 503 736 503 768 447 c 1,52,-1
 780 447 l 1,53,54
 824 468 824 468 856 586 c 1,55,56
 881 814 881 814 844 998 c 0,57,58
 817 1141 817 1141 780 1141 c 2,59,-1
 772 1141 l 1,60,61
 736 1088 736 1088 708 973 c 1,48,49
EndSplineSet
Validated: 33
EndChar

StartChar: X
Encoding: 88 88 59
Width: 1575
GlyphClass: 1
Flags: W
LayerCount: 2
Fore
SplineSet
1258 1397 m 2,0,-1
 1380 1397 l 2,1,2
 1484 1397 1484 1397 1555 1279 c 1,3,-1
 1555 1220 l 1,4,5
 1507 1122 1507 1122 1310 1003 c 1,6,-1
 1101 1043 l 1,7,8
 943 1043 943 1043 943 748 c 1,9,10
 992 585 992 585 1450 79 c 1,11,-1
 1450 59 l 1,12,-1
 1398 0 l 1,13,-1
 1083 0 l 1,14,15
 960 101 960 101 786 433 c 1,16,-1
 769 453 l 1,17,-1
 751 453 l 1,18,19
 580 0 580 0 367 0 c 2,20,-1
 314 0 l 2,21,22
 122 0 122 0 35 157 c 1,23,-1
 35 216 l 1,24,-1
 245 453 l 1,25,-1
 262 453 l 2,26,27
 290 453 290 453 367 295 c 1,28,-1
 472 295 l 1,29,30
 565 336 565 336 664 649 c 1,31,32
 475 1200 475 1200 210 1200 c 1,33,-1
 192 1181 l 1,34,-1
 192 1141 l 1,35,36
 284 1141 284 1141 367 1003 c 1,37,-1
 367 905 l 1,38,39
 275 767 275 767 210 767 c 1,40,41
 0 853 0 853 0 1003 c 2,42,-1
 0 1102 l 2,43,44
 0 1164 0 1164 227 1358 c 1,45,-1
 402 1358 l 2,46,47
 584 1358 584 1358 751 1003 c 1,48,-1
 804 984 l 1,49,50
 1083 1397 1083 1397 1258 1397 c 2,0,-1
EndSplineSet
Validated: 1
EndChar

StartChar: Y
Encoding: 89 89 60
Width: 1349
GlyphClass: 1
Flags: W
LayerCount: 2
Fore
SplineSet
8 207 m 2,1,-1
 8 413 l 1,2,3
 71 558 71 558 143 558 c 0,4,5
 256 558 256 558 362 372 c 1,6,-1
 362 290 l 1,7,8
 341 222 341 222 210 166 c 1,9,-1
 244 124 l 1,10,-1
 278 124 l 2,11,12
 397 124 397 124 480 269 c 1,13,-1
 480 351 l 2,14,15
 480 484 480 484 75 1240 c 1,16,-1
 75 1364 l 1,17,-1
 109 1405 l 1,18,-1
 430 1405 l 2,19,20
 514 1405 514 1405 531 1343 c 1,21,-1
 531 1260 l 1,22,-1
 497 1219 l 1,23,-1
 278 1219 l 1,24,25
 350 972 350 972 531 620 c 1,26,27
 558 620 558 620 801 1178 c 1,28,29
 801 1405 801 1405 919 1405 c 2,30,-1
 1273 1405 l 1,31,-1
 1324 1343 l 1,32,-1
 1324 1260 l 2,33,34
 1324 1219 1324 1219 1206 1219 c 0,35,36
 1076 1219 1076 1219 919 765 c 1,37,38
 715 -41 715 -41 312 -41 c 1,39,0
 8 -19 8 -19 8 207 c 2,1,-1
EndSplineSet
Validated: 1
EndChar

StartChar: Z
Encoding: 90 90 61
Width: 1134
GlyphClass: 1
Flags: W
LayerCount: 2
Fore
SplineSet
25 1397 m 1,0,-1
 1055 1397 l 1,1,-1
 1055 1381 l 2,2,3
 1055 1312 1055 1312 558 812 c 1,4,-1
 319 536 l 1,5,6
 368 422 368 422 558 422 c 2,7,-1
 761 422 l 2,8,9
 1034 422 1034 422 1110 260 c 1,10,-1
 1110 130 l 1,11,12
 975 -81 975 -81 834 -81 c 2,13,-1
 669 -81 l 1,14,-1
 595 -48 l 1,15,-1
 595 0 l 1,16,17
 797 106 797 106 797 179 c 1,18,-1
 816 195 l 1,19,20
 779 296 779 296 724 309 c 1,21,22
 25 309 25 309 25 406 c 1,23,-1
 -12 471 l 1,24,25
 -12 607 -12 607 595 1218 c 1,26,-1
 613 1235 l 1,27,-1
 613 1251 l 1,28,-1
 577 1283 l 1,29,-1
 264 1283 l 1,30,-1
 25 1056 l 1,31,-1
 6 1056 l 1,32,-1
 -12 1072 l 1,33,-1
 -12 1365 l 1,34,-1
 25 1397 l 1,0,-1
EndSplineSet
Validated: 1
EndChar

StartChar: bracketleft
Encoding: 91 91 62
Width: 569
GlyphClass: 1
Flags: W
LayerCount: 2
Fore
SplineSet
537 -408 m 1,0,-1
 139 -408 l 1,1,-1
 139 1466 l 1,2,-1
 537 1466 l 1,3,-1
 537 1317 l 1,4,-1
 319 1317 l 1,5,-1
 319 -258 l 1,6,-1
 537 -258 l 1,7,-1
 537 -408 l 1,0,-1
EndSplineSet
Validated: 1
EndChar

StartChar: backslash
Encoding: 92 92 63
Width: 569
GlyphClass: 1
Flags: W
LayerCount: 2
Fore
SplineSet
496.5 -49 m 128,-1,1
 424 -49 424 -49 212 708.5 c 128,-1,2
 0 1466 0 1466 72.5 1466 c 128,-1,3
 145 1466 145 1466 357 708.5 c 128,-1,0
 569 -49 569 -49 496.5 -49 c 128,-1,1
EndSplineSet
Validated: 33
EndChar

StartChar: bracketright
Encoding: 93 93 64
Width: 569
GlyphClass: 1
Flags: W
LayerCount: 2
Fore
SplineSet
430 -408 m 1,0,-1
 33 -408 l 1,1,-1
 33 -258 l 1,2,-1
 250 -258 l 1,3,-1
 250 1317 l 1,4,-1
 33 1317 l 1,5,-1
 33 1466 l 1,6,-1
 430 1466 l 1,7,-1
 430 -408 l 1,0,-1
EndSplineSet
Validated: 1
EndChar

StartChar: asciicircum
Encoding: 94 94 65
Width: 600
GlyphClass: 1
Flags: W
LayerCount: 2
Fore
SplineSet
539.5 996 m 128,-1,1
 473 996 473 996 383.5 1144.5 c 128,-1,2
 294 1293 294 1293 206.5 1144.5 c 128,-1,3
 119 996 119 996 51.5 996 c 128,-1,4
 -16 996 -16 996 113 1194.5 c 128,-1,5
 242 1393 242 1393 295 1393 c 128,-1,6
 348 1393 348 1393 477 1194.5 c 128,-1,0
 606 996 606 996 539.5 996 c 128,-1,1
EndSplineSet
Validated: 33
EndChar

StartChar: underscore
Encoding: 95 95 66
Width: 1024
GlyphClass: 1
Flags: W
LayerCount: 2
Fore
SplineSet
1036 -256 m 1,0,-1
 -12 -256 l 1,1,-1
 -12 -154 l 1,2,-1
 1036 -154 l 1,3,-1
 1036 -256 l 1,0,-1
EndSplineSet
Validated: 1
EndChar

StartChar: grave
Encoding: 96 96 67
Width: 345
GlyphClass: 1
Flags: W
LayerCount: 2
Fore
SplineSet
98 1373 m 2,0,-1
 79 1360 l 2,1,2
 13 1312 13 1312 79 1220 c 0,3,4
 134 1143 134 1143 293 1048 c 1,5,-1
 334 1077 l 1,6,-1
 242 1314 l 1,7,-1
 231 1329 l 2,8,9
 165 1421 165 1421 98 1373 c 2,0,-1
EndSplineSet
Validated: 41
EndChar

StartChar: a
Encoding: 97 97 68
Width: 1215
GlyphClass: 1
Flags: W
LayerCount: 2
Fore
SplineSet
214 1094 m 1,0,-1
 697 1094 l 1,1,-1
 777 1010 l 1,2,-1
 777 946 l 1,3,-1
 643 926 l 1,4,5
 786 252 786 252 929 252 c 128,-1,6
 1072 252 1072 252 1125.5 252 c 128,-1,7
 1179 252 1179 252 1179 224 c 128,-1,8
 1179 196 1179 196 1179 168 c 128,-1,9
 1179 140 1179 140 1112 70 c 128,-1,10
 1045 0 1045 0 951 0 c 128,-1,11
 857 0 857 0 777 70 c 128,-1,12
 697 140 697 140 522.5 70 c 128,-1,13
 348 0 348 0 281 0 c 128,-1,14
 214 0 214 0 107 57.5 c 128,-1,15
 0 115 0 115 0 198 c 128,-1,16
 0 281 0 281 0 337 c 128,-1,17
 0 393 0 393 31 467.5 c 128,-1,18
 62 542 62 542 165 607.5 c 128,-1,19
 268 673 268 673 295 729 c 128,-1,20
 322 785 322 785 322 813.5 c 128,-1,21
 322 842 322 842 228 926 c 128,-1,22
 134 1010 134 1010 214 1094 c 1,0,-1
322 238.5 m 128,-1,24
 322 196 322 196 375.5 196 c 128,-1,25
 429 196 429 196 496 266.5 c 128,-1,26
 563 337 563 337 563 379 c 128,-1,27
 563 421 563 421 549.5 421 c 128,-1,28
 536 421 536 421 463 421 c 128,-1,29
 390 421 390 421 356 351 c 128,-1,23
 322 281 322 281 322 238.5 c 128,-1,24
EndSplineSet
Validated: 33
EndChar

StartChar: b
Encoding: 98 98 69
Width: 1102
GlyphClass: 1
Flags: W
LayerCount: 2
Fore
SplineSet
727 0 m 2,0,-1
 682 0 l 2,1,2
 558 0 558 0 500 110 c 1,3,-1
 500 220 l 1,4,-1
 636 351 l 1,5,-1
 727 351 l 1,6,-1
 863 264 l 1,7,-1
 909 264 l 1,8,-1
 909 417 l 1,9,10
 781 659 781 659 613 659 c 0,11,12
 465 659 465 659 386 527 c 1,13,-1
 386 176 l 1,14,-1
 432 110 l 1,15,-1
 432 66 l 1,16,-1
 386 22 l 1,17,-1
 159 22 l 1,18,19
 91 44 91 44 91 154 c 2,20,-1
 91 1164 l 1,21,22
 0 1164 0 1164 0 1208 c 2,23,-1
 0 1252 l 1,24,-1
 45 1296 l 1,25,-1
 318 1296 l 1,26,27
 386 1274 386 1274 386 1164 c 2,28,-1
 386 747 l 1,29,-1
 409 747 l 1,30,-1
 613 791 l 1,31,32
 852 791 852 791 1022 483 c 1,33,34
 1067 337 1067 337 1022 198 c 1,35,36
 927 0 927 0 727 0 c 2,0,-1
EndSplineSet
Validated: 33
EndChar

StartChar: d
Encoding: 100 100 71
Width: 1005
GlyphClass: 1
Flags: W
LayerCount: 2
Fore
SplineSet
199 1242 m 1,0,-1
 530 1263 l 1,1,-1
 629 1242 l 1,2,3
 944 962 944 962 944 580 c 1,4,5
 892 0 892 0 629 0 c 1,6,-1
 513 41 l 1,7,8
 331 141 331 141 331 435 c 1,9,10
 343 849 343 849 563 849 c 2,11,-1
 613 849 l 1,12,-1
 745 807 l 1,13,-1
 745 890 l 1,14,15
 707 989 707 989 629 1035 c 1,16,-1
 265 1035 l 2,17,18
 145 1035 145 1035 0 1263 c 1,19,-1
 0 1304 l 1,20,-1
 199 1242 l 1,0,-1
629 683 m 2,22,-1
 613 683 l 1,23,-1
 547 600 l 1,24,-1
 547 290 l 2,25,26
 547 166 547 166 629 166 c 0,27,28
 729 166 729 166 729 290 c 2,29,-1
 729 559 l 2,30,21
 729 683 729 683 629 683 c 2,22,-1
EndSplineSet
Validated: 1
EndChar

StartChar: f
Encoding: 102 102 73
Width: 1025
GlyphClass: 1
Flags: W
LayerCount: 2
Fore
SplineSet
523 0 m 1,0,-1
 389 0 l 1,1,-1
 351 36 l 1,2,-1
 351 1118 l 1,3,4
 377 1296 377 1296 542 1296 c 2,5,-1
 561 1296 l 1,6,7
 695 1217 695 1217 732 1107 c 1,8,-1
 625 993 l 1,9,-1
 561 1047 l 1,10,-1
 561 36 l 1,11,-1
 523 0 l 1,0,-1
1001 455 m 1,12,-1
 1001 402 l 1,13,14
 790 173 790 173 742 173 c 1,15,-1
 742 191 l 1,16,-1
 724 208 l 1,17,-1
 724 332 l 1,18,-1
 132 332 l 1,19,-1
 58 402 l 1,20,-1
 58 420 l 1,21,-1
 95 455 l 1,22,-1
 1001 455 l 1,12,-1
EndSplineSet
Validated: 5
EndChar

StartChar: g
Encoding: 103 103 74
Width: 1139
GlyphClass: 1
Flags: W
LayerCount: 2
Fore
SplineSet
-8 -332 m 1,0,-1
 -8 -287 l 1,1,2
 157 -42 157 -42 295 -42 c 2,3,-1
 711 -42 l 1,4,5
 800 7 800 7 843 113 c 1,6,-1
 843 202 l 1,7,-1
 692 157 l 1,8,-1
 635 157 l 2,9,10
 384 157 384 157 370 602 c 1,11,12
 370 917 370 917 578 1025 c 1,13,-1
 711 1069 l 1,14,15
 1011 1069 1011 1069 1070 446 c 1,16,17
 1070 36 1070 36 711 -265 c 1,18,-1
 597 -287 l 1,19,-1
 219 -265 l 1,20,-1
 -8 -332 l 1,0,-1
824 469 m 2,21,-1
 824 758 l 2,22,23
 824 891 824 891 711 891 c 0,24,25
 616 891 616 891 616 758 c 2,26,-1
 616 424 l 1,27,-1
 692 335 l 1,28,-1
 711 335 l 2,29,30
 824 335 824 335 824 469 c 2,21,-1
EndSplineSet
Validated: 1
EndChar

StartChar: h
Encoding: 104 104 75
Width: 977
GlyphClass: 1
Flags: W
LayerCount: 2
Fore
SplineSet
317 1218 m 1,1,-1
 317 594 l 1,2,-1
 385 594 l 1,3,4
 435 751 435 751 612 840 c 1,5,-1
 771 840 l 1,6,7
 861 807 861 807 861 697 c 2,8,-1
 861 205 l 1,9,-1
 884 184 l 1,10,11
 952 184 952 184 952 143 c 1,12,13
 902 36 902 36 748 0 c 1,14,15
 612 48 612 48 612 82 c 2,16,-1
 612 574 l 1,17,-1
 544 574 l 1,18,-1
 317 205 l 1,19,-1
 317 41 l 1,20,-1
 272 0 l 1,21,-1
 113 0 l 1,22,-1
 68 41 l 1,23,-1
 68 1095 l 1,24,-1
 0 1116 l 1,25,26
 0 1273 0 1273 204 1300 c 1,27,0
 307 1260 307 1260 317 1218 c 1,1,-1
EndSplineSet
Validated: 1
EndChar

StartChar: i
Encoding: 105 105 76
Width: 342
GlyphClass: 1
Flags: W
LayerCount: 2
Fore
SplineSet
317 809 m 1,1,-1
 317 41 l 1,2,-1
 272 0 l 1,3,-1
 113 0 l 1,4,-1
 68 41 l 1,5,-1
 68 686 l 1,6,-1
 0 707 l 1,7,8
 0 864 0 864 204 891 c 1,9,0
 307 851 307 851 317 809 c 1,1,-1
274 1048 m 2,10,-1
 274 1086 l 2,11,12
 274 1219 274 1219 161 1219 c 0,13,14
 66 1219 66 1219 66 1086 c 2,15,-1
 66 1003 l 1,16,-1
 142 914 l 1,17,-1
 161 914 l 2,18,19
 274 914 274 914 274 1048 c 2,10,-1
EndSplineSet
Validated: 9
EndChar

StartChar: j
Encoding: 106 106 77
Width: 342
GlyphClass: 1
Flags: W
LayerCount: 2
Fore
SplineSet
317 809 m 1,1,-1
 313 -262 l 1,2,-1
 268 -303 l 1,3,-1
 109 -303 l 1,4,-1
 64 -262 l 1,5,-1
 68 686 l 1,6,-1
 0 707 l 1,7,8
 0 864 0 864 204 891 c 1,9,0
 307 851 307 851 317 809 c 1,1,-1
274 1048 m 2,10,-1
 274 1086 l 2,11,12
 274 1219 274 1219 161 1219 c 0,13,14
 66 1219 66 1219 66 1086 c 2,15,-1
 66 1003 l 1,16,-1
 142 914 l 1,17,-1
 161 914 l 2,18,19
 274 914 274 914 274 1048 c 2,10,-1
EndSplineSet
Validated: 9
EndChar

StartChar: k
Encoding: 107 107 78
Width: 1118
GlyphClass: 1
Flags: W
LayerCount: 2
Fore
SplineSet
49 1098 m 1,0,-1
 293 1098 l 1,1,-1
 342 1042 l 1,2,-1
 342 760 l 1,3,-1
 390 704 l 1,4,5
 683 1098 683 1098 793 1098 c 128,-1,6
 903 1098 903 1098 927.5 1070 c 128,-1,7
 952 1042 952 1042 561 648 c 1,8,9
 561 595 561 595 707.5 466.5 c 128,-1,10
 854 338 854 338 976 197 c 128,-1,11
 1098 56 1098 56 1073.5 28 c 128,-1,12
 1049 0 1049 0 878.5 0 c 128,-1,13
 708 0 708 0 390 450 c 1,14,-1
 342 394 l 1,15,-1
 342 84 l 2,16,17
 342 20 342 20 220 0 c 1,18,19
 92 0 92 0 24 141 c 1,20,-1
 24 197 l 1,21,-1
 98 310 l 1,22,-1
 98 929 l 2,23,24
 98 985 98 985 0 985 c 1,25,-1
 0 1042 l 1,26,-1
 49 1098 l 1,0,-1
EndSplineSet
Validated: 33
EndChar

StartChar: l
Encoding: 108 108 79
Width: 342
GlyphClass: 1
Flags: W
LayerCount: 2
Fore
SplineSet
317 1218 m 1,1,-1
 317 41 l 1,2,-1
 272 0 l 1,3,-1
 113 0 l 1,4,-1
 68 41 l 1,5,-1
 68 1095 l 1,6,-1
 0 1116 l 1,7,8
 0 1273 0 1273 204 1300 c 1,9,0
 307 1260 307 1260 317 1218 c 1,1,-1
EndSplineSet
Validated: 1
EndChar

StartChar: m
Encoding: 109 109 80
Width: 1272
GlyphClass: 1
Flags: W
LayerCount: 2
Fore
SplineSet
0 29 m 1,0,-1
 0 43 l 1,1,2
 14 80 14 80 146 173 c 1,3,4
 55 379 55 379 29 534 c 1,5,-1
 29 649 l 1,6,7
 191 981 191 981 365 981 c 0,8,9
 481 981 481 981 598 909 c 1,10,-1
 657 909 l 1,11,-1
 759 966 l 1,12,-1
 890 966 l 1,13,14
 1212 805 1212 805 1212 620 c 2,15,-1
 1212 534 l 2,16,17
 1212 429 1212 429 1095 202 c 1,18,-1
 1095 173 l 1,19,-1
 1241 43 l 1,20,-1
 1197 0 l 1,21,-1
 876 0 l 1,22,-1
 861 14 l 1,23,24
 963 411 963 411 963 505 c 0,25,26
 963 816 963 816 803 865 c 1,27,28
 744 865 744 865 715 808 c 1,29,-1
 803 548 l 1,30,-1
 803 361 l 2,31,32
 803 158 803 158 628 29 c 1,33,-1
 584 29 l 1,34,35
 504 69 504 69 438 375 c 1,36,-1
 438 490 l 1,37,-1
 540 793 l 1,38,39
 531 836 531 836 453 865 c 1,40,41
 314 865 314 865 277 490 c 1,42,43
 307 241 307 241 380 43 c 1,44,45
 380 0 380 0 350 0 c 2,46,-1
 29 0 l 1,47,-1
 0 29 l 1,0,-1
622 182 m 1,49,-1
 629 182 l 2,50,51
 659 182 659 182 680 282 c 0,52,53
 710 411 710 411 690 571 c 1,54,55
 664 653 664 653 629 668 c 1,56,-1
 619 668 l 1,57,58
 594 629 594 629 578 540 c 1,59,60
 548 412 548 412 571 300 c 1,61,48
 594 219 594 219 622 182 c 1,49,-1
EndSplineSet
Validated: 33
EndChar

StartChar: n
Encoding: 110 110 81
Width: 997
GlyphClass: 1
Flags: W
LayerCount: 2
Fore
SplineSet
317 878 m 1,1,-1
 317 594 l 1,2,-1
 385 594 l 1,3,4
 435 751 435 751 612 840 c 1,5,-1
 771 840 l 1,6,7
 861 807 861 807 861 697 c 2,8,-1
 861 205 l 1,9,-1
 884 184 l 1,10,11
 952 184 952 184 952 143 c 1,12,13
 902 36 902 36 748 0 c 1,14,15
 612 48 612 48 612 82 c 2,16,-1
 612 574 l 1,17,-1
 544 574 l 1,18,-1
 317 205 l 1,19,-1
 317 41 l 1,20,-1
 272 0 l 1,21,-1
 113 0 l 1,22,-1
 68 41 l 1,23,-1
 68 755 l 1,24,-1
 0 776 l 1,25,26
 0 933 0 933 204 960 c 1,27,0
 307 920 307 920 317 878 c 1,1,-1
EndSplineSet
Validated: 1
EndChar

StartChar: p
Encoding: 112 112 83
Width: 1090
GlyphClass: 1
Flags: W
LayerCount: 2
Fore
SplineSet
658 1102 m 0,0,1
 934 1102 934 1102 1017 713 c 1,2,3
 1017 449 1017 449 741 324 c 1,4,-1
 438 324 l 1,5,-1
 438 -134 l 1,6,-1
 327 -226 l 1,7,-1
 217 -226 l 1,8,9
 24 -130 24 -130 24 -88 c 2,10,-1
 24 -65 l 2,11,12
 24 -19 24 -19 162 -19 c 1,13,-1
 162 804 l 2,14,15
 162 881 162 881 79 965 c 1,16,-1
 79 1010 l 1,17,-1
 134 1056 l 1,18,-1
 410 1033 l 1,19,20
 410 1102 410 1102 658 1102 c 0,0,1
493 919 m 1,21,-1
 438 827 l 1,22,-1
 438 575 l 1,23,-1
 493 484 l 1,24,-1
 631 484 l 1,25,-1
 686 575 l 1,26,-1
 686 827 l 1,27,-1
 631 919 l 1,28,-1
 493 919 l 1,21,-1
EndSplineSet
Validated: 1
EndChar

StartChar: q
Encoding: 113 113 84
Width: 997
GlyphClass: 1
Flags: W
LayerCount: 2
Fore
SplineSet
604 1033 m 1,1,-1
 868 1056 l 1,2,-1
 920 1010 l 1,3,-1
 920 965 l 1,4,5
 841 881 841 881 841 804 c 2,6,-1
 841 -19 l 1,7,8
 973 -19 973 -19 973 -65 c 2,9,-1
 973 -88 l 2,10,11
 973 -130 973 -130 788 -226 c 1,12,-1
 683 -226 l 1,13,-1
 578 -134 l 1,14,-1
 578 324 l 1,15,-1
 288 324 l 1,16,17
 24 449 24 449 24 713 c 1,18,19
 103 1102 103 1102 367 1102 c 0,20,0
 604 1102 604 1102 604 1033 c 1,1,-1
393 919 m 1,21,-1
 340 827 l 1,22,-1
 340 575 l 1,23,-1
 393 484 l 1,24,-1
 525 484 l 1,25,-1
 578 575 l 1,26,-1
 578 827 l 1,27,-1
 525 919 l 1,28,-1
 393 919 l 1,21,-1
EndSplineSet
Validated: 1
EndChar

StartChar: r
Encoding: 114 114 85
Width: 1033
GlyphClass: 1
Flags: W
LayerCount: 2
Fore
SplineSet
1017 935 m 1,0,1
 969 821 969 821 703 664 c 1,2,-1
 666 714 l 1,3,-1
 666 837 l 1,4,-1
 518 837 l 1,5,-1
 481 788 l 1,6,-1
 481 295 l 1,7,-1
 555 221 l 1,8,9
 555 79 555 79 425 0 c 1,10,-1
 333 0 l 1,11,12
 259 40 259 40 259 172 c 2,13,-1
 259 788 l 1,14,-1
 222 837 l 1,15,-1
 37 837 l 1,16,-1
 0 886 l 1,17,-1
 0 960 l 1,18,-1
 37 1009 l 1,19,-1
 962 1009 l 1,20,-1
 1017 935 l 1,0,1
EndSplineSet
Validated: 1
EndChar

StartChar: t
Encoding: 116 116 87
Width: 1017
GlyphClass: 1
Flags: W
LayerCount: 2
Fore
SplineSet
565 1260 m 1,0,-1
 565 994 l 1,1,-1
 623 941 l 1,2,-1
 993 941 l 1,3,-1
 993 888 l 1,4,5
 770 657 770 657 720 657 c 1,6,-1
 720 675 l 1,7,-1
 701 692 l 1,8,-1
 701 817 l 1,9,-1
 584 817 l 1,10,-1
 565 728 l 1,11,-1
 565 249 l 1,12,-1
 701 178 l 1,13,14
 701 79 701 79 565 0 c 1,15,-1
 545 0 l 2,16,17
 377 0 377 0 350 178 c 1,18,-1
 350 781 l 1,19,-1
 312 817 l 1,20,-1
 78 817 l 1,21,-1
 0 888 l 1,22,-1
 0 905 l 1,23,-1
 39 941 l 1,24,-1
 312 941 l 1,25,-1
 350 976 l 1,26,-1
 350 1260 l 1,27,-1
 389 1296 l 1,28,-1
 526 1296 l 1,29,-1
 565 1260 l 1,0,-1
EndSplineSet
Validated: 1
EndChar

StartChar: braceleft
Encoding: 123 123 94
Width: 684
GlyphClass: 1
Flags: W
LayerCount: 2
Fore
SplineSet
635 -430 m 1,0,-1
 580 -430 l 2,1,2
 498 -430 498 -430 438.5 -415.5 c 128,-1,3
 379 -401 379 -401 334 -343 c 128,-1,4
 289 -285 289 -285 277.5 -205 c 128,-1,5
 266 -125 266 -125 264 61 c 0,6,7
 264 191 264 191 253.5 267 c 128,-1,8
 243 343 243 343 198 395 c 128,-1,9
 153 447 153 447 57 449 c 1,10,-1
 57 612 l 1,11,12
 153 614 153 614 198 665.5 c 128,-1,13
 243 717 243 717 253.5 793 c 128,-1,14
 264 869 264 869 264 999 c 0,15,16
 266 1184 266 1184 277 1263.5 c 128,-1,17
 288 1343 288 1343 332.5 1402 c 128,-1,18
 377 1461 377 1461 437 1476 c 128,-1,19
 497 1491 497 1491 580 1491 c 2,20,-1
 635 1491 l 1,21,-1
 635 1335 l 1,22,-1
 604 1335 l 2,23,24
 501 1335 501 1335 466.5 1297.5 c 128,-1,25
 432 1260 432 1260 432 1128 c 0,26,27
 432 909 432 909 422.5 811 c 128,-1,28
 413 713 413 713 369.5 646.5 c 128,-1,29
 326 580 326 580 223 530 c 1,30,31
 325 489 325 489 378.5 397 c 128,-1,32
 432 305 432 305 432 78 c 0,33,34
 432 -131 432 -131 441 -178 c 128,-1,35
 450 -225 450 -225 475.5 -249.5 c 128,-1,36
 501 -274 501 -274 604 -274 c 2,37,-1
 635 -274 l 1,38,-1
 635 -430 l 1,0,-1
EndSplineSet
Validated: 1
EndChar

StartChar: bar
Encoding: 124 124 95
Width: 532
GlyphClass: 1
Flags: W
LayerCount: 2
Fore
SplineSet
344 -408 m 1,0,-1
 188 -408 l 1,1,-1
 188 1466 l 1,2,-1
 344 1466 l 1,3,-1
 344 -408 l 1,0,-1
EndSplineSet
Validated: 1
EndChar

StartChar: braceright
Encoding: 125 125 96
Width: 684
GlyphClass: 1
Flags: W
LayerCount: 2
Fore
SplineSet
627 449 m 1,0,1
 531 447 531 447 486.5 395.5 c 128,-1,2
 442 344 442 344 431.5 269.5 c 128,-1,3
 421 195 421 195 420 61 c 0,4,5
 418 -123 418 -123 407 -202.5 c 128,-1,6
 396 -282 396 -282 351.5 -341 c 128,-1,7
 307 -400 307 -400 247 -415 c 128,-1,8
 187 -430 187 -430 104 -430 c 2,9,-1
 49 -430 l 1,10,-1
 49 -274 l 1,11,-1
 80 -274 l 2,12,13
 183 -274 183 -274 217.5 -236.5 c 128,-1,14
 252 -199 252 -199 252 -68 c 0,15,16
 252 152 252 152 261.5 250 c 128,-1,17
 271 348 271 348 314.5 414.5 c 128,-1,18
 358 481 358 481 461 530 c 1,19,20
 359 572 359 572 305.5 664 c 128,-1,21
 252 756 252 756 252 983 c 0,22,23
 252 1192 252 1192 243 1238.5 c 128,-1,24
 234 1285 234 1285 208.5 1310 c 128,-1,25
 183 1335 183 1335 80 1335 c 2,26,-1
 49 1335 l 1,27,-1
 49 1491 l 1,28,-1
 104 1491 l 2,29,30
 187 1491 187 1491 247.5 1475.5 c 128,-1,31
 308 1460 308 1460 353.5 1399.5 c 128,-1,32
 399 1339 399 1339 409.5 1261 c 128,-1,33
 420 1183 420 1183 420 999 c 0,34,35
 420 870 420 870 430.5 794 c 128,-1,36
 441 718 441 718 486 666 c 128,-1,37
 531 614 531 614 627 612 c 1,38,-1
 627 449 l 1,0,1
EndSplineSet
Validated: 1
EndChar

StartChar: asciitilde
Encoding: 126 126 97
Width: 1196
GlyphClass: 1
Flags: W
LayerCount: 2
Fore
SplineSet
1110 674 m 1,0,1
 991 559 991 559 834 559 c 0,2,3
 729 559 729 559 590 621 c 1,4,5
 446 692 446 692 348 692 c 0,6,7
 221 692 221 692 88 557 c 1,8,-1
 88 762 l 1,9,10
 194 883 194 883 365 883 c 0,11,12
 472 883 472 883 639 813 c 1,13,14
 770 748 770 748 852 748 c 0,15,16
 981 748 981 748 1110 885 c 1,17,-1
 1110 674 l 1,0,1
EndSplineSet
Validated: 1
EndChar

StartChar: exclamdown
Encoding: 161 161 98
Width: 296
GlyphClass: 1
Flags: W
LayerCount: 2
Fore
SplineSet
276 -193 m 2,1,-1
 276 -176 l 1,2,-1
 189 687 l 1,3,-1
 118 687 l 1,4,5
 16 531 16 531 16 -193 c 0,6,7
 16 -297 16 -297 129 -297 c 2,8,-1
 162 -297 l 2,9,0
 276 -297 276 -297 276 -193 c 2,1,-1
157 1094 m 2,11,-1
 138 1094 l 1,12,-1
 62 1005 l 1,13,-1
 62 922 l 2,14,15
 62 789 62 789 157 789 c 0,16,17
 270 789 270 789 270 922 c 2,18,-1
 270 960 l 2,19,10
 270 1094 270 1094 157 1094 c 2,11,-1
EndSplineSet
Validated: 9
EndChar

StartChar: currency
Encoding: 164 164 99
Width: 1139
GlyphClass: 1
Flags: W
LayerCount: 2
Fore
SplineSet
1061 354 m 1,0,-1
 946 236 l 1,1,-1
 807 375 l 1,2,3
 700 303 700 303 569 303 c 0,4,5
 439 303 439 303 332 375 c 1,6,-1
 193 236 l 1,7,-1
 78 354 l 1,8,-1
 217 489 l 1,9,10
 145 602 145 602 145 725 c 0,11,12
 145 850 145 850 217 961 c 1,13,-1
 78 1098 l 1,14,-1
 193 1217 l 1,15,-1
 332 1077 l 1,16,17
 439 1149 439 1149 569 1149 c 0,18,19
 700 1149 700 1149 807 1077 c 1,20,-1
 946 1217 l 1,21,-1
 1061 1098 l 1,22,-1
 922 961 l 1,23,24
 993 850 993 850 993 725 c 0,25,26
 993 602 993 602 922 489 c 1,27,-1
 1061 354 l 1,0,-1
569 467 m 256,28,29
 676 467 676 467 752.5 543.5 c 128,-1,30
 829 620 829 620 829 727 c 256,31,32
 829 834 829 834 750.5 909.5 c 128,-1,33
 672 985 672 985 569 985 c 0,34,35
 462 985 462 985 385.5 909.5 c 128,-1,36
 309 834 309 834 309 727 c 256,37,38
 309 620 309 620 385.5 543.5 c 128,-1,39
 462 467 462 467 569 467 c 256,28,29
EndSplineSet
Validated: 1
EndChar

StartChar: dieresis
Encoding: 168 168 101
Width: 721
GlyphClass: 1
Flags: W
LayerCount: 2
Fore
SplineSet
565 1782 m 2,0,-1
 527 1782 l 2,1,2
 394 1782 394 1782 394 1669 c 0,3,4
 394 1574 394 1574 527 1574 c 2,5,-1
 610 1574 l 1,6,-1
 699 1650 l 1,7,-1
 699 1669 l 2,8,9
 699 1782 699 1782 565 1782 c 2,0,-1
213 1786 m 2,10,-1
 175 1786 l 2,11,12
 42 1786 42 1786 42 1673 c 0,13,14
 42 1578 42 1578 175 1578 c 2,15,-1
 258 1578 l 1,16,-1
 347 1654 l 1,17,-1
 347 1673 l 2,18,19
 347 1786 347 1786 213 1786 c 2,10,-1
EndSplineSet
Validated: 9
EndChar

StartChar: guillemotleft
Encoding: 171 171 102
Width: 816
GlyphClass: 1
Flags: W
LayerCount: 2
Fore
SplineSet
728.5 72 m 128,-1,1
 655 72 655 72 496 300 c 128,-1,2
 337 528 337 528 496 756.5 c 128,-1,3
 655 985 655 985 728.5 985 c 128,-1,4
 802 985 802 985 672 756.5 c 128,-1,5
 542 528 542 528 672 300 c 128,-1,0
 802 72 802 72 728.5 72 c 128,-1,1
337.5 72 m 128,-1,7
 264 72 264 72 105 300 c 128,-1,8
 -54 528 -54 528 105 756.5 c 128,-1,9
 264 985 264 985 337.5 985 c 128,-1,10
 411 985 411 985 281 756.5 c 128,-1,11
 151 528 151 528 281 300 c 128,-1,6
 411 72 411 72 337.5 72 c 128,-1,7
EndSplineSet
Validated: 33
EndChar

StartChar: macron
Encoding: 175 175 103
Width: 782
GlyphClass: 1
Flags: W
LayerCount: 2
Fore
SplineSet
758 1660 m 1,0,-1
 7 1660 l 1,1,-1
 7 1786 l 1,2,-1
 758 1786 l 1,3,-1
 758 1660 l 1,0,-1
EndSplineSet
Validated: 1
EndChar

StartChar: acute
Encoding: 180 180 104
Width: 326
GlyphClass: 1
Flags: W
LayerCount: 2
Fore
SplineSet
296 1760 m 2,0,-1
 279 1776 l 2,1,2
 219 1831 219 1831 142 1748 c 0,3,4
 78 1678 78 1678 17 1503 c 1,5,-1
 54 1469 l 1,6,-1
 267 1607 l 1,7,-1
 280 1621 l 2,8,9
 356 1704 356 1704 296 1760 c 2,0,-1
EndSplineSet
Validated: 41
EndChar

StartChar: mu
Encoding: 181 181 105
Width: 1114
GlyphClass: 1
Flags: W
LayerCount: 2
Fore
SplineSet
139 1053 m 2,0,-1
 331 1053 l 1,1,2
 436 1044 436 1044 436 1008 c 2,3,-1
 436 286 l 2,4,5
 436 196 436 196 540 150 c 1,6,7
 662 177 662 177 662 286 c 2,8,-1
 662 918 l 1,9,-1
 592 993 l 1,10,-1
 592 1008 l 2,11,12
 592 1053 592 1053 784 1053 c 2,13,-1
 889 1053 l 1,14,15
 993 1044 993 1044 993 1008 c 2,16,-1
 993 286 l 2,17,18
 993 257 993 257 1133 196 c 1,19,-1
 1150 181 l 1,20,-1
 1150 120 l 2,21,22
 1150 75 1150 75 1080 75 c 0,23,24
 1015 75 1015 75 819 196 c 1,25,26
 708 0 708 0 540 0 c 0,27,28
 410 0 410 0 279 196 c 1,29,-1
 280 -273 l 1,30,-1
 48 -281 l 1,31,-1
 -4 -236 l 1,32,-1
 -4 -206 l 1,33,34
 101 -115 101 -115 101 -56 c 2,35,-1
 105 918 l 2,36,37
 105 948 105 948 52 948 c 1,38,-1
 35 963 l 1,39,-1
 35 1008 l 1,40,41
 52 1053 52 1053 139 1053 c 2,0,-1
EndSplineSet
Validated: 1
EndChar

StartChar: cedilla
Encoding: 184 184 107
Width: 682
GlyphClass: 1
Flags: W
LayerCount: 2
Fore
SplineSet
369 -84 m 1,0,1
 447 -94 447 -94 493 -133.5 c 128,-1,2
 539 -173 539 -173 539 -231 c 0,3,4
 539 -313 539 -313 462 -366.5 c 128,-1,5
 385 -420 385 -420 250 -420 c 0,6,7
 163 -420 163 -420 106 -410 c 1,8,-1
 117 -293 l 1,9,10
 171 -297 171 -297 211 -297 c 0,11,12
 292 -297 292 -297 332.5 -278 c 128,-1,13
 373 -259 373 -259 373 -221 c 0,14,15
 373 -187 373 -187 333.5 -170.5 c 128,-1,16
 294 -154 294 -154 215 -154 c 1,17,-1
 268 23 l 1,18,-1
 401 23 l 1,19,-1
 369 -84 l 1,0,1
EndSplineSet
Validated: 1
EndChar

StartChar: guillemotright
Encoding: 187 187 108
Width: 816
GlyphClass: 1
Flags: W
LayerCount: 2
Fore
SplineSet
76 756.5 m 128,-1,1
 -54 985 -54 985 19.5 985 c 128,-1,2
 93 985 93 985 252 756.5 c 128,-1,3
 411 528 411 528 252 300 c 128,-1,4
 93 72 93 72 19.5 72 c 128,-1,5
 -54 72 -54 72 76 300 c 128,-1,0
 206 528 206 528 76 756.5 c 128,-1,1
467 756.5 m 128,-1,7
 337 985 337 985 410.5 985 c 128,-1,8
 484 985 484 985 643 756.5 c 128,-1,9
 802 528 802 528 643 300 c 128,-1,10
 484 72 484 72 410.5 72 c 128,-1,11
 337 72 337 72 467 300 c 128,-1,6
 597 528 597 528 467 756.5 c 128,-1,7
EndSplineSet
Validated: 33
EndChar

StartChar: questiondown
Encoding: 191 191 109
Width: 801
GlyphClass: 1
Flags: W
LayerCount: 2
Fore
SplineSet
520 -303 m 2,0,-1
 348 -303 l 2,1,2
 91 -303 91 -303 -13 56 c 1,3,4
 -13 181 -13 181 372 334 c 1,5,6
 375 421 375 421 375 473 c 0,7,8
 375 615 375 615 389.5 692.5 c 128,-1,9
 404 770 404 770 599 505 c 1,10,-1
 633 380 l 1,11,12
 592 206 592 206 365 72 c 0,13,14
 245 0 245 0 245 -84 c 1,15,16
 296 -194 296 -194 417 -194 c 2,17,-1
 451 -194 l 1,18,-1
 451 -116 l 1,19,20
 485 40 485 40 623 40 c 0,21,22
 715 40 715 40 761 -84 c 1,23,24
 705 -303 705 -303 520 -303 c 2,0,-1
317 960 m 2,25,-1
 317 922 l 2,26,27
 317 789 317 789 430 789 c 0,28,29
 525 789 525 789 525 922 c 2,30,-1
 525 1005 l 1,31,-1
 449 1094 l 1,32,-1
 430 1094 l 2,33,34
 317 1094 317 1094 317 960 c 2,25,-1
EndSplineSet
Validated: 41
EndChar

StartChar: AE
Encoding: 198 198 116
Width: 2150
GlyphClass: 1
Flags: W
LayerCount: 2
Fore
SplineSet
1554 1389 m 1,0,1
 1895 1389 1895 1389 2100 1054 c 1,2,-1
 2100 994 l 2,3,4
 2099 941 2099 941 1837 876 c 1,5,-1
 1780 876 l 1,6,-1
 1780 975 l 1,7,8
 1716 1231 1716 1231 1554 1231 c 2,9,-1
 1536 1231 l 1,10,11
 1366 1137 1366 1137 1366 955 c 0,12,13
 1366 758 1366 758 1479 758 c 2,14,-1
 1761 758 l 1,15,-1
 1799 718 l 1,16,-1
 1799 639 l 1,17,-1
 1761 600 l 1,18,-1
 1423 600 l 1,19,-1
 1385 560 l 1,20,-1
 1385 304 l 1,21,22
 1446 190 1446 190 1517 146 c 1,23,-1
 1573 146 l 2,24,25
 1718 146 1718 146 1761 363 c 1,26,-1
 1761 541 l 2,27,28
 1761 580 1761 580 1818 580 c 1,29,30
 2108 450 2108 450 2119 402 c 1,31,32
 2119 221 2119 221 1780 27 c 1,33,-1
 1554 -12 l 1,34,35
 1154 -12 1154 -12 990 442 c 1,36,-1
 952 560 l 1,37,-1
 952 817 l 2,38,39
 952 1080 952 1080 1310 1330 c 1,40,-1
 1554 1389 l 1,0,1
489 1373 m 0,41,42
 1101 1373 1101 1373 1319 369 c 1,43,44
 1405 172 1405 172 1564 109 c 1,45,-1
 1564 48 l 1,46,-1
 1500 -7 l 1,47,48
 1250 -11 1250 -11 1111 129 c 1,49,-1
 1073 129 l 1,50,51
 955 8 955 8 809 -32 c 1,52,-1
 602 88 l 1,53,-1
 564 88 l 1,54,55
 424 -32 424 -32 338 -32 c 2,56,-1
 319 -32 l 2,57,58
 63 -32 63 -32 17 349 c 1,59,60
 79 510 79 510 262 510 c 1,61,62
 408 455 408 455 432 390 c 1,63,-1
 432 329 l 1,64,-1
 357 209 l 1,65,-1
 357 189 l 1,66,-1
 432 189 l 1,67,68
 526 240 526 240 526 349 c 2,69,-1
 526 1072 l 1,70,71
 482 1172 482 1172 413 1172 c 1,72,-1
 394 1112 l 1,73,74
 432 992 432 992 432 961.5 c 128,-1,75
 432 931 432 931 394.5 891 c 128,-1,76
 357 851 357 851 272 851 c 128,-1,77
 187 851 187 851 130.5 911.5 c 128,-1,78
 74 972 74 972 74 1082.5 c 128,-1,79
 74 1193 74 1193 162.5 1283 c 128,-1,80
 251 1373 251 1373 489 1373 c 0,41,42
696 1032 m 1,81,-1
 696 369 l 1,82,83
 745 149 745 149 809 149 c 2,84,-1
 847 149 l 1,85,86
 960 215 960 215 960 450 c 0,87,88
 960 692 960 692 734 1012 c 1,89,-1
 715 1032 l 1,90,-1
 696 1032 l 1,81,-1
EndSplineSet
Validated: 37
EndChar

StartChar: Igrave
Encoding: 204 204 122
Width: 803
GlyphClass: 1
Flags: W
LayerCount: 2
Fore
SplineSet
78 1397 m 1,0,-1
 706 1397 l 1,1,-1
 758 1356 l 1,2,-1
 758 1315 l 2,3,4
 758 1280 758 1280 601 1253 c 1,5,-1
 575 1150 l 1,6,-1
 575 822 l 2,7,8
 575 699 575 699 758 699 c 1,9,-1
 758 657 l 1,10,-1
 601 575 l 1,11,12
 575 144 575 144 680 144 c 0,13,14
 758 144 758 144 758 103 c 2,15,-1
 758 41 l 1,16,-1
 706 0 l 1,17,-1
 52 0 l 1,18,-1
 0 41 l 1,19,-1
 0 103 l 1,20,-1
 52 144 l 1,21,-1
 183 144 l 1,22,-1
 221 353 l 1,23,24
 209 587 209 587 0 637 c 1,25,-1
 0 657 l 2,26,27
 0 719 0 719 183 719 c 1,28,-1
 209 822 l 1,29,-1
 209 1212 l 2,30,31
 209 1261 209 1261 0 1294 c 1,32,-1
 0 1335 l 1,33,-1
 78 1397 l 1,0,-1
208 1744 m 2,34,-1
 189 1731 l 2,35,36
 123 1683 123 1683 189 1591 c 0,37,38
 244 1514 244 1514 403 1419 c 1,39,-1
 444 1448 l 1,40,-1
 352 1685 l 1,41,-1
 341 1700 l 2,42,43
 275 1792 275 1792 208 1744 c 2,34,-1
EndSplineSet
Validated: 41
EndChar

StartChar: Iacute
Encoding: 205 205 123
Width: 815
GlyphClass: 1
Flags: W
LayerCount: 2
Fore
SplineSet
78 1397 m 1,0,-1
 706 1397 l 1,1,-1
 758 1356 l 1,2,-1
 758 1315 l 2,3,4
 758 1280 758 1280 601 1253 c 1,5,-1
 575 1150 l 1,6,-1
 575 822 l 2,7,8
 575 699 575 699 758 699 c 1,9,-1
 758 657 l 1,10,-1
 601 575 l 1,11,12
 575 144 575 144 680 144 c 0,13,14
 758 144 758 144 758 103 c 2,15,-1
 758 41 l 1,16,-1
 706 0 l 1,17,-1
 52 0 l 1,18,-1
 0 41 l 1,19,-1
 0 103 l 1,20,-1
 52 144 l 1,21,-1
 183 144 l 1,22,-1
 221 353 l 1,23,24
 209 587 209 587 0 637 c 1,25,-1
 0 657 l 2,26,27
 0 719 0 719 183 719 c 1,28,-1
 209 822 l 1,29,-1
 209 1212 l 2,30,31
 209 1261 209 1261 0 1294 c 1,32,-1
 0 1335 l 1,33,-1
 78 1397 l 1,0,-1
616 1717 m 2,34,-1
 600 1733 l 1,35,36
 539 1788 539 1788 463 1705 c 0,37,38
 398 1635 398 1635 337 1460 c 1,39,-1
 374 1426 l 1,40,-1
 587 1564 l 1,41,-1
 600 1578 l 2,42,43
 677 1661 677 1661 616 1717 c 2,34,-1
EndSplineSet
Validated: 41
EndChar

StartChar: Icircumflex
Encoding: 206 206 124
Width: 823
GlyphClass: 1
Flags: W
LayerCount: 2
Fore
SplineSet
78 1397 m 1,0,-1
 706 1397 l 1,1,-1
 758 1356 l 1,2,-1
 758 1315 l 2,3,4
 758 1280 758 1280 601 1253 c 1,5,-1
 575 1150 l 1,6,-1
 575 822 l 2,7,8
 575 699 575 699 758 699 c 1,9,-1
 758 657 l 1,10,-1
 601 575 l 1,11,12
 575 144 575 144 680 144 c 0,13,14
 758 144 758 144 758 103 c 2,15,-1
 758 41 l 1,16,-1
 706 0 l 1,17,-1
 52 0 l 1,18,-1
 0 41 l 1,19,-1
 0 103 l 1,20,-1
 52 144 l 1,21,-1
 183 144 l 1,22,-1
 221 353 l 1,23,24
 209 587 209 587 0 637 c 1,25,-1
 0 657 l 2,26,27
 0 719 0 719 183 719 c 1,28,-1
 209 822 l 1,29,-1
 209 1212 l 2,30,31
 209 1261 209 1261 0 1294 c 1,32,-1
 0 1335 l 1,33,-1
 78 1397 l 1,0,-1
731 1427 m 1,34,-1
 527 1427 l 1,35,-1
 418 1511 l 1,36,-1
 303 1427 l 1,37,-1
 99 1427 l 1,38,-1
 424 1592 l 1,39,-1
 731 1427 l 1,34,-1
EndSplineSet
Validated: 33
EndChar

StartChar: Idieresis
Encoding: 207 207 125
Width: 835
GlyphClass: 1
Flags: W
LayerCount: 2
Fore
SplineSet
78 1397 m 1,0,-1
 706 1397 l 1,1,-1
 758 1356 l 1,2,-1
 758 1315 l 2,3,4
 758 1280 758 1280 601 1253 c 1,5,-1
 575 1150 l 1,6,-1
 575 822 l 2,7,8
 575 699 575 699 758 699 c 1,9,-1
 758 657 l 1,10,-1
 601 575 l 1,11,12
 575 144 575 144 680 144 c 0,13,14
 758 144 758 144 758 103 c 2,15,-1
 758 41 l 1,16,-1
 706 0 l 1,17,-1
 52 0 l 1,18,-1
 0 41 l 1,19,-1
 0 103 l 1,20,-1
 52 144 l 1,21,-1
 183 144 l 1,22,-1
 221 353 l 1,23,24
 209 587 209 587 0 637 c 1,25,-1
 0 657 l 2,26,27
 0 719 0 719 183 719 c 1,28,-1
 209 822 l 1,29,-1
 209 1212 l 2,30,31
 209 1261 209 1261 0 1294 c 1,32,-1
 0 1335 l 1,33,-1
 78 1397 l 1,0,-1
591 1637 m 2,34,-1
 553 1637 l 2,35,36
 420 1637 420 1637 420 1524 c 0,37,38
 420 1429 420 1429 553 1429 c 2,39,-1
 636 1429 l 1,40,-1
 725 1505 l 1,41,-1
 725 1524 l 2,42,43
 725 1637 725 1637 591 1637 c 2,34,-1
239 1641 m 2,44,-1
 201 1641 l 2,45,46
 68 1641 68 1641 68 1528 c 0,47,48
 68 1433 68 1433 201 1433 c 2,49,-1
 284 1433 l 1,50,-1
 373 1509 l 1,51,-1
 373 1528 l 2,52,53
 373 1641 373 1641 239 1641 c 2,44,-1
EndSplineSet
Validated: 41
EndChar

StartChar: Eth
Encoding: 208 208 126
Width: 1551
GlyphClass: 1
Flags: W
LayerCount: 2
Fore
SplineSet
282 1397 m 2,0,-1
 552 1397 l 1,1,2
 677 1381 677 1381 677 1321 c 2,3,-1
 677 1293 l 1,4,-1
 718 1242 l 1,5,-1
 863 1242 l 1,6,7
 1527 1114 1527 1114 1527 657 c 2,8,-1
 1527 631 l 2,9,10
 1527 305 1527 305 1091 46 c 1,11,-1
 697 71 l 1,12,-1
 677 71 l 2,13,14
 489 71 489 71 428 -158 c 1,15,-1
 33 -158 l 2,16,17
 -8 -158 -8 -158 -8 -81 c 1,18,19
 38 95 38 95 199 224 c 1,20,-1
 780 224 l 1,21,22
 1195 283 1195 283 1195 606 c 0,23,24
 1195 812 1195 812 946 1013 c 1,25,-1
 780 1064 l 1,26,27
 677 1031 677 1031 677 988 c 2,28,-1
 677 248 l 1,29,-1
 635 197 l 1,30,-1
 386 197 l 1,31,-1
 345 248 l 1,32,-1
 345 1142 l 2,33,34
 345 1208 345 1208 158 1244 c 1,35,-1
 158 1321 l 1,36,37
 179 1397 179 1397 282 1397 c 2,0,-1
525.5 578.5 m 128,-1,39
 83 572 83 572 82.5 662.5 c 128,-1,40
 82 753 82 753 524.5 759.5 c 128,-1,41
 967 766 967 766 967.5 675.5 c 128,-1,38
 968 585 968 585 525.5 578.5 c 128,-1,39
EndSplineSet
Validated: 37
EndChar

StartChar: Oslash
Encoding: 216 216 133
Width: 1180
GlyphClass: 1
Flags: W
LayerCount: 2
Fore
SplineSet
642 1397 m 0,0,1
 1149 1397 1149 1397 1182 712 c 1,2,3
 1167 0 1167 0 620 0 c 0,4,5
 110 0 110 0 44 630 c 1,6,-1
 44 807 l 1,7,8
 120 1397 120 1397 642 1397 c 0,0,1
375 984 m 2,9,-1
 375 472 l 2,10,11
 375 245 375 245 553 157 c 1,12,-1
 620 157 l 1,13,14
 864 190 864 190 864 374 c 2,15,-1
 864 1023 l 1,16,17
 828 1240 828 1240 620 1240 c 2,18,-1
 575 1240 l 1,19,20
 375 1157 375 1157 375 984 c 2,9,-1
696 700 m 128,-1,22
 485 -102 485 -102 413 -102 c 128,-1,23
 341 -102 341 -102 552 700 c 128,-1,24
 763 1502 763 1502 835 1502 c 128,-1,21
 907 1502 907 1502 696 700 c 128,-1,22
EndSplineSet
Validated: 41
EndChar

StartChar: Thorn
Encoding: 222 222 139
Width: 985
GlyphClass: 1
Flags: W
LayerCount: 2
Fore
SplineSet
120 1291 m 1,0,-1
 103 1306 l 1,1,2
 21 1310 21 1310 21 1337 c 1,3,-1
 4 1353 l 1,4,-1
 4 1369 l 1,5,-1
 54 1417 l 1,6,-1
 534 1417 l 1,7,-1
 567 1385 l 1,8,-1
 567 1337 l 1,9,-1
 534 1306 l 1,10,-1
 451 1306 l 1,11,-1
 435 1227 l 1,12,-1
 435 1148 l 1,13,-1
 451 1068 l 1,14,-1
 700 1068 l 2,15,16
 890 1068 890 1068 948 831 c 1,17,18
 906 515 906 515 667 515 c 2,19,-1
 122 512 l 1,20,-1
 120 1291 l 1,0,-1
484 625 m 1,21,22
 667 652 667 652 667 784 c 0,23,24
 667 942 667 942 534 942 c 2,25,-1
 435 942 l 1,26,-1
 435 641 l 1,27,-1
 484 625 l 1,21,22
121 558 m 1,28,-1
 447 558 l 1,29,-1
 434 475 l 1,30,-1
 434 190 l 1,31,-1
 451 111 l 1,32,-1
 533 111 l 1,33,-1
 566 80 l 1,34,-1
 566 32 l 1,35,-1
 533 0 l 1,36,-1
 53 0 l 1,37,-1
 3 48 l 1,38,-1
 3 64 l 1,39,-1
 20 80 l 1,40,41
 20 107 20 107 103 111 c 1,42,-1
 119 126 l 1,43,-1
 121 558 l 1,28,-1
EndSplineSet
Validated: 5
EndChar

StartChar: germandbls
Encoding: 223 223 140
Width: 1292
GlyphClass: 1
Flags: W
LayerCount: 2
Fore
SplineSet
449 1385 m 1,0,1
 552 1373 552 1373 552 1329 c 2,2,-1
 552 952 l 1,3,-1
 586 914 l 1,4,-1
 705 914 l 1,5,6
 1252 820 1252 820 1252 481 c 2,7,-1
 1252 463 l 2,8,9
 1252 221 1252 221 893 30 c 1,10,-1
 569 48 l 1,11,-1
 552 48 l 2,12,13
 397 48 397 48 347 -121 c 1,14,-1
 22 -121 l 2,15,16
 -12 -121 -12 -121 -12 -64 c 1,17,18
 26 66 26 66 159 161 c 1,19,-1
 637 161 l 1,20,21
 979 205 979 205 979 444 c 0,22,23
 979 596 979 596 774 745 c 1,24,-1
 637 783 l 1,25,26
 552 758 552 758 552 726 c 2,27,-1
 552 350 l 1,28,-1
 518 312 l 1,29,-1
 313 312 l 1,30,-1
 278 350 l 1,31,32
 278 1197 278 1197 278 1221 c 128,-1,33
 278 1245 278 1245 449 1385 c 1,0,1
797 1381 m 1,35,36
 995 1311 995 1311 1001 1066 c 1,37,38
 922 791 922 791 516 780 c 1,39,-1
 452 1022 l 1,40,-1
 401 1265 l 1,41,42
 405 1144 405 1144 313.5 1188.5 c 128,-1,43
 222 1233 222 1233 261 1307 c 128,-1,44
 300 1381 300 1381 322.5 1370 c 128,-1,45
 345 1359 345 1359 360 1370 c 128,-1,34
 375 1381 375 1381 797 1381 c 1,35,36
564 1265 m 1,46,-1
 548 1175 l 1,47,-1
 548 1011 l 1,48,49
 558 902 558 902 594 902 c 0,50,51
 852 902 852 902 852 1065 c 1,52,-1
 867 1065 l 1,53,54
 867 1187 867 1187 746 1265 c 1,55,-1
 564 1265 l 1,46,-1
EndSplineSet
Validated: 37
EndChar

StartChar: ae
Encoding: 230 230 147
Width: 1506
GlyphClass: 1
Flags: W
LayerCount: 2
Fore
SplineSet
206 984 m 1,0,-1
 670 984 l 1,1,-1
 747 908 l 1,2,-1
 747 850 l 1,3,-1
 618 832 l 1,4,5
 755 227 755 227 781 209 c 128,-1,6
 807 191 807 191 833 142.5 c 128,-1,7
 859 94 859 94 872 77 c 128,-1,8
 885 60 885 60 1009.5 93 c 128,-1,9
 1134 126 1134 126 1069.5 63 c 128,-1,10
 1005 0 1005 0 914.5 0 c 128,-1,11
 824 0 824 0 747 63 c 128,-1,12
 670 126 670 126 502.5 63 c 128,-1,13
 335 0 335 0 270.5 0 c 128,-1,14
 206 0 206 0 103 52 c 128,-1,15
 0 104 0 104 0 178 c 128,-1,16
 0 252 0 252 0 302.5 c 128,-1,17
 0 353 0 353 30 420 c 128,-1,18
 60 487 60 487 159 546 c 128,-1,19
 258 605 258 605 283.5 655.5 c 128,-1,20
 309 706 309 706 309 731.5 c 128,-1,21
 309 757 309 757 219 832.5 c 128,-1,22
 129 908 129 908 206 984 c 1,0,-1
157 226 m 128,-1,24
 157 177 157 177 242.5 177 c 128,-1,25
 328 177 328 177 434.5 258.5 c 128,-1,26
 541 340 541 340 541 389 c 128,-1,27
 541 438 541 438 519.5 438 c 128,-1,28
 498 438 498 438 382.5 438 c 128,-1,29
 267 438 267 438 212 356.5 c 128,-1,23
 157 275 157 275 157 226 c 128,-1,24
1029 972 m 1,30,31
 1302 972 1302 972 1466 737 c 1,32,-1
 1466 696 l 2,33,34
 1465 659 1465 659 1255 613 c 1,35,-1
 1210 613 l 1,36,-1
 1210 682 l 1,37,38
 1158 862 1158 862 1029 862 c 2,39,-1
 1014 862 l 1,40,41
 878 796 878 796 878 668 c 0,42,43
 878 530 878 530 969 530 c 2,44,-1
 1195 530 l 1,45,-1
 1225 503 l 1,46,-1
 1225 447 l 1,47,-1
 1195 420 l 1,48,-1
 924 420 l 1,49,-1
 894 392 l 1,50,-1
 894 213 l 1,51,52
 942 133 942 133 999 102 c 1,53,-1
 1044 102 l 2,54,55
 1160 102 1160 102 1195 254 c 1,56,-1
 1195 378 l 2,57,58
 1195 406 1195 406 1240 406 c 1,59,60
 1472 315 1472 315 1481 282 c 1,61,62
 1481 155 1481 155 1210 19 c 1,63,-1
 1029 -8 l 1,64,65
 709 -8 709 -8 577 309 c 1,66,-1
 547 392 l 1,67,-1
 547 572 l 2,68,69
 547 756 547 756 833 931 c 1,70,-1
 1029 972 l 1,30,31
EndSplineSet
Validated: 37
EndChar

StartChar: eth
Encoding: 240 240 157
Width: 889
GlyphClass: 1
Flags: W
LayerCount: 2
Fore
SplineSet
132 1242 m 1,0,-1
 463 1263 l 1,1,-1
 562 1242 l 1,2,3
 877 962 877 962 877 580 c 1,4,5
 825 0 825 0 562 0 c 1,6,-1
 446 41 l 1,7,8
 264 141 264 141 264 435 c 1,9,10
 276 849 276 849 496 849 c 2,11,-1
 546 849 l 1,12,-1
 678 807 l 1,13,-1
 678 890 l 1,14,15
 640 989 640 989 562 1035 c 1,16,-1
 198 1035 l 2,17,18
 78 1035 78 1035 -67 1263 c 1,19,-1
 -67 1304 l 1,20,-1
 132 1242 l 1,0,-1
562 683 m 2,22,-1
 546 683 l 1,23,-1
 480 600 l 1,24,-1
 480 290 l 2,25,26
 480 166 480 166 562 166 c 0,27,28
 662 166 662 166 662 290 c 2,29,-1
 662 559 l 2,30,21
 662 683 662 683 562 683 c 2,22,-1
420 1073 m 128,-1,32
 315 755 315 755 229.5 785 c 128,-1,33
 144 815 144 815 249 1133 c 128,-1,34
 354 1451 354 1451 439.5 1421 c 128,-1,31
 525 1391 525 1391 420 1073 c 128,-1,32
EndSplineSet
Validated: 37
EndChar

StartChar: thorn
Encoding: 254 254 170
Width: 943
GlyphClass: 1
Flags: W
LayerCount: 2
Fore
SplineSet
585 882 m 0,0,1
 841 882 841 882 918 518 c 1,2,3
 918 271 918 271 662 154 c 1,4,-1
 382 154 l 1,5,-1
 378 -136 l 1,6,-1
 275 -223 l 1,7,-1
 173 -223 l 1,8,9
 -6 -133 -6 -133 -6 -93 c 2,10,-1
 -6 -72 l 2,11,12
 -6 -29 -6 -29 122 -29 c 1,13,-1
 122 1060 l 2,14,15
 122 1132 122 1132 45 1211 c 1,16,-1
 45 1253 l 1,17,-1
 96 1296 l 1,18,-1
 322 1294 l 1,19,20
 356 882 356 882 585 882 c 0,0,1
433 711 m 1,21,-1
 382 625 l 1,22,-1
 382 389 l 1,23,-1
 433 304 l 1,24,-1
 560 304 l 1,25,-1
 611 389 l 1,26,-1
 611 625 l 1,27,-1
 560 711 l 1,28,-1
 433 711 l 1,21,-1
EndSplineSet
Validated: 1
EndChar

StartChar: dcroat
Encoding: 273 273 189
Width: 817
GlyphClass: 1
Flags: W
LayerCount: 2
Fore
SplineSet
474 1348 m 1,0,1
 631 962 631 962 631 580 c 1,2,3
 579 0 579 0 316 0 c 1,4,-1
 200 41 l 1,5,6
 18 141 18 141 18 435 c 1,7,8
 30 849 30 849 250 849 c 2,9,-1
 300 849 l 1,10,-1
 432 807 l 1,11,-1
 432 890 l 1,12,13
 394 989 394 989 328 1282 c 1,14,-1
 474 1348 l 1,0,1
316 683 m 2,16,-1
 300 683 l 1,17,-1
 234 600 l 1,18,-1
 234 290 l 2,19,20
 234 166 234 166 316 166 c 0,21,22
 416 166 416 166 416 290 c 2,23,-1
 416 559 l 2,24,15
 416 683 416 683 316 683 c 2,16,-1
469 992.5 m 128,-1,26
 134 985 134 985 133.5 1075.5 c 128,-1,27
 133 1166 133 1166 468 1173.5 c 128,-1,28
 803 1181 803 1181 803.5 1090.5 c 128,-1,25
 804 1000 804 1000 469 992.5 c 128,-1,26
EndSplineSet
Validated: 37
EndChar

StartChar: Hbar
Encoding: 294 294 210
Width: 1460
GlyphClass: 1
Flags: W
LayerCount: 2
Fore
SplineSet
135 1401 m 1,0,-1
 590 1401 l 1,1,-1
 677 1319 l 1,2,-1
 590 1216 l 1,3,-1
 590 762 l 1,4,-1
 829 762 l 1,5,-1
 872 804 l 1,6,-1
 872 1216 l 1,7,-1
 786 1319 l 1,8,-1
 786 1339 l 1,9,10
 807 1401 807 1401 916 1401 c 2,11,-1
 1306 1401 l 1,12,-1
 1372 1339 l 1,13,-1
 1372 1298 l 1,14,15
 1285 1226 1285 1226 1285 1154 c 2,16,-1
 1285 185 l 2,17,18
 1285 145 1285 145 1415 103 c 1,19,-1
 1415 41 l 1,20,-1
 1372 0 l 1,21,-1
 829 0 l 1,22,-1
 786 41 l 1,23,-1
 786 82 l 1,24,-1
 872 185 l 1,25,-1
 872 556 l 1,26,-1
 807 618 l 1,27,-1
 634 618 l 1,28,-1
 590 577 l 1,29,-1
 590 165 l 1,30,-1
 677 62 l 1,31,-1
 612 0 l 1,32,-1
 69 0 l 1,33,-1
 26 41 l 1,34,-1
 26 62 l 1,35,36
 69 144 69 144 156 144 c 1,37,-1
 156 1216 l 2,38,39
 156 1257 156 1257 91 1257 c 1,40,-1
 69 1277 l 1,41,-1
 69 1339 l 1,42,-1
 135 1401 l 1,0,-1
1443 893 m 1,43,-1
 28 893 l 1,44,-1
 28 1074 l 1,45,-1
 1443 1074 l 1,46,-1
 1443 893 l 1,43,-1
EndSplineSet
Validated: 5
EndChar

StartChar: hbar
Encoding: 295 295 211
Width: 1108
GlyphClass: 1
Flags: W
LayerCount: 2
Fore
SplineSet
452 1218 m 1,1,-1
 452 594 l 1,2,-1
 520 594 l 1,3,4
 570 751 570 751 747 840 c 1,5,-1
 906 840 l 1,6,7
 996 807 996 807 996 697 c 2,8,-1
 996 205 l 1,9,-1
 1019 184 l 1,10,11
 1087 184 1087 184 1087 143 c 1,12,13
 1037 36 1037 36 883 0 c 1,14,15
 747 48 747 48 747 82 c 2,16,-1
 747 574 l 1,17,-1
 679 574 l 1,18,-1
 452 205 l 1,19,-1
 452 41 l 1,20,-1
 407 0 l 1,21,-1
 248 0 l 1,22,-1
 203 41 l 1,23,-1
 203 1095 l 1,24,-1
 135 1116 l 1,25,26
 135 1273 135 1273 339 1300 c 1,27,0
 442 1260 442 1260 452 1218 c 1,1,-1
667 881 m 1,28,-1
 4 881 l 1,29,-1
 4 1062 l 1,30,-1
 667 1062 l 1,31,-1
 667 881 l 1,28,-1
EndSplineSet
Validated: 5
EndChar

StartChar: Itilde
Encoding: 296 296 212
Width: 799
GlyphClass: 1
Flags: W
LayerCount: 2
Fore
SplineSet
78 1397 m 1,0,-1
 706 1397 l 1,1,-1
 758 1356 l 1,2,-1
 758 1315 l 2,3,4
 758 1280 758 1280 601 1253 c 1,5,-1
 575 1150 l 1,6,-1
 575 822 l 2,7,8
 575 699 575 699 758 699 c 1,9,-1
 758 657 l 1,10,-1
 601 575 l 1,11,12
 575 144 575 144 680 144 c 0,13,14
 758 144 758 144 758 103 c 2,15,-1
 758 41 l 1,16,-1
 706 0 l 1,17,-1
 52 0 l 1,18,-1
 0 41 l 1,19,-1
 0 103 l 1,20,-1
 52 144 l 1,21,-1
 183 144 l 1,22,-1
 221 353 l 1,23,24
 209 587 209 587 0 637 c 1,25,-1
 0 657 l 2,26,27
 0 719 0 719 183 719 c 1,28,-1
 209 822 l 1,29,-1
 209 1212 l 2,30,31
 209 1261 209 1261 0 1294 c 1,32,-1
 0 1335 l 1,33,-1
 78 1397 l 1,0,-1
731 1603 m 1,34,35
 731 1527 731 1527 673.5 1487.5 c 128,-1,36
 616 1448 616 1448 534 1448 c 0,37,38
 488 1448 488 1448 457 1455 c 128,-1,39
 426 1462 426 1462 383 1481 c 0,40,41
 312 1512 312 1512 270 1512 c 0,42,43
 187 1512 187 1512 184 1448 c 1,44,-1
 61 1448 l 1,45,46
 61 1524 61 1524 121 1563.5 c 128,-1,47
 181 1603 181 1603 264 1603 c 0,48,49
 329 1603 329 1603 404.5 1571 c 128,-1,50
 480 1539 480 1539 528 1539 c 0,51,52
 597 1539 597 1539 608 1603 c 1,53,-1
 731 1603 l 1,34,35
EndSplineSet
Validated: 33
EndChar

StartChar: Imacron
Encoding: 298 298 214
Width: 799
GlyphClass: 1
Flags: W
LayerCount: 2
Fore
SplineSet
78 1397 m 1,0,-1
 706 1397 l 1,1,-1
 758 1356 l 1,2,-1
 758 1315 l 2,3,4
 758 1280 758 1280 601 1253 c 1,5,-1
 575 1150 l 1,6,-1
 575 822 l 2,7,8
 575 699 575 699 758 699 c 1,9,-1
 758 657 l 1,10,-1
 601 575 l 1,11,12
 575 144 575 144 680 144 c 0,13,14
 758 144 758 144 758 103 c 2,15,-1
 758 41 l 1,16,-1
 706 0 l 1,17,-1
 52 0 l 1,18,-1
 0 41 l 1,19,-1
 0 103 l 1,20,-1
 52 144 l 1,21,-1
 183 144 l 1,22,-1
 221 353 l 1,23,24
 209 587 209 587 0 637 c 1,25,-1
 0 657 l 2,26,27
 0 719 0 719 183 719 c 1,28,-1
 209 822 l 1,29,-1
 209 1212 l 2,30,31
 209 1261 209 1261 0 1294 c 1,32,-1
 0 1335 l 1,33,-1
 78 1397 l 1,0,-1
660 1436 m 1,34,-1
 110 1436 l 1,35,-1
 110 1617 l 1,36,-1
 660 1617 l 1,37,-1
 660 1436 l 1,34,-1
EndSplineSet
Validated: 33
EndChar

StartChar: Ibreve
Encoding: 300 300 216
Width: 799
GlyphClass: 1
Flags: W
LayerCount: 2
Fore
SplineSet
78 1397 m 1,0,-1
 706 1397 l 1,1,-1
 758 1356 l 1,2,-1
 758 1315 l 2,3,4
 758 1280 758 1280 601 1253 c 1,5,-1
 575 1150 l 1,6,-1
 575 822 l 2,7,8
 575 699 575 699 758 699 c 1,9,-1
 758 657 l 1,10,-1
 601 575 l 1,11,12
 575 144 575 144 680 144 c 0,13,14
 758 144 758 144 758 103 c 2,15,-1
 758 41 l 1,16,-1
 706 0 l 1,17,-1
 52 0 l 1,18,-1
 0 41 l 1,19,-1
 0 103 l 1,20,-1
 52 144 l 1,21,-1
 183 144 l 1,22,-1
 221 353 l 1,23,24
 209 587 209 587 0 637 c 1,25,-1
 0 657 l 2,26,27
 0 719 0 719 183 719 c 1,28,-1
 209 822 l 1,29,-1
 209 1212 l 2,30,31
 209 1261 209 1261 0 1294 c 1,32,-1
 0 1335 l 1,33,-1
 78 1397 l 1,0,-1
657 1566 m 128,-1,35
 655 1530 655 1530 583 1482 c 128,-1,36
 511 1434 511 1434 396 1434 c 0,37,38
 282 1434 282 1434 210.5 1482 c 128,-1,39
 139 1530 139 1530 137 1566 c 128,-1,40
 135 1602 135 1602 189.5 1602 c 128,-1,41
 244 1602 244 1602 249.5 1580 c 128,-1,42
 255 1558 255 1558 293.5 1536 c 128,-1,43
 332 1514 332 1514 396 1514 c 0,44,45
 461 1514 461 1514 499.5 1536 c 128,-1,46
 538 1558 538 1558 544 1580 c 128,-1,47
 550 1602 550 1602 604.5 1602 c 128,-1,34
 659 1602 659 1602 657 1566 c 128,-1,35
EndSplineSet
Validated: 33
EndChar

StartChar: Iogonek
Encoding: 302 302 218
Width: 799
GlyphClass: 1
Flags: W
LayerCount: 2
Fore
SplineSet
78 1397 m 1,0,-1
 706 1397 l 1,1,-1
 758 1356 l 1,2,-1
 758 1315 l 2,3,4
 758 1280 758 1280 601 1253 c 1,5,-1
 575 1150 l 1,6,-1
 575 822 l 2,7,8
 575 699 575 699 758 699 c 1,9,-1
 758 657 l 1,10,-1
 601 575 l 1,11,12
 575 144 575 144 680 144 c 0,13,14
 758 144 758 144 758 103 c 2,15,-1
 758 41 l 1,16,-1
 706 0 l 1,17,-1
 52 0 l 1,18,-1
 0 41 l 1,19,-1
 0 103 l 1,20,-1
 52 144 l 1,21,-1
 183 144 l 1,22,-1
 221 353 l 1,23,24
 209 587 209 587 0 637 c 1,25,-1
 0 657 l 2,26,27
 0 719 0 719 183 719 c 1,28,-1
 209 822 l 1,29,-1
 209 1212 l 2,30,31
 209 1261 209 1261 0 1294 c 1,32,-1
 0 1335 l 1,33,-1
 78 1397 l 1,0,-1
717 -235 m 1,34,35
 597 -278 597 -278 497 -278 c 0,36,37
 401 -278 401 -278 339.5 -236 c 128,-1,38
 278 -194 278 -194 278 -123 c 0,39,40
 278 -64 278 -64 319 38 c 1,41,-1
 444 38 l 1,42,43
 405 -26 405 -26 405 -78 c 0,44,45
 405 -124 405 -124 445.5 -154.5 c 128,-1,46
 486 -185 486 -185 549 -185 c 0,47,48
 626 -185 626 -185 717 -152 c 1,49,-1
 717 -235 l 1,34,35
EndSplineSet
Validated: 37
EndChar

StartChar: Idotaccent
Encoding: 304 304 220
Width: 815
GlyphClass: 1
Flags: W
LayerCount: 2
Fore
SplineSet
78 1397 m 1,0,-1
 706 1397 l 1,1,-1
 758 1356 l 1,2,-1
 758 1315 l 2,3,4
 758 1280 758 1280 601 1253 c 1,5,-1
 575 1150 l 1,6,-1
 575 822 l 2,7,8
 575 699 575 699 758 699 c 1,9,-1
 758 657 l 1,10,-1
 601 575 l 1,11,12
 575 144 575 144 680 144 c 0,13,14
 758 144 758 144 758 103 c 2,15,-1
 758 41 l 1,16,-1
 706 0 l 1,17,-1
 52 0 l 1,18,-1
 0 41 l 1,19,-1
 0 103 l 1,20,-1
 52 144 l 1,21,-1
 183 144 l 1,22,-1
 221 353 l 1,23,24
 209 587 209 587 0 637 c 1,25,-1
 0 657 l 2,26,27
 0 719 0 719 183 719 c 1,28,-1
 209 822 l 1,29,-1
 209 1212 l 2,30,31
 209 1261 209 1261 0 1294 c 1,32,-1
 0 1335 l 1,33,-1
 78 1397 l 1,0,-1
413 1626 m 2,34,-1
 375 1626 l 2,35,36
 242 1626 242 1626 242 1513 c 0,37,38
 242 1418 242 1418 375 1418 c 2,39,-1
 458 1418 l 1,40,-1
 547 1494 l 1,41,-1
 547 1513 l 2,42,43
 547 1626 547 1626 413 1626 c 2,34,-1
EndSplineSet
Validated: 41
EndChar

StartChar: dotlessi
Encoding: 305 305 221
Width: 342
GlyphClass: 1
Flags: W
LayerCount: 2
Fore
SplineSet
317 809 m 1,1,-1
 317 41 l 1,2,-1
 272 0 l 1,3,-1
 113 0 l 1,4,-1
 68 41 l 1,5,-1
 68 686 l 1,6,-1
 0 707 l 1,7,8
 0 864 0 864 204 891 c 1,9,0
 307 851 307 851 317 809 c 1,1,-1
EndSplineSet
Validated: 1
EndChar

StartChar: IJ
Encoding: 306 306 222
Width: 2313
GlyphClass: 1
Flags: W
LayerCount: 2
Fore
SplineSet
153 1401 m 1,0,-1
 781 1401 l 1,1,-1
 833 1360 l 1,2,-1
 833 1319 l 2,3,4
 833 1284 833 1284 676 1257 c 1,5,-1
 650 1154 l 1,6,-1
 650 826 l 2,7,8
 650 703 650 703 833 703 c 1,9,-1
 833 661 l 1,10,-1
 676 579 l 1,11,12
 650 148 650 148 755 148 c 0,13,14
 833 148 833 148 833 107 c 2,15,-1
 833 45 l 1,16,-1
 781 4 l 1,17,-1
 127 4 l 1,18,-1
 75 45 l 1,19,-1
 75 107 l 1,20,-1
 127 148 l 1,21,-1
 258 148 l 1,22,-1
 296 357 l 1,23,24
 284 591 284 591 75 641 c 1,25,-1
 75 661 l 2,26,27
 75 723 75 723 258 723 c 1,28,-1
 284 826 l 1,29,-1
 284 1216 l 2,30,31
 284 1265 284 1265 75 1298 c 1,32,-1
 75 1339 l 1,33,-1
 153 1401 l 1,0,-1
937 1397 m 1,34,-1
 2262 1397 l 1,35,-1
 2294 1361 l 1,36,-1
 2294 1324 l 1,37,38
 2278 1270 2278 1270 2199 1270 c 2,39,-1
 1884 1270 l 1,40,41
 1836 1251 1836 1251 1836 1160 c 2,42,-1
 1836 433 l 1,43,44
 1730 178 1730 178 1505 178 c 2,45,-1
 1252 178 l 1,46,-1
 1126 -4 l 1,47,-1
 937 -4 l 1,48,-1
 905 32 l 1,49,-1
 905 51 l 1,50,51
 991 305 991 305 1284 305 c 1,52,53
 1410 375 1410 375 1410 487 c 2,54,-1
 1410 1051 l 2,55,56
 1410 1108 1410 1108 1521 1270 c 1,57,-1
 1221 1270 l 1,58,-1
 1284 1051 l 1,59,-1
 1236 1051 l 1,60,61
 1016 1176 1016 1176 905 1306 c 1,62,-1
 905 1361 l 1,63,-1
 937 1397 l 1,34,-1
1584 997 m 2,64,-1
 1584 451 l 1,65,-1
 1505 342 l 1,66,-1
 1505 324 l 1,67,68
 1591 324 1591 324 1631 433 c 1,69,-1
 1631 1106 l 1,70,-1
 1694 1215 l 1,71,-1
 1694 1251 l 1,72,73
 1584 1135 1584 1135 1584 997 c 2,64,-1
EndSplineSet
Validated: 33
EndChar

StartChar: jcircumflex
Encoding: 309 309 225
Width: 675
GlyphClass: 1
Flags: W
LayerCount: 2
Fore
SplineSet
456 809 m 1,1,-1
 452 -262 l 1,2,-1
 407 -303 l 1,3,-1
 248 -303 l 1,4,-1
 203 -262 l 1,5,-1
 207 686 l 1,6,-1
 139 707 l 1,7,8
 139 864 139 864 343 891 c 1,9,0
 446 851 446 851 456 809 c 1,1,-1
641 938 m 1,10,-1
 437 938 l 1,11,-1
 328 1022 l 1,12,-1
 213 938 l 1,13,-1
 9 938 l 1,14,-1
 334 1103 l 1,15,-1
 641 938 l 1,10,-1
EndSplineSet
Validated: 1
EndChar

StartChar: kgreenlandic
Encoding: 312 312 228
Width: 1248
GlyphClass: 1
Flags: W
LayerCount: 2
Fore
SplineSet
870 1007 m 2,0,-1
 952 1007 l 2,1,2
 1028 1007 1028 1007 1100 823 c 1,3,4
 1030 680 1030 680 919 680 c 1,5,-1
 771 780 l 1,6,-1
 624 567 l 1,7,-1
 804 397 l 1,8,9
 996 113 996 113 1149 113 c 1,10,11
 1231 109 1231 109 1231 71 c 2,12,-1
 1231 43 l 1,13,-1
 1182 0 l 1,14,-1
 919 0 l 2,15,16
 766 0 766 0 493 397 c 1,17,-1
 443 411 l 1,18,-1
 443 127 l 1,19,-1
 493 71 l 1,20,-1
 493 57 l 1,21,-1
 443 14 l 1,22,-1
 50 14 l 1,23,-1
 0 57 l 1,24,-1
 115 142 l 1,25,-1
 115 851 l 1,26,27
 33 908 33 908 33 950 c 1,28,-1
 82 978 l 1,29,-1
 460 978 l 1,30,-1
 493 950 l 1,31,-1
 493 921 l 1,32,-1
 443 865 l 1,33,-1
 443 596 l 1,34,35
 509 606 509 606 722 936 c 1,36,37
 807 1007 807 1007 870 1007 c 2,0,-1
EndSplineSet
Validated: 1
EndChar

StartChar: Lslash
Encoding: 321 321 237
Width: 1310
GlyphClass: 1
Flags: W
LayerCount: 2
Fore
SplineSet
1224 -8 m 1,0,-1
 147 -4 l 1,1,2
 31 9 31 9 31 57 c 2,3,-1
 31 118 l 1,4,-1
 186 199 l 1,5,-1
 186 1214 l 2,6,7
 186 1263 186 1263 31 1295 c 1,8,-1
 31 1356 l 1,9,-1
 70 1397 l 1,10,-1
 611 1397 l 1,11,-1
 650 1356 l 1,12,-1
 650 1316 l 2,13,14
 650 1275 650 1275 573 1275 c 1,15,-1
 553 1255 l 1,16,-1
 553 199 l 1,17,-1
 592 158 l 1,18,-1
 1282 159 l 1,19,-1
 1282 53 l 1,20,-1
 1224 -8 l 1,0,-1
475 676 m 128,-1,22
 36 346 36 346 -28 437.5 c 128,-1,23
 -92 529 -92 529 347 859 c 128,-1,24
 786 1189 786 1189 850 1097.5 c 128,-1,21
 914 1006 914 1006 475 676 c 128,-1,22
EndSplineSet
Validated: 37
EndChar

StartChar: lslash
Encoding: 322 322 238
Width: 598
GlyphClass: 1
Flags: W
LayerCount: 2
Fore
SplineSet
404 1218 m 1,1,-1
 404 41 l 1,2,-1
 359 0 l 1,3,-1
 200 0 l 1,4,-1
 155 41 l 1,5,-1
 155 1095 l 1,6,-1
 87 1116 l 1,7,8
 87 1273 87 1273 291 1300 c 1,9,0
 394 1260 394 1260 404 1218 c 1,1,-1
359.5 623.5 m 128,-1,11
 26 390 26 390 -22.5 454.5 c 128,-1,12
 -71 519 -71 519 262.5 752.5 c 128,-1,13
 596 986 596 986 644.5 921.5 c 128,-1,10
 693 857 693 857 359.5 623.5 c 128,-1,11
EndSplineSet
Validated: 37
EndChar

StartChar: Eng
Encoding: 330 330 246
Width: 1288
GlyphClass: 1
Flags: W
LayerCount: 2
Fore
SplineSet
895 -382 m 2,1,-1
 603 -425 l 1,2,3
 382 -376 382 -376 365 -286 c 0,4,5
 339 -144 339 -144 578 26 c 1,6,-1
 695 43 l 1,7,8
 796 31 796 31 1023 -121 c 1,9,-1
 1075 -70 l 1,10,-1
 1067 -27 l 2,11,12
 1039 121 1039 121 1060.5 337 c 128,-1,13
 1082 553 1082 553 1176 49 c 1,14,0
 1216 -336 1216 -336 895 -382 c 2,1,-1
464 1289 m 1,16,-1
 464 929 l 1,17,-1
 562 929 l 1,18,19
 634 1128 634 1128 889 1241 c 1,20,-1
 1118 1241 l 1,21,22
 1247 1199 1247 1199 1247 1060 c 1,23,24
 1306 -182 1306 -182 1084 -228 c 1,25,26
 1006 -167 1006 -167 1006 -124 c 1,27,28
 1208 1264 1208 1264 791 904 c 1,29,-1
 464 436 l 1,30,-1
 464 54 l 1,31,-1
 399 2 l 1,32,-1
 171 2 l 1,33,-1
 106 54 l 1,34,-1
 106 1133 l 1,35,-1
 8 1160 l 1,36,37
 8 1359 8 1359 302 1393 c 1,38,15
 450 1342 450 1342 464 1289 c 1,16,-1
EndSplineSet
Validated: 41
EndChar

StartChar: Tbar
Encoding: 358 358 274
Width: 1405
GlyphClass: 1
Flags: W
LayerCount: 2
Fore
SplineSet
32 1401 m 1,0,-1
 1357 1401 l 1,1,-1
 1389 1365 l 1,2,-1
 1389 1328 l 1,3,4
 1373 1274 1373 1274 1294 1274 c 2,5,-1
 979 1274 l 1,6,7
 931 1255 931 1255 931 1164 c 2,8,-1
 931 437 l 2,9,10
 930 -76 930 -76 504 -215 c 1,11,-1
 505 491 l 1,12,-1
 505 1055 l 2,13,14
 505 1112 505 1112 616 1274 c 1,15,-1
 316 1274 l 1,16,-1
 379 1055 l 1,17,-1
 331 1055 l 1,18,19
 111 1180 111 1180 0 1310 c 1,20,-1
 0 1365 l 1,21,-1
 32 1401 l 1,0,-1
679 1001 m 2,22,-1
 679 455 l 1,23,-1
 620 103 l 1,24,-1
 620 85 l 1,25,26
 681 12 681 12 726 437 c 1,27,-1
 726 1110 l 1,28,-1
 789 1219 l 1,29,-1
 789 1255 l 1,30,31
 679 1139 679 1139 679 1001 c 2,22,-1
1156 728 m 1,32,-1
 245 728 l 1,33,-1
 245 877 l 1,34,-1
 1156 877 l 1,35,-1
 1156 728 l 1,32,-1
EndSplineSet
Validated: 37
EndChar

StartChar: longs
Encoding: 383 383 299
Width: 412
GlyphClass: 1
Flags: W
LayerCount: 2
Fore
SplineSet
352 1139 m 1,0,1
 320 1147 320 1147 299 1147 c 0,2,3
 238 1147 238 1147 223 1117 c 128,-1,4
 208 1087 208 1087 208 1016 c 2,5,-1
 208 -25 l 1,6,-1
 47 -25 l 1,7,-1
 47 1007 l 2,8,9
 47 1108 47 1108 58 1165 c 128,-1,10
 69 1222 69 1222 117.5 1259 c 128,-1,11
 166 1296 166 1296 271 1296 c 0,12,13
 312 1296 312 1296 374 1281 c 1,14,-1
 352 1139 l 1,0,1
EndSplineSet
Validated: 1
EndChar

StartChar: uni018F
Encoding: 399 399 300
Width: 1300
GlyphClass: 1
Flags: W
LayerCount: 2
Fore
SplineSet
462 1397 m 1,1,-1
 654 1375 l 1,2,3
 1316 1248 1316 1248 1260 665 c 1,4,5
 1160 44 1160 44 654 44 c 1,6,-1
 429 88 l 1,7,8
 79 195 79 195 79 510 c 1,9,10
 102 953 102 953 526 953 c 2,11,-1
 621 953 l 1,12,-1
 877 909 l 1,13,-1
 877 998 l 1,14,15
 803 1103 803 1103 654 1153 c 1,16,-1
 424 1214 l 1,17,18
 192 1234 192 1234 0 1148 c 1,19,-1
 0 1193 l 1,20,0
 126 1400 126 1400 462 1397 c 1,1,-1
654 775 m 2,22,-1
 621 775 l 1,23,-1
 493 687 l 1,24,-1
 493 355 l 2,25,26
 493 221 493 221 654 221 c 0,27,28
 845 221 845 221 845 355 c 2,29,-1
 845 642 l 2,30,21
 845 775 845 775 654 775 c 2,22,-1
EndSplineSet
Validated: 33
EndChar

StartChar: uni01A6
Encoding: 422 422 301
Width: 1121
GlyphClass: 1
Flags: W
LayerCount: 2
Fore
SplineSet
127 1239 m 1,0,-1
 110 1254 l 1,1,2
 28 1258 28 1258 28 1285 c 1,3,-1
 11 1301 l 1,4,-1
 11 1317 l 1,5,-1
 61 1365 l 1,6,-1
 541 1365 l 1,7,-1
 574 1333 l 1,8,-1
 574 1285 l 1,9,-1
 541 1254 l 1,10,-1
 458 1254 l 1,11,-1
 442 1175 l 1,12,-1
 438 1148 l 1,13,-1
 454 1068 l 1,14,-1
 849 1064 l 2,15,16
 1039 1064 1039 1064 1097 827 c 1,17,18
 1055 511 1055 511 816 511 c 2,19,-1
 125 512 l 1,20,-1
 127 1239 l 1,0,-1
487 625 m 1,21,22
 816 648 816 648 816 780 c 0,23,24
 816 938 816 938 537 942 c 1,25,-1
 438 942 l 1,26,-1
 438 641 l 1,27,-1
 487 625 l 1,21,22
124 558 m 1,28,-1
 450 558 l 1,29,-1
 437 475 l 1,30,-1
 437 190 l 1,31,-1
 454 111 l 1,32,-1
 536 111 l 1,33,-1
 569 80 l 1,34,-1
 569 32 l 1,35,-1
 536 0 l 1,36,-1
 56 0 l 1,37,-1
 6 48 l 1,38,-1
 6 64 l 1,39,-1
 23 80 l 1,40,41
 23 107 23 107 106 111 c 1,42,-1
 122 126 l 1,43,-1
 124 558 l 1,28,-1
547 583 m 1,44,-1
 574 529 l 1,45,-1
 551 514 l 1,46,-1
 530 466 l 1,47,48
 520 395 520 395 583 346 c 1,49,-1
 629 321 l 1,50,51
 674 260 674 260 815 177.5 c 128,-1,52
 956 95 956 95 1106 70 c 1,53,-1
 1118 35 l 1,54,-1
 1116 16 l 1,55,-1
 1099 5 l 1,56,-1
 854 78 l 1,57,58
 600 158 600 158 495 213 c 2,59,-1
 423 251 l 1,60,61
 389 280 389 280 381 313 c 1,62,63
 350 388 350 388 422 463 c 1,64,-1
 407 471 l 1,65,66
 389 459 389 459 325 454 c 1,67,-1
 547 583 l 1,44,-1
EndSplineSet
Validated: 37
EndChar

StartChar: Yogh
Encoding: 540 540 308
Width: 956
GlyphClass: 1
Flags: W
LayerCount: 2
Fore
SplineSet
42 1401 m 0,0,1
 63 1401 63 1401 102 1339 c 1,2,-1
 110 1332 l 1,3,-1
 161 1332 l 1,4,5
 264 1387 264 1387 398 1401 c 1,6,7
 588 1401 588 1401 746 1304 c 1,8,9
 848 1226 848 1226 873 1118 c 1,10,-1
 873 1021 l 2,11,12
 873 922 873 922 729 773 c 1,13,14
 680 732 680 732 653 732 c 1,15,-1
 653 711 l 1,16,17
 798 676 798 676 873 566 c 1,18,19
 910 522 910 522 924 462 c 1,20,-1
 924 366 l 2,21,22
 924 224 924 224 526 90 c 1,23,-1
 110 0 l 1,24,-1
 85 0 l 1,25,-1
 59 21 l 1,26,-1
 59 48 l 1,27,28
 463 140 463 140 585 235 c 1,29,30
 688 322 688 322 695 393 c 1,31,-1
 695 455 l 1,32,33
 674 560 674 560 576 635 c 1,34,-1
 500 676 l 1,35,-1
 466 676 l 1,36,-1
 93 580 l 1,37,-1
 85 587 l 1,38,-1
 85 614 l 1,39,-1
 415 759 l 1,40,41
 588 847 588 847 644 1021 c 1,42,-1
 644 1139 l 1,43,44
 615 1244 615 1244 551 1284 c 0,45,46
 497 1314 497 1314 424 1325 c 1,47,-1
 373 1325 l 2,48,49
 219 1325 219 1325 110 1201 c 1,50,51
 67 1097 67 1097 51 1097 c 2,52,-1
 25 1097 l 1,53,-1
 0 1118 l 1,54,-1
 0 1373 l 1,55,56
 17 1401 17 1401 42 1401 c 0,0,1
EndSplineSet
Validated: 1
EndChar

StartChar: yogh
Encoding: 541 541 309
Width: 702
GlyphClass: 1
Flags: W
LayerCount: 2
Fore
SplineSet
376 1074 m 1,0,1
 493 1074 493 1074 596 981 c 1,2,3
 631 914 631 914 631 844 c 0,4,5
 631 733 631 733 447 627 c 1,6,-1
 440 621 l 1,7,-1
 440 602 l 1,8,9
 681 517 681 517 681 329 c 0,10,11
 681 61 681 61 242 -173 c 1,12,-1
 128 -198 l 1,13,14
 58 -198 58 -198 8 -142 c 1,15,-1
 8 -92 l 1,16,17
 33 -55 33 -55 72 -55 c 1,18,-1
 178 -92 l 1,19,20
 280 -80 280 -80 355 -36 c 1,21,22
 497 86 497 86 497 199 c 1,23,-1
 504 224 l 1,24,-1
 504 298 l 1,25,26
 461 485 461 485 334 485 c 1,27,28
 334 495 334 495 298 497 c 2,29,-1
 263 497 l 1,30,-1
 128 460 l 1,31,-1
 121 460 l 1,32,33
 100 466 100 466 100 497 c 1,34,-1
 334 621 l 1,35,36
 461 717 461 717 461 813 c 0,37,38
 461 902 461 902 355 969 c 1,39,-1
 263 981 l 1,40,41
 170 956 170 956 128 900 c 0,42,43
 90 850 90 850 72 745 c 1,44,-1
 51 733 l 1,45,46
 14 733 14 733 8 751 c 1,47,-1
 8 1018 l 1,48,-1
 29 1037 l 1,49,-1
 58 1037 l 1,50,-1
 100 981 l 1,51,-1
 114 981 l 1,52,-1
 298 1062 l 1,53,-1
 376 1074 l 1,0,1
EndSplineSet
Validated: 1
EndChar

StartChar: uni02B9
Encoding: 697 697 310
Width: 455
GlyphClass: 1
Flags: W
LayerCount: 2
Fore
SplineSet
393 1466 m 1,0,-1
 176 946 l 1,1,-1
 94 946 l 1,2,-1
 201 1466 l 1,3,-1
 393 1466 l 1,0,-1
EndSplineSet
Validated: 1
EndChar

StartChar: uni02BA
Encoding: 698 698 311
Width: 762
GlyphClass: 1
Flags: W
LayerCount: 2
Fore
SplineSet
700 1466 m 1,0,-1
 483 946 l 1,1,-1
 401 946 l 1,2,-1
 508 1466 l 1,3,-1
 700 1466 l 1,0,-1
393 1466 m 1,4,-1
 176 946 l 1,5,-1
 94 946 l 1,6,-1
 201 1466 l 1,7,-1
 393 1466 l 1,4,-1
EndSplineSet
Validated: 1
EndChar

StartChar: uni02BB
Encoding: 699 699 312
Width: 279
GlyphClass: 1
Flags: W
LayerCount: 2
Fore
SplineSet
27 1084 m 1,1,2
 1 1155 1 1155 27 1230 c 1,3,4
 125 1389 125 1389 263 1389 c 1,5,-1
 263 1321 l 1,6,7
 166 1321 166 1321 92 1196 c 1,8,-1
 92 1117 l 1,9,-1
 119 1117 l 1,10,0
 82 982 82 982 27 1084 c 1,1,2
114 1131 m 2,12,-1
 133 1131 l 1,13,-1
 208 1043 l 1,14,-1
 208 960 l 2,15,16
 208 827 208 827 114 827 c 0,17,18
 0 827 0 827 0 960 c 2,19,-1
 0 998 l 2,20,11
 0 1131 0 1131 114 1131 c 2,12,-1
EndSplineSet
Validated: 37
EndChar

StartChar: afii57929
Encoding: 700 700 313
Width: 279
GlyphClass: 1
Flags: W
LayerCount: 2
Fore
SplineSet
236 1132 m 1,1,2
 262 1061 262 1061 236 986 c 1,3,4
 138 827 138 827 0 827 c 1,5,-1
 0 895 l 1,6,7
 97 895 97 895 171 1020 c 1,8,-1
 171 1099 l 1,9,-1
 144 1099 l 1,10,0
 181 1234 181 1234 236 1132 c 1,1,2
149 1085 m 2,12,-1
 130 1085 l 1,13,-1
 55 1173 l 1,14,-1
 55 1256 l 2,15,16
 55 1389 55 1389 149 1389 c 0,17,18
 263 1389 263 1389 263 1256 c 2,19,-1
 263 1218 l 2,20,11
 263 1085 263 1085 149 1085 c 2,12,-1
EndSplineSet
Validated: 37
EndChar

StartChar: afii64937
Encoding: 701 701 314
Width: 279
GlyphClass: 1
Flags: W
LayerCount: 2
Fore
SplineSet
119 1099 m 1,0,-1
 92 1099 l 1,1,-1
 92 1020 l 1,2,3
 166 895 166 895 263 895 c 1,4,-1
 263 827 l 1,5,6
 125 827 125 827 27 986 c 1,7,8
 1 1061 1 1061 27 1132 c 1,9,10
 82 1234 82 1234 119 1099 c 1,0,-1
0 1218 m 2,11,-1
 0 1256 l 2,12,13
 0 1389 0 1389 114 1389 c 0,14,15
 208 1389 208 1389 208 1256 c 2,16,-1
 208 1173 l 1,17,-1
 133 1085 l 1,18,-1
 114 1085 l 2,19,20
 0 1085 0 1085 0 1218 c 2,11,-1
EndSplineSet
Validated: 37
EndChar

StartChar: uni02BE
Encoding: 702 702 315
Width: 455
GlyphClass: 1
Flags: W
LayerCount: 2
Fore
SplineSet
90 1466 m 1,0,1
 221 1466 221 1466 293 1406.5 c 128,-1,2
 365 1347 365 1347 365 1241 c 0,3,4
 365 1136 365 1136 293.5 1077 c 128,-1,5
 222 1018 222 1018 90 1018 c 1,6,-1
 90 1112 l 1,7,8
 180 1112 180 1112 225 1142 c 128,-1,9
 270 1172 270 1172 270 1241 c 0,10,11
 270 1306 270 1306 225 1339 c 128,-1,12
 180 1372 180 1372 90 1372 c 1,13,-1
 90 1466 l 1,0,1
EndSplineSet
Validated: 1
EndChar

StartChar: uni02BF
Encoding: 703 703 316
Width: 455
GlyphClass: 1
Flags: W
LayerCount: 2
Fore
SplineSet
365 1018 m 1,0,1
 233 1018 233 1018 161.5 1077 c 128,-1,2
 90 1136 90 1136 90 1241 c 0,3,4
 90 1347 90 1347 161.5 1406.5 c 128,-1,5
 233 1466 233 1466 365 1466 c 1,6,-1
 365 1372 l 1,7,8
 274 1372 274 1372 229 1339 c 128,-1,9
 184 1306 184 1306 184 1241 c 0,10,11
 184 1171 184 1171 229 1141.5 c 128,-1,12
 274 1112 274 1112 365 1112 c 1,13,-1
 365 1018 l 1,0,1
EndSplineSet
Validated: 1
EndChar

StartChar: uni02C0
Encoding: 704 704 317
Width: 512
GlyphClass: 1
Flags: W
LayerCount: 2
Fore
SplineSet
18 1329 m 1,0,1
 90 1475 90 1475 244 1475 c 0,2,3
 346 1475 346 1475 408.5 1425 c 128,-1,4
 471 1375 471 1375 471 1296 c 0,5,6
 471 1239 471 1239 449.5 1195.5 c 128,-1,7
 428 1152 428 1152 373 1096 c 0,8,9
 330 1053 330 1053 318.5 1027 c 128,-1,10
 307 1001 307 1001 307 938 c 2,11,-1
 307 877 l 1,12,-1
 197 877 l 1,13,-1
 197 938 l 2,14,15
 197 1016 197 1016 212.5 1051.5 c 128,-1,16
 228 1087 228 1087 287 1145 c 0,17,18
 330 1188 330 1188 346 1219 c 128,-1,19
 362 1250 362 1250 362 1290 c 0,20,21
 362 1339 362 1339 333 1364 c 128,-1,22
 304 1389 304 1389 246 1389 c 0,23,24
 154 1389 154 1389 106 1282 c 1,25,-1
 18 1329 l 1,0,1
EndSplineSet
Validated: 1
EndChar

StartChar: uni02C1
Encoding: 705 705 318
Width: 512
GlyphClass: 1
Flags: W
LayerCount: 2
Fore
SplineSet
496 1329 m 1,0,-1
 406 1282 l 1,1,2
 358 1389 358 1389 266 1389 c 0,3,4
 209 1389 209 1389 180.5 1364 c 128,-1,5
 152 1339 152 1339 152 1290 c 0,6,7
 152 1248 152 1248 168 1217 c 128,-1,8
 184 1186 184 1186 225 1145 c 0,9,10
 284 1087 284 1087 299.5 1051.5 c 128,-1,11
 315 1016 315 1016 315 938 c 2,12,-1
 315 877 l 1,13,-1
 207 877 l 1,14,-1
 207 938 l 2,15,16
 207 990 207 990 198.5 1017.5 c 128,-1,17
 190 1045 190 1045 141 1096 c 0,18,19
 83 1156 83 1156 62 1199 c 128,-1,20
 41 1242 41 1242 41 1296 c 0,21,22
 41 1375 41 1375 104 1425 c 128,-1,23
 167 1475 167 1475 268 1475 c 0,24,25
 424 1475 424 1475 496 1329 c 1,0,-1
EndSplineSet
Validated: 1
EndChar

StartChar: uni02C2
Encoding: 706 706 319
Width: 655
GlyphClass: 1
Flags: W
LayerCount: 2
Fore
SplineSet
541 866 m 1,0,-1
 117 1081 l 1,1,-1
 117 1167 l 1,2,-1
 541 1382 l 1,3,-1
 541 1280 l 1,4,-1
 229 1124 l 1,5,-1
 541 969 l 1,6,-1
 541 866 l 1,0,-1
EndSplineSet
Validated: 1
EndChar

StartChar: uni02C3
Encoding: 707 707 320
Width: 655
GlyphClass: 1
Flags: W
LayerCount: 2
Fore
SplineSet
539 1081 m 1,0,-1
 115 866 l 1,1,-1
 115 969 l 1,2,-1
 426 1124 l 1,3,-1
 115 1280 l 1,4,-1
 115 1382 l 1,5,-1
 539 1167 l 1,6,-1
 539 1081 l 1,0,-1
EndSplineSet
Validated: 1
EndChar

StartChar: uni02C4
Encoding: 708 708 321
Width: 655
GlyphClass: 1
Flags: W
LayerCount: 2
Fore
SplineSet
586 911 m 1,0,-1
 483 911 l 1,1,-1
 328 1223 l 1,2,-1
 172 911 l 1,3,-1
 70 911 l 1,4,-1
 285 1335 l 1,5,-1
 371 1335 l 1,6,-1
 586 911 l 1,0,-1
EndSplineSet
Validated: 1
EndChar

StartChar: uni02C5
Encoding: 709 709 322
Width: 655
GlyphClass: 1
Flags: W
LayerCount: 2
Fore
SplineSet
586 1337 m 1,0,-1
 371 913 l 1,1,-1
 285 913 l 1,2,-1
 70 1337 l 1,3,-1
 172 1337 l 1,4,-1
 328 1026 l 1,5,-1
 483 1337 l 1,6,-1
 586 1337 l 1,0,-1
EndSplineSet
Validated: 1
EndChar

StartChar: circumflex
Encoding: 710 710 323
Width: 682
GlyphClass: 1
Flags: W
LayerCount: 2
Fore
SplineSet
650 1626 m 1,0,-1
 446 1626 l 1,1,-1
 337 1710 l 1,2,-1
 222 1626 l 1,3,-1
 18 1626 l 1,4,-1
 343 1791 l 1,5,-1
 650 1626 l 1,0,-1
EndSplineSet
Validated: 1
EndChar

StartChar: caron
Encoding: 711 711 324
Width: 682
GlyphClass: 1
Flags: W
LayerCount: 2
Fore
SplineSet
343 1626 m 1,0,-1
 18 1791 l 1,1,-1
 222 1791 l 1,2,-1
 337 1707 l 1,3,-1
 446 1791 l 1,4,-1
 650 1791 l 1,5,-1
 343 1626 l 1,0,-1
EndSplineSet
Validated: 1
EndChar

StartChar: uni02C8
Encoding: 712 712 325
Width: 393
GlyphClass: 1
Flags: W
LayerCount: 2
Fore
SplineSet
258 1036 m 1,0,-1
 135 1036 l 1,1,-1
 135 1466 l 1,2,-1
 258 1466 l 1,3,-1
 258 1036 l 1,0,-1
EndSplineSet
Validated: 1
EndChar

StartChar: uni02C9
Encoding: 713 713 326
Width: 575
GlyphClass: 1
Flags: W
LayerCount: 2
Fore
SplineSet
557 1605 m 1,0,-1
 7 1605 l 1,1,-1
 7 1786 l 1,2,-1
 557 1786 l 1,3,-1
 557 1605 l 1,0,-1
EndSplineSet
Validated: 1
EndChar

StartChar: uni02CA
Encoding: 714 714 327
Width: 682
GlyphClass: 1
Flags: W
LayerCount: 2
Fore
SplineSet
596 1491 m 1,0,-1
 375 1210 l 1,1,-1
 227 1210 l 1,2,-1
 360 1491 l 1,3,-1
 596 1491 l 1,0,-1
EndSplineSet
Validated: 1
EndChar

StartChar: uni02CB
Encoding: 715 715 328
Width: 682
GlyphClass: 1
Flags: W
LayerCount: 2
Fore
SplineSet
455 1210 m 1,0,-1
 307 1210 l 1,1,-1
 86 1491 l 1,2,-1
 322 1491 l 1,3,-1
 455 1210 l 1,0,-1
EndSplineSet
Validated: 1
EndChar

StartChar: uni02CC
Encoding: 716 716 329
Width: 393
GlyphClass: 1
Flags: W
LayerCount: 2
Fore
SplineSet
258 -430 m 1,0,-1
 135 -430 l 1,1,-1
 135 0 l 1,2,-1
 258 0 l 1,3,-1
 258 -430 l 1,0,-1
EndSplineSet
Validated: 1
EndChar

StartChar: uni02CD
Encoding: 717 717 330
Width: 682
GlyphClass: 1
Flags: W
LayerCount: 2
Fore
SplineSet
653 -360 m 1,0,-1
 29 -360 l 1,1,-1
 29 -231 l 1,2,-1
 653 -231 l 1,3,-1
 653 -360 l 1,0,-1
EndSplineSet
Validated: 1
EndChar

StartChar: uni02CE
Encoding: 718 718 331
Width: 682
GlyphClass: 1
Flags: W
LayerCount: 2
Fore
SplineSet
455 -430 m 1,0,-1
 307 -430 l 1,1,-1
 86 -150 l 1,2,-1
 322 -150 l 1,3,-1
 455 -430 l 1,0,-1
EndSplineSet
Validated: 1
EndChar

StartChar: uni02CF
Encoding: 719 719 332
Width: 682
GlyphClass: 1
Flags: W
LayerCount: 2
Fore
SplineSet
596 -150 m 1,0,-1
 375 -430 l 1,1,-1
 227 -430 l 1,2,-1
 360 -150 l 1,3,-1
 596 -150 l 1,0,-1
EndSplineSet
Validated: 1
EndChar

StartChar: uni02D0
Encoding: 720 720 333
Width: 614
GlyphClass: 1
Flags: W
LayerCount: 2
Fore
SplineSet
444 1061 m 1,0,-1
 307 782 l 1,1,-1
 170 1061 l 1,2,-1
 444 1061 l 1,0,-1
444 0 m 1,3,-1
 170 0 l 1,4,-1
 307 279 l 1,5,-1
 444 0 l 1,3,-1
EndSplineSet
Validated: 1
EndChar

StartChar: uni02D1
Encoding: 721 721 334
Width: 614
GlyphClass: 1
Flags: W
LayerCount: 2
Fore
SplineSet
444 1061 m 1,0,-1
 307 782 l 1,1,-1
 170 1061 l 1,2,-1
 444 1061 l 1,0,-1
EndSplineSet
Validated: 1
EndChar

StartChar: uni02D2
Encoding: 722 722 335
Width: 455
GlyphClass: 1
Flags: W
LayerCount: 2
Fore
SplineSet
90 756 m 1,0,1
 221 756 221 756 293 696 c 128,-1,2
 365 636 365 636 365 530 c 0,3,4
 365 427 365 427 294.5 367 c 128,-1,5
 224 307 224 307 90 307 c 1,6,-1
 90 401 l 1,7,8
 180 401 180 401 225 431 c 128,-1,9
 270 461 270 461 270 530 c 0,10,11
 270 596 270 596 225 629 c 128,-1,12
 180 662 180 662 90 662 c 1,13,-1
 90 756 l 1,0,1
EndSplineSet
Validated: 1
EndChar

StartChar: uni02D3
Encoding: 723 723 336
Width: 455
GlyphClass: 1
Flags: W
LayerCount: 2
Fore
SplineSet
365 307 m 1,0,1
 233 307 233 307 161.5 366 c 128,-1,2
 90 425 90 425 90 530 c 0,3,4
 90 636 90 636 161.5 696 c 128,-1,5
 233 756 233 756 365 756 c 1,6,-1
 365 662 l 1,7,8
 274 662 274 662 229 629 c 128,-1,9
 184 596 184 596 184 530 c 0,10,11
 184 461 184 461 229 431 c 128,-1,12
 274 401 274 401 365 401 c 1,13,-1
 365 307 l 1,0,1
EndSplineSet
Validated: 1
EndChar

StartChar: uni02D4
Encoding: 724 724 337
Width: 696
GlyphClass: 1
Flags: W
LayerCount: 2
Fore
SplineSet
604 379 m 1,0,-1
 92 379 l 1,1,-1
 92 473 l 1,2,-1
 301 473 l 1,3,-1
 301 682 l 1,4,-1
 395 682 l 1,5,-1
 395 473 l 1,6,-1
 604 473 l 1,7,-1
 604 379 l 1,0,-1
EndSplineSet
Validated: 1
EndChar

StartChar: uni02D5
Encoding: 725 725 338
Width: 696
GlyphClass: 1
Flags: W
LayerCount: 2
Fore
SplineSet
604 588 m 1,0,-1
 395 588 l 1,1,-1
 395 379 l 1,2,-1
 301 379 l 1,3,-1
 301 588 l 1,4,-1
 92 588 l 1,5,-1
 92 682 l 1,6,-1
 604 682 l 1,7,-1
 604 588 l 1,0,-1
EndSplineSet
Validated: 1
EndChar

StartChar: uni02D6
Encoding: 726 726 339
Width: 573
GlyphClass: 1
Flags: W
LayerCount: 2
Fore
SplineSet
481 483 m 1,0,-1
 334 483 l 1,1,-1
 334 336 l 1,2,-1
 240 336 l 1,3,-1
 240 483 l 1,4,-1
 92 483 l 1,5,-1
 92 578 l 1,6,-1
 240 578 l 1,7,-1
 240 725 l 1,8,-1
 334 725 l 1,9,-1
 334 578 l 1,10,-1
 481 578 l 1,11,-1
 481 483 l 1,0,-1
EndSplineSet
Validated: 1
EndChar

StartChar: uni02D7
Encoding: 727 727 340
Width: 741
GlyphClass: 1
Flags: W
LayerCount: 2
Fore
SplineSet
608 520 m 1,0,-1
 133 520 l 1,1,-1
 133 614 l 1,2,-1
 608 614 l 1,3,-1
 608 520 l 1,0,-1
EndSplineSet
Validated: 1
EndChar

StartChar: breve
Encoding: 728 728 341
Width: 577
GlyphClass: 1
Flags: W
LayerCount: 2
Fore
SplineSet
537 1742 m 128,-1,1
 535 1706 535 1706 463 1658 c 128,-1,2
 391 1610 391 1610 276 1610 c 0,3,4
 162 1610 162 1610 90.5 1658 c 128,-1,5
 19 1706 19 1706 17 1742 c 128,-1,6
 15 1778 15 1778 69.5 1778 c 128,-1,7
 124 1778 124 1778 129.5 1756 c 128,-1,8
 135 1734 135 1734 173.5 1712 c 128,-1,9
 212 1690 212 1690 276 1690 c 0,10,11
 341 1690 341 1690 379.5 1712 c 128,-1,12
 418 1734 418 1734 424 1756 c 128,-1,13
 430 1778 430 1778 484.5 1778 c 128,-1,0
 539 1778 539 1778 537 1742 c 128,-1,1
EndSplineSet
Validated: 1
EndChar

StartChar: dotaccent
Encoding: 729 729 342
Width: 339
GlyphClass: 1
Flags: W
LayerCount: 2
Fore
SplineSet
187 1770 m 2,0,-1
 149 1770 l 2,1,2
 16 1770 16 1770 16 1657 c 0,3,4
 16 1562 16 1562 149 1562 c 2,5,-1
 232 1562 l 1,6,-1
 321 1638 l 1,7,-1
 321 1657 l 2,8,9
 321 1770 321 1770 187 1770 c 2,0,-1
EndSplineSet
Validated: 9
EndChar

StartChar: ring
Encoding: 730 730 343
Width: 436
GlyphClass: 1
Flags: W
LayerCount: 2
Fore
SplineSet
232 1807 m 2,0,-1
 182 1807 l 2,1,2
 8 1807 8 1807 8 1643 c 0,3,4
 8 1506 8 1506 182 1506 c 2,5,-1
 291 1506 l 1,6,-1
 408 1615 l 1,7,-1
 408 1643 l 2,8,9
 408 1807 408 1807 232 1807 c 2,0,-1
331 1644 m 2,11,-1
 331 1625 l 1,12,-1
 257 1552 l 1,13,-1
 188 1552 l 2,14,15
 78 1552 78 1552 78 1644 c 0,16,17
 78 1753 78 1753 188 1753 c 2,18,-1
 219 1753 l 2,19,10
 331 1753 331 1753 331 1644 c 2,11,-1
EndSplineSet
Validated: 9
EndChar

StartChar: ogonek
Encoding: 731 731 344
Width: 682
GlyphClass: 1
Flags: W
LayerCount: 2
Fore
SplineSet
621 -365 m 1,0,1
 501 -426 501 -426 401 -426 c 0,2,3
 305 -426 305 -426 243.5 -366 c 128,-1,4
 182 -306 182 -306 182 -205 c 0,5,6
 182 -120 182 -120 223 25 c 1,7,-1
 348 25 l 1,8,9
 309 -66 309 -66 309 -141 c 0,10,11
 309 -207 309 -207 349.5 -250 c 128,-1,12
 390 -293 390 -293 453 -293 c 0,13,14
 530 -293 530 -293 621 -246 c 1,15,-1
 621 -365 l 1,0,1
EndSplineSet
Validated: 1
EndChar

StartChar: tilde
Encoding: 732 732 345
Width: 682
GlyphClass: 1
Flags: W
LayerCount: 2
Fore
SplineSet
684 1766 m 1,0,1
 684 1690 684 1690 626.5 1650.5 c 128,-1,2
 569 1611 569 1611 487 1611 c 0,3,4
 441 1611 441 1611 410 1618 c 128,-1,5
 379 1625 379 1625 336 1644 c 0,6,7
 265 1675 265 1675 223 1675 c 0,8,9
 140 1675 140 1675 137 1611 c 1,10,-1
 14 1611 l 1,11,12
 14 1687 14 1687 74 1726.5 c 128,-1,13
 134 1766 134 1766 217 1766 c 0,14,15
 282 1766 282 1766 357.5 1734 c 128,-1,16
 433 1702 433 1702 481 1702 c 0,17,18
 550 1702 550 1702 561 1766 c 1,19,-1
 684 1766 l 1,0,1
EndSplineSet
Validated: 1
EndChar

StartChar: uni02DE
Encoding: 734 734 347
Width: 682
GlyphClass: 1
Flags: W
LayerCount: 2
Fore
SplineSet
674 541 m 1,0,1
 599 399 599 399 473 399 c 0,2,3
 394 399 394 399 341.5 458 c 128,-1,4
 289 517 289 517 289 612 c 1,5,-1
 41 539 l 1,6,-1
 41 688 l 1,7,-1
 412 797 l 1,8,-1
 412 641 l 2,9,10
 412 576 412 576 431 544 c 128,-1,11
 450 512 450 512 489 512 c 0,12,13
 548 512 548 512 588 600 c 1,14,-1
 674 541 l 1,0,1
EndSplineSet
Validated: 1
EndChar

StartChar: uni02E0
Encoding: 736 736 348
Width: 569
GlyphClass: 1
Flags: W
LayerCount: 2
Fore
SplineSet
555 1255 m 1,0,-1
 334 840 l 1,1,2
 348 808 348 808 386 734 c 128,-1,3
 424 660 424 660 424 606 c 0,4,5
 424 554 424 554 390 517.5 c 128,-1,6
 356 481 356 481 295 481 c 0,7,8
 227 481 227 481 191.5 517 c 128,-1,9
 156 553 156 553 156 614 c 0,10,11
 156 644 156 644 166.5 676.5 c 128,-1,12
 177 709 177 709 203 756 c 128,-1,13
 229 803 229 803 240 823 c 1,14,-1
 14 1255 l 1,15,-1
 131 1255 l 1,16,-1
 291 928 l 1,17,-1
 446 1255 l 1,18,-1
 555 1255 l 1,0,-1
330 600 m 0,19,20
 330 650 330 650 281 745 c 1,21,22
 238 666 238 666 238 610 c 0,23,24
 238 549 238 549 291 549 c 0,25,26
 330 549 330 549 330 600 c 0,19,20
EndSplineSet
Validated: 1
EndChar

StartChar: uni02E1
Encoding: 737 737 349
Width: 313
GlyphClass: 1
Flags: W
LayerCount: 2
Fore
SplineSet
211 705 m 1,0,-1
 102 705 l 1,1,-1
 102 1466 l 1,2,-1
 211 1466 l 1,3,-1
 211 705 l 1,0,-1
EndSplineSet
Validated: 1
EndChar

StartChar: uni02E2
Encoding: 738 738 350
Width: 553
GlyphClass: 1
Flags: W
LayerCount: 2
Fore
SplineSet
383 1100 m 1,0,1
 377 1142 377 1142 347.5 1163 c 128,-1,2
 318 1184 318 1184 266 1184 c 0,3,4
 160 1184 160 1184 160 1120 c 0,5,6
 160 1090 160 1090 185 1075.5 c 128,-1,7
 210 1061 210 1061 279 1044 c 0,8,9
 436 1006 436 1006 473 966 c 128,-1,10
 510 926 510 926 510 866 c 0,11,12
 510 793 510 793 448 742.5 c 128,-1,13
 386 692 386 692 279 692 c 0,14,15
 171 692 171 692 110 736.5 c 128,-1,16
 49 781 49 781 35 870 c 1,17,-1
 141 889 l 1,18,19
 149 831 149 831 183.5 802.5 c 128,-1,20
 218 774 218 774 279 774 c 0,21,22
 337 774 337 774 368 797.5 c 128,-1,23
 399 821 399 821 399 856 c 0,24,25
 399 907 399 907 313 926 c 0,26,27
 210 949 210 949 165 965 c 128,-1,28
 120 981 120 981 84.5 1016 c 128,-1,29
 49 1051 49 1051 49 1110 c 0,30,31
 49 1178 49 1178 106.5 1223 c 128,-1,32
 164 1268 164 1268 260 1268 c 0,33,34
 362 1268 362 1268 419 1229.5 c 128,-1,35
 476 1191 476 1191 487 1114 c 1,36,-1
 383 1100 l 1,0,1
EndSplineSet
Validated: 1
EndChar

StartChar: uni02E3
Encoding: 739 739 351
Width: 561
GlyphClass: 1
Flags: W
LayerCount: 2
Fore
SplineSet
555 705 m 1,0,-1
 418 705 l 1,1,-1
 281 909 l 1,2,-1
 143 705 l 1,3,-1
 8 705 l 1,4,-1
 225 989 l 1,5,-1
 25 1255 l 1,6,-1
 162 1255 l 1,7,-1
 283 1073 l 1,8,-1
 406 1255 l 1,9,-1
 541 1255 l 1,10,-1
 340 993 l 1,11,-1
 555 705 l 1,0,-1
EndSplineSet
Validated: 1
EndChar

StartChar: uni02E4
Encoding: 740 740 352
Width: 666
GlyphClass: 1
Flags: W
LayerCount: 2
Fore
SplineSet
643 1288 m 1,0,-1
 532 1241 l 1,1,2
 470 1380 470 1380 346 1380 c 0,3,4
 268 1380 268 1380 224 1340 c 128,-1,5
 180 1300 180 1300 180 1235 c 0,6,7
 180 1138 180 1138 279 995 c 0,8,9
 355 884 355 884 374 832.5 c 128,-1,10
 393 781 393 781 393 672 c 2,11,-1
 393 440 l 1,12,-1
 268 440 l 1,13,-1
 268 672 l 2,14,15
 268 764 268 764 255.5 808 c 128,-1,16
 243 852 243 852 186 934 c 0,17,18
 101 1055 101 1055 76 1114 c 128,-1,19
 51 1173 51 1173 51 1243 c 0,20,21
 51 1348 51 1348 134 1415.5 c 128,-1,22
 217 1483 217 1483 348 1483 c 0,23,24
 548 1483 548 1483 643 1288 c 1,0,-1
EndSplineSet
Validated: 1
EndChar

StartChar: uni02E5
Encoding: 741 741 353
Width: 737
GlyphClass: 1
Flags: W
LayerCount: 2
Fore
SplineSet
573 0 m 1,0,-1
 471 0 l 1,1,-1
 471 1364 l 1,2,-1
 45 1364 l 1,3,-1
 45 1466 l 1,4,-1
 573 1466 l 1,5,-1
 573 0 l 1,0,-1
EndSplineSet
Validated: 1
EndChar

StartChar: uni02E6
Encoding: 742 742 354
Width: 737
GlyphClass: 1
Flags: W
LayerCount: 2
Fore
SplineSet
573 0 m 1,0,-1
 471 0 l 1,1,-1
 471 1022 l 1,2,-1
 45 1022 l 1,3,-1
 45 1124 l 1,4,-1
 471 1124 l 1,5,-1
 471 1466 l 1,6,-1
 573 1466 l 1,7,-1
 573 0 l 1,0,-1
EndSplineSet
Validated: 1
EndChar

StartChar: uni02E7
Encoding: 743 743 355
Width: 737
GlyphClass: 1
Flags: W
LayerCount: 2
Fore
SplineSet
573 0 m 1,0,-1
 471 0 l 1,1,-1
 471 682 l 1,2,-1
 45 682 l 1,3,-1
 45 784 l 1,4,-1
 471 784 l 1,5,-1
 471 1466 l 1,6,-1
 573 1466 l 1,7,-1
 573 0 l 1,0,-1
EndSplineSet
Validated: 1
EndChar

StartChar: uni02E8
Encoding: 744 744 356
Width: 737
GlyphClass: 1
Flags: W
LayerCount: 2
Fore
SplineSet
573 0 m 1,0,-1
 471 0 l 1,1,-1
 471 340 l 1,2,-1
 45 340 l 1,3,-1
 45 442 l 1,4,-1
 471 442 l 1,5,-1
 471 1466 l 1,6,-1
 573 1466 l 1,7,-1
 573 0 l 1,0,-1
EndSplineSet
Validated: 1
EndChar

StartChar: uni02E9
Encoding: 745 745 357
Width: 737
GlyphClass: 1
Flags: W
LayerCount: 2
Fore
SplineSet
573 0 m 1,0,-1
 45 0 l 1,1,-1
 45 102 l 1,2,-1
 471 102 l 1,3,-1
 471 1466 l 1,4,-1
 573 1466 l 1,5,-1
 573 0 l 1,0,-1
EndSplineSet
Validated: 1
EndChar

StartChar: gravecomb
Encoding: 768 768 358
Width: 0
GlyphClass: 1
Flags: W
LayerCount: 2
Fore
SplineSet
-385 1210 m 1,0,-1
 -533 1210 l 1,1,-1
 -754 1491 l 1,2,-1
 -518 1491 l 1,3,-1
 -385 1210 l 1,0,-1
EndSplineSet
Validated: 1
EndChar

StartChar: acutecomb
Encoding: 769 769 359
Width: 0
GlyphClass: 1
Flags: W
LayerCount: 2
Fore
SplineSet
-334 1491 m 1,0,-1
 -555 1210 l 1,1,-1
 -703 1210 l 1,2,-1
 -570 1491 l 1,3,-1
 -334 1491 l 1,0,-1
EndSplineSet
Validated: 1
EndChar

StartChar: uni0302
Encoding: 770 770 360
Width: 0
GlyphClass: 1
Flags: W
LayerCount: 2
Fore
SplineSet
-253 1210 m 1,0,-1
 -457 1210 l 1,1,-1
 -566 1380 l 1,2,-1
 -681 1210 l 1,3,-1
 -885 1210 l 1,4,-1
 -668 1491 l 1,5,-1
 -478 1491 l 1,6,-1
 -253 1210 l 1,0,-1
EndSplineSet
Validated: 1
EndChar

StartChar: tildecomb
Encoding: 771 771 361
Width: 0
GlyphClass: 1
Flags: W
LayerCount: 2
Fore
SplineSet
-234 1466 m 1,0,1
 -234 1354 -234 1354 -291.5 1296.5 c 128,-1,2
 -349 1239 -349 1239 -431 1239 c 0,3,4
 -477 1239 -477 1239 -508 1249.5 c 128,-1,5
 -539 1260 -539 1260 -582 1288 c 0,6,7
 -653 1333 -653 1333 -695 1333 c 0,8,9
 -778 1333 -778 1333 -781 1239 c 1,10,-1
 -904 1239 l 1,11,12
 -904 1350 -904 1350 -844 1408 c 128,-1,13
 -784 1466 -784 1466 -701 1466 c 0,14,15
 -636 1466 -636 1466 -560.5 1419 c 128,-1,16
 -485 1372 -485 1372 -437 1372 c 0,17,18
 -368 1372 -368 1372 -357 1466 c 1,19,-1
 -234 1466 l 1,0,1
EndSplineSet
Validated: 1
EndChar

StartChar: uni0304
Encoding: 772 772 362
Width: 0
GlyphClass: 1
Flags: W
LayerCount: 2
Fore
SplineSet
-257 1278 m 1,0,-1
 -881 1278 l 1,1,-1
 -881 1427 l 1,2,-1
 -257 1427 l 1,3,-1
 -257 1278 l 1,0,-1
EndSplineSet
Validated: 1
EndChar

StartChar: uni0305
Encoding: 773 773 363
Width: 0
GlyphClass: 1
Flags: W
LayerCount: 2
Fore
SplineSet
-45 1278 m 1,0,-1
 -1093 1278 l 1,1,-1
 -1093 1380 l 1,2,-1
 -45 1380 l 1,3,-1
 -45 1278 l 1,0,-1
EndSplineSet
Validated: 1
EndChar

StartChar: uni0306
Encoding: 774 774 364
Width: 0
GlyphClass: 1
Flags: W
LayerCount: 2
Fore
SplineSet
-273 1479 m 1,0,1
 -286 1349 -286 1349 -370 1284 c 128,-1,2
 -454 1219 -454 1219 -568 1219 c 0,3,4
 -679 1219 -679 1219 -764 1279.5 c 128,-1,5
 -849 1340 -849 1340 -865 1479 c 1,6,-1
 -742 1479 l 1,7,8
 -729 1411 -729 1411 -687 1377 c 128,-1,9
 -645 1343 -645 1343 -574 1343 c 0,10,11
 -499 1343 -499 1343 -454.5 1377 c 128,-1,12
 -410 1411 -410 1411 -396 1479 c 1,13,-1
 -273 1479 l 1,0,1
EndSplineSet
Validated: 1
EndChar

StartChar: uni0307
Encoding: 775 775 365
Width: 0
GlyphClass: 1
Flags: W
LayerCount: 2
Fore
SplineSet
-477 1251 m 1,0,-1
 -661 1251 l 1,1,-1
 -661 1456 l 1,2,-1
 -477 1456 l 1,3,-1
 -477 1251 l 1,0,-1
EndSplineSet
Validated: 1
EndChar

StartChar: uni0308
Encoding: 776 776 366
Width: 0
GlyphClass: 1
Flags: W
LayerCount: 2
Fore
SplineSet
-292 1251 m 1,0,-1
 -476 1251 l 1,1,-1
 -476 1456 l 1,2,-1
 -292 1456 l 1,3,-1
 -292 1251 l 1,0,-1
-662 1251 m 1,4,-1
 -847 1251 l 1,5,-1
 -847 1456 l 1,6,-1
 -662 1456 l 1,7,-1
 -662 1251 l 1,4,-1
EndSplineSet
Validated: 1
EndChar

StartChar: hookabovecomb
Encoding: 777 777 367
Width: 0
GlyphClass: 1
Flags: W
LayerCount: 2
Fore
SplineSet
-786 1824 m 1,0,1
 -723 1832 -723 1832 -640 1832 c 0,2,3
 -505 1832 -505 1832 -428.5 1785.5 c 128,-1,4
 -352 1739 -352 1739 -352 1670 c 0,5,6
 -352 1549 -352 1549 -534 1527 c 1,7,-1
 -534 1478 l 1,8,-1
 -647 1478 l 1,9,-1
 -647 1599 l 1,10,11
 -592 1599 -592 1599 -556 1616.5 c 128,-1,12
 -520 1634 -520 1634 -520 1664 c 0,13,14
 -520 1728 -520 1728 -679 1728 c 0,15,16
 -719 1728 -719 1728 -774 1724 c 1,17,-1
 -786 1824 l 1,0,1
EndSplineSet
Validated: 1
EndChar

StartChar: uni030A
Encoding: 778 778 368
Width: 0
GlyphClass: 1
Flags: W
LayerCount: 2
Fore
SplineSet
-571 1540 m 256,0,1
 -496 1540 -496 1540 -442.5 1486.5 c 128,-1,2
 -389 1433 -389 1433 -389 1358 c 256,3,4
 -389 1283 -389 1283 -442.5 1229.5 c 128,-1,5
 -496 1176 -496 1176 -571 1176 c 0,6,7
 -645 1176 -645 1176 -697 1229 c 128,-1,8
 -749 1282 -749 1282 -749 1358 c 0,9,10
 -749 1433 -749 1433 -697.5 1486.5 c 128,-1,11
 -646 1540 -646 1540 -571 1540 c 256,0,1
-569 1249 m 0,12,13
 -525 1249 -525 1249 -493.5 1281 c 128,-1,14
 -462 1313 -462 1313 -462 1358 c 0,15,16
 -462 1402 -462 1402 -493 1434 c 128,-1,17
 -524 1466 -524 1466 -569 1466 c 0,18,19
 -613 1466 -613 1466 -644 1433.5 c 128,-1,20
 -675 1401 -675 1401 -675 1360 c 0,21,22
 -675 1313 -675 1313 -643.5 1281 c 128,-1,23
 -612 1249 -612 1249 -569 1249 c 0,12,13
EndSplineSet
Validated: 1
EndChar

StartChar: uni030B
Encoding: 779 779 369
Width: 0
GlyphClass: 1
Flags: W
LayerCount: 2
Fore
SplineSet
-166 1491 m 1,0,-1
 -387 1210 l 1,1,-1
 -535 1210 l 1,2,-1
 -402 1491 l 1,3,-1
 -166 1491 l 1,0,-1
-504 1491 m 1,4,-1
 -725 1210 l 1,5,-1
 -873 1210 l 1,6,-1
 -740 1491 l 1,7,-1
 -504 1491 l 1,4,-1
EndSplineSet
Validated: 1
EndChar

StartChar: uni030C
Encoding: 780 780 370
Width: 0
GlyphClass: 1
Flags: W
LayerCount: 2
Fore
SplineSet
-253 1491 m 1,0,-1
 -470 1210 l 1,1,-1
 -660 1210 l 1,2,-1
 -885 1491 l 1,3,-1
 -681 1491 l 1,4,-1
 -572 1321 l 1,5,-1
 -457 1491 l 1,6,-1
 -253 1491 l 1,0,-1
EndSplineSet
Validated: 1
EndChar

StartChar: uni030D
Encoding: 781 781 371
Width: 0
GlyphClass: 1
Flags: W
LayerCount: 2
Fore
SplineSet
-508 1210 m 1,0,-1
 -630 1210 l 1,1,-1
 -630 1640 l 1,2,-1
 -508 1640 l 1,3,-1
 -508 1210 l 1,0,-1
EndSplineSet
Validated: 1
EndChar

StartChar: uni030E
Encoding: 782 782 372
Width: 0
GlyphClass: 1
Flags: W
LayerCount: 2
Fore
SplineSet
-354 1210 m 1,0,-1
 -477 1210 l 1,1,-1
 -477 1640 l 1,2,-1
 -354 1640 l 1,3,-1
 -354 1210 l 1,0,-1
-661 1210 m 1,4,-1
 -784 1210 l 1,5,-1
 -784 1640 l 1,6,-1
 -661 1640 l 1,7,-1
 -661 1210 l 1,4,-1
EndSplineSet
Validated: 1
EndChar

StartChar: uni030F
Encoding: 783 783 373
Width: 0
GlyphClass: 1
Flags: W
LayerCount: 2
Fore
SplineSet
-216 1210 m 1,0,-1
 -364 1210 l 1,1,-1
 -585 1491 l 1,2,-1
 -349 1491 l 1,3,-1
 -216 1210 l 1,0,-1
-554 1210 m 1,4,-1
 -702 1210 l 1,5,-1
 -923 1491 l 1,6,-1
 -687 1491 l 1,7,-1
 -554 1210 l 1,4,-1
EndSplineSet
Validated: 1
EndChar

StartChar: uni0310
Encoding: 784 784 374
Width: 0
GlyphClass: 1
Flags: W
LayerCount: 2
Fore
SplineSet
-273 1479 m 1,0,1
 -286 1349 -286 1349 -370 1284 c 128,-1,2
 -454 1219 -454 1219 -568 1219 c 0,3,4
 -679 1219 -679 1219 -764 1279.5 c 128,-1,5
 -849 1340 -849 1340 -865 1479 c 1,6,-1
 -742 1479 l 1,7,8
 -729 1411 -729 1411 -687 1377 c 128,-1,9
 -645 1343 -645 1343 -574 1343 c 0,10,11
 -499 1343 -499 1343 -454.5 1377 c 128,-1,12
 -410 1411 -410 1411 -396 1479 c 1,13,-1
 -273 1479 l 1,0,1
-496 1520 m 1,14,-1
 -644 1520 l 1,15,-1
 -644 1683 l 1,16,-1
 -496 1683 l 1,17,-1
 -496 1520 l 1,14,-1
EndSplineSet
Validated: 1
EndChar

StartChar: uni0311
Encoding: 785 785 375
Width: 0
GlyphClass: 1
Flags: W
LayerCount: 2
Fore
SplineSet
-273 1219 m 1,0,-1
 -396 1219 l 1,1,2
 -410 1286 -410 1286 -454.5 1320 c 128,-1,3
 -499 1354 -499 1354 -574 1354 c 0,4,5
 -645 1354 -645 1354 -687 1320 c 128,-1,6
 -729 1286 -729 1286 -742 1219 c 1,7,-1
 -865 1219 l 1,8,9
 -849 1357 -849 1357 -764 1418 c 128,-1,10
 -679 1479 -679 1479 -568 1479 c 0,11,12
 -454 1479 -454 1479 -370 1413.5 c 128,-1,13
 -286 1348 -286 1348 -273 1219 c 1,0,-1
EndSplineSet
Validated: 1
EndChar

StartChar: uni0312
Encoding: 786 786 376
Width: 0
GlyphClass: 1
Flags: W
LayerCount: 2
Fore
SplineSet
-473 1619 m 1,0,1
 -528 1597 -528 1597 -555.5 1547 c 128,-1,2
 -583 1497 -583 1497 -584 1419 c 1,3,-1
 -489 1419 l 1,4,-1
 -489 1210 l 1,5,-1
 -682 1210 l 1,6,-1
 -682 1374 l 2,7,8
 -682 1445 -682 1445 -673.5 1497.5 c 128,-1,9
 -665 1550 -665 1550 -629.5 1602.5 c 128,-1,10
 -594 1655 -594 1655 -518 1689 c 1,11,-1
 -473 1619 l 1,0,1
EndSplineSet
Validated: 1
EndChar

StartChar: uni0313
Encoding: 787 787 377
Width: 0
GlyphClass: 1
Flags: W
LayerCount: 2
Fore
SplineSet
-457 1501 m 2,0,1
 -457 1429 -457 1429 -465.5 1376.5 c 128,-1,2
 -474 1324 -474 1324 -510 1271.5 c 128,-1,3
 -546 1219 -546 1219 -621 1185 c 1,4,-1
 -666 1255 l 1,5,6
 -612 1277 -612 1277 -584.5 1327 c 128,-1,7
 -557 1377 -557 1377 -556 1455 c 1,8,-1
 -650 1455 l 1,9,-1
 -650 1664 l 1,10,-1
 -457 1664 l 1,11,-1
 -457 1501 l 2,0,1
EndSplineSet
Validated: 1
EndChar

StartChar: uni0314
Encoding: 788 788 378
Width: 0
GlyphClass: 1
Flags: W
LayerCount: 2
Fore
SplineSet
-473 1255 m 1,0,-1
 -518 1185 l 1,1,2
 -594 1219 -594 1219 -629.5 1271.5 c 128,-1,3
 -665 1324 -665 1324 -673.5 1376.5 c 128,-1,4
 -682 1429 -682 1429 -682 1501 c 2,5,-1
 -682 1664 l 1,6,-1
 -489 1664 l 1,7,-1
 -489 1455 l 1,8,-1
 -584 1455 l 1,9,10
 -583 1377 -583 1377 -555.5 1327 c 128,-1,11
 -528 1277 -528 1277 -473 1255 c 1,0,-1
EndSplineSet
Validated: 1
EndChar

StartChar: uni0315
Encoding: 789 789 379
Width: 0
GlyphClass: 1
Flags: W
LayerCount: 2
Fore
SplineSet
224 1303 m 2,0,1
 224 1231 224 1231 215.5 1178.5 c 128,-1,2
 207 1126 207 1126 171 1073.5 c 128,-1,3
 135 1021 135 1021 60 987 c 1,4,-1
 15 1057 l 1,5,6
 69 1079 69 1079 96.5 1129 c 128,-1,7
 124 1179 124 1179 125 1257 c 1,8,-1
 31 1257 l 1,9,-1
 31 1466 l 1,10,-1
 224 1466 l 1,11,-1
 224 1303 l 2,0,1
EndSplineSet
Validated: 1
EndChar

StartChar: uni0316
Encoding: 790 790 380
Width: 0
GlyphClass: 1
Flags: W
LayerCount: 2
Fore
SplineSet
-385 -430 m 1,0,-1
 -533 -430 l 1,1,-1
 -754 -150 l 1,2,-1
 -518 -150 l 1,3,-1
 -385 -430 l 1,0,-1
EndSplineSet
Validated: 1
EndChar

StartChar: uni0317
Encoding: 791 791 381
Width: 0
GlyphClass: 1
Flags: W
LayerCount: 2
Fore
SplineSet
-334 -150 m 1,0,-1
 -555 -430 l 1,1,-1
 -703 -430 l 1,2,-1
 -570 -150 l 1,3,-1
 -334 -150 l 1,0,-1
EndSplineSet
Validated: 1
EndChar

StartChar: uni0318
Encoding: 792 792 382
Width: 0
GlyphClass: 1
Flags: W
LayerCount: 2
Fore
SplineSet
-449 -516 m 1,0,-1
 -543 -516 l 1,1,-1
 -543 -369 l 1,2,-1
 -690 -369 l 1,3,-1
 -690 -274 l 1,4,-1
 -543 -274 l 1,5,-1
 -543 -127 l 1,6,-1
 -449 -127 l 1,7,-1
 -449 -516 l 1,0,-1
EndSplineSet
Validated: 1
EndChar

StartChar: uni0319
Encoding: 793 793 383
Width: 0
GlyphClass: 1
Flags: W
LayerCount: 2
Fore
SplineSet
-448 -369 m 1,0,-1
 -596 -369 l 1,1,-1
 -596 -516 l 1,2,-1
 -690 -516 l 1,3,-1
 -690 -127 l 1,4,-1
 -596 -127 l 1,5,-1
 -596 -274 l 1,6,-1
 -448 -274 l 1,7,-1
 -448 -369 l 1,0,-1
EndSplineSet
Validated: 1
EndChar

StartChar: uni031A
Encoding: 794 794 384
Width: 0
GlyphClass: 1
Flags: W
LayerCount: 2
Fore
SplineSet
-336 1210 m 1,0,-1
 -430 1210 l 1,1,-1
 -430 1480 l 1,2,-1
 -803 1480 l 1,3,-1
 -803 1574 l 1,4,-1
 -336 1574 l 1,5,-1
 -336 1210 l 1,0,-1
EndSplineSet
Validated: 1
EndChar

StartChar: uni031B
Encoding: 795 795 385
Width: 0
GlyphClass: 1
Flags: W
LayerCount: 2
Fore
SplineSet
112 1075 m 2,0,1
 112 932 112 932 82.5 867 c 128,-1,2
 53 802 53 802 -19 745.5 c 128,-1,3
 -91 689 -91 689 -205 676 c 1,4,-1
 -205 751 l 1,5,6
 -137 763 -137 763 -88.5 795 c 128,-1,7
 -40 827 -40 827 -13 872.5 c 128,-1,8
 14 918 14 918 14 1032 c 1,9,-1
 -80 1032 l 1,10,-1
 -80 1241 l 1,11,-1
 112 1241 l 1,12,-1
 112 1075 l 2,0,1
EndSplineSet
Validated: 1
EndChar

StartChar: uni031C
Encoding: 796 796 386
Width: 0
GlyphClass: 1
Flags: W
LayerCount: 2
Fore
SplineSet
-472 -430 m 1,0,1
 -560 -430 -560 -430 -613.5 -381 c 128,-1,2
 -667 -332 -667 -332 -667 -256 c 256,3,4
 -667 -180 -667 -180 -613.5 -131 c 128,-1,5
 -560 -82 -560 -82 -472 -82 c 1,6,-1
 -472 -176 l 1,7,8
 -522 -176 -522 -176 -546.5 -195.5 c 128,-1,9
 -571 -215 -571 -215 -571 -254 c 0,10,11
 -571 -294 -571 -294 -546.5 -314 c 128,-1,12
 -522 -334 -522 -334 -472 -334 c 1,13,-1
 -472 -430 l 1,0,1
EndSplineSet
Validated: 1
EndChar

StartChar: uni031D
Encoding: 797 797 387
Width: 0
GlyphClass: 1
Flags: W
LayerCount: 2
Fore
SplineSet
-313 -430 m 1,0,-1
 -825 -430 l 1,1,-1
 -825 -336 l 1,2,-1
 -616 -336 l 1,3,-1
 -616 -127 l 1,4,-1
 -522 -127 l 1,5,-1
 -522 -336 l 1,6,-1
 -313 -336 l 1,7,-1
 -313 -430 l 1,0,-1
EndSplineSet
Validated: 1
EndChar

StartChar: uni031E
Encoding: 798 798 388
Width: 0
GlyphClass: 1
Flags: W
LayerCount: 2
Fore
SplineSet
-313 -221 m 1,0,-1
 -522 -221 l 1,1,-1
 -522 -430 l 1,2,-1
 -616 -430 l 1,3,-1
 -616 -221 l 1,4,-1
 -825 -221 l 1,5,-1
 -825 -127 l 1,6,-1
 -313 -127 l 1,7,-1
 -313 -221 l 1,0,-1
EndSplineSet
Validated: 1
EndChar

StartChar: uni031F
Encoding: 799 799 389
Width: 0
GlyphClass: 1
Flags: W
LayerCount: 2
Fore
SplineSet
-374 -369 m 1,0,-1
 -522 -369 l 1,1,-1
 -522 -516 l 1,2,-1
 -616 -516 l 1,3,-1
 -616 -369 l 1,4,-1
 -764 -369 l 1,5,-1
 -764 -274 l 1,6,-1
 -616 -274 l 1,7,-1
 -616 -127 l 1,8,-1
 -522 -127 l 1,9,-1
 -522 -274 l 1,10,-1
 -374 -274 l 1,11,-1
 -374 -369 l 1,0,-1
EndSplineSet
Validated: 1
EndChar

StartChar: uni0320
Encoding: 800 800 390
Width: 0
GlyphClass: 1
Flags: W
LayerCount: 2
Fore
SplineSet
-311 -338 m 1,0,-1
 -827 -338 l 1,1,-1
 -827 -244 l 1,2,-1
 -311 -244 l 1,3,-1
 -311 -338 l 1,0,-1
EndSplineSet
Validated: 1
EndChar

StartChar: uni0321
Encoding: 801 801 391
Width: 0
GlyphClass: 1
Flags: W
LayerCount: 2
Fore
SplineSet
-324 -55 m 2,0,1
 -324 -232 -324 -232 -418.5 -329 c 128,-1,2
 -513 -426 -513 -426 -658 -426 c 0,3,4
 -750 -426 -750 -426 -814 -381 c 1,5,-1
 -814 -258 l 1,6,7
 -756 -293 -756 -293 -662 -293 c 0,8,9
 -572 -293 -572 -293 -515 -227 c 128,-1,10
 -458 -161 -458 -161 -458 -35 c 2,11,-1
 -458 41 l 1,12,-1
 -324 41 l 1,13,-1
 -324 -55 l 2,0,1
EndSplineSet
Validated: 1
EndChar

StartChar: uni0322
Encoding: 802 802 392
Width: 0
GlyphClass: 1
Flags: W
LayerCount: 2
Fore
SplineSet
-68 -381 m 1,0,1
 -133 -426 -133 -426 -224 -426 c 0,2,3
 -369 -426 -369 -426 -463.5 -329 c 128,-1,4
 -558 -232 -558 -232 -558 -55 c 2,5,-1
 -558 41 l 1,6,-1
 -425 41 l 1,7,-1
 -425 -35 l 2,8,9
 -425 -161 -425 -161 -367.5 -227 c 128,-1,10
 -310 -293 -310 -293 -220 -293 c 0,11,12
 -127 -293 -127 -293 -68 -258 c 1,13,-1
 -68 -381 l 1,0,1
EndSplineSet
Validated: 1
EndChar

StartChar: dotbelowcomb
Encoding: 803 803 393
Width: 0
GlyphClass: 1
Flags: W
LayerCount: 2
Fore
SplineSet
-477 -430 m 1,0,-1
 -661 -430 l 1,1,-1
 -661 -225 l 1,2,-1
 -477 -225 l 1,3,-1
 -477 -430 l 1,0,-1
EndSplineSet
Validated: 1
EndChar

StartChar: uni0324
Encoding: 804 804 394
Width: 0
GlyphClass: 1
Flags: W
LayerCount: 2
Fore
SplineSet
-292 -430 m 1,0,-1
 -476 -430 l 1,1,-1
 -476 -225 l 1,2,-1
 -292 -225 l 1,3,-1
 -292 -430 l 1,0,-1
-662 -430 m 1,4,-1
 -847 -430 l 1,5,-1
 -847 -225 l 1,6,-1
 -662 -225 l 1,7,-1
 -662 -430 l 1,4,-1
EndSplineSet
Validated: 1
EndChar

StartChar: uni0325
Encoding: 805 805 395
Width: 0
GlyphClass: 1
Flags: W
LayerCount: 2
Fore
SplineSet
-571 -66 m 256,0,1
 -496 -66 -496 -66 -442.5 -119.5 c 128,-1,2
 -389 -173 -389 -173 -389 -248 c 256,3,4
 -389 -323 -389 -323 -442.5 -376.5 c 128,-1,5
 -496 -430 -496 -430 -571 -430 c 0,6,7
 -645 -430 -645 -430 -697 -376.5 c 128,-1,8
 -749 -323 -749 -323 -749 -248 c 0,9,10
 -749 -172 -749 -172 -697.5 -119 c 128,-1,11
 -646 -66 -646 -66 -571 -66 c 256,0,1
-569 -356 m 0,12,13
 -525 -356 -525 -356 -493.5 -324 c 128,-1,14
 -462 -292 -462 -292 -462 -248 c 256,15,16
 -462 -204 -462 -204 -493 -171.5 c 128,-1,17
 -524 -139 -524 -139 -569 -139 c 0,18,19
 -613 -139 -613 -139 -644 -171.5 c 128,-1,20
 -675 -204 -675 -204 -675 -246 c 0,21,22
 -675 -294 -675 -294 -643.5 -325 c 128,-1,23
 -612 -356 -612 -356 -569 -356 c 0,12,13
EndSplineSet
Validated: 1
EndChar

StartChar: uni0326
Encoding: 806 806 396
Width: 303
GlyphClass: 1
Flags: W
LayerCount: 2
Fore
SplineSet
-319 32 m 1,1,2
 -293 -39 -293 -39 -319 -114 c 1,3,4
 -417 -273 -417 -273 -555 -273 c 1,5,-1
 -555 -205 l 1,6,7
 -458 -205 -458 -205 -384 -80 c 1,8,-1
 -384 -1 l 1,9,-1
 -411 -1 l 1,10,0
 -374 134 -374 134 -319 32 c 1,1,2
-406 -15 m 2,12,-1
 -425 -15 l 1,13,-1
 -500 73 l 1,14,-1
 -500 156 l 2,15,16
 -500 289 -500 289 -406 289 c 0,17,18
 -292 289 -292 289 -292 156 c 2,19,-1
 -292 118 l 2,20,11
 -292 -15 -292 -15 -406 -15 c 2,12,-1
EndSplineSet
Validated: 37
EndChar

StartChar: uni0327
Encoding: 807 807 397
Width: 0
GlyphClass: 1
Flags: W
LayerCount: 2
Fore
SplineSet
-517 -84 m 1,0,1
 -439 -94 -439 -94 -393 -133.5 c 128,-1,2
 -347 -173 -347 -173 -347 -231 c 0,3,4
 -347 -313 -347 -313 -424 -366.5 c 128,-1,5
 -501 -420 -501 -420 -636 -420 c 0,6,7
 -723 -420 -723 -420 -780 -410 c 1,8,-1
 -769 -293 l 1,9,10
 -715 -297 -715 -297 -675 -297 c 0,11,12
 -594 -297 -594 -297 -553.5 -278 c 128,-1,13
 -513 -259 -513 -259 -513 -221 c 0,14,15
 -513 -187 -513 -187 -552.5 -170.5 c 128,-1,16
 -592 -154 -592 -154 -671 -154 c 1,17,-1
 -618 23 l 1,18,-1
 -485 23 l 1,19,-1
 -517 -84 l 1,0,1
EndSplineSet
Validated: 1
EndChar

StartChar: uni0328
Encoding: 808 808 398
Width: 0
GlyphClass: 1
Flags: W
LayerCount: 2
Fore
SplineSet
-229 -365 m 1,0,1
 -349 -426 -349 -426 -449 -426 c 0,2,3
 -545 -426 -545 -426 -606.5 -366 c 128,-1,4
 -668 -306 -668 -306 -668 -205 c 0,5,6
 -668 -120 -668 -120 -627 25 c 1,7,-1
 -502 25 l 1,8,9
 -541 -66 -541 -66 -541 -141 c 0,10,11
 -541 -207 -541 -207 -500.5 -250 c 128,-1,12
 -460 -293 -460 -293 -397 -293 c 0,13,14
 -320 -293 -320 -293 -229 -246 c 1,15,-1
 -229 -365 l 1,0,1
EndSplineSet
Validated: 1
EndChar

StartChar: uni0329
Encoding: 809 809 399
Width: 0
GlyphClass: 1
Flags: W
LayerCount: 2
Fore
SplineSet
-508 -430 m 1,0,-1
 -630 -430 l 1,1,-1
 -630 -82 l 1,2,-1
 -508 -82 l 1,3,-1
 -508 -430 l 1,0,-1
EndSplineSet
Validated: 1
EndChar

StartChar: uni032A
Encoding: 810 810 400
Width: 0
GlyphClass: 1
Flags: W
LayerCount: 2
Fore
SplineSet
-304 -389 m 1,0,-1
 -398 -389 l 1,1,-1
 -398 -252 l 1,2,-1
 -740 -252 l 1,3,-1
 -740 -389 l 1,4,-1
 -834 -389 l 1,5,-1
 -834 -158 l 1,6,-1
 -304 -158 l 1,7,-1
 -304 -389 l 1,0,-1
EndSplineSet
Validated: 1
EndChar

StartChar: uni032B
Encoding: 811 811 401
Width: 0
GlyphClass: 1
Flags: W
LayerCount: 2
Fore
SplineSet
-303 -88 m 1,0,1
 -291 -139 -291 -139 -291 -197 c 0,2,3
 -291 -298 -291 -298 -328.5 -359 c 128,-1,4
 -366 -420 -366 -420 -434 -420 c 0,5,6
 -489 -420 -489 -420 -522.5 -396 c 128,-1,7
 -556 -372 -556 -372 -569 -324 c 1,8,9
 -582 -372 -582 -372 -616 -396 c 128,-1,10
 -650 -420 -650 -420 -704 -420 c 0,11,12
 -772 -420 -772 -420 -810 -359 c 128,-1,13
 -848 -298 -848 -298 -848 -197 c 0,14,15
 -848 -139 -848 -139 -835 -88 c 1,16,-1
 -743 -98 l 1,17,18
 -753 -136 -753 -136 -753 -197 c 0,19,20
 -753 -266 -753 -266 -735.5 -301 c 128,-1,21
 -718 -336 -718 -336 -682 -336 c 0,22,23
 -649 -336 -649 -336 -632.5 -308.5 c 128,-1,24
 -616 -281 -616 -281 -616 -209 c 1,25,-1
 -522 -209 l 1,26,27
 -522 -281 -522 -281 -506 -308.5 c 128,-1,28
 -490 -336 -490 -336 -456 -336 c 0,29,30
 -421 -336 -421 -336 -403 -301 c 128,-1,31
 -385 -266 -385 -266 -385 -197 c 0,32,33
 -385 -136 -385 -136 -395 -98 c 1,34,-1
 -303 -88 l 1,0,1
EndSplineSet
Validated: 1
EndChar

StartChar: uni032C
Encoding: 812 812 402
Width: 0
GlyphClass: 1
Flags: W
LayerCount: 2
Fore
SplineSet
-253 -150 m 1,0,-1
 -470 -430 l 1,1,-1
 -660 -430 l 1,2,-1
 -885 -150 l 1,3,-1
 -681 -150 l 1,4,-1
 -572 -319 l 1,5,-1
 -457 -150 l 1,6,-1
 -253 -150 l 1,0,-1
EndSplineSet
Validated: 1
EndChar

StartChar: uni032D
Encoding: 813 813 403
Width: 0
GlyphClass: 1
Flags: W
LayerCount: 2
Fore
SplineSet
-253 -430 m 1,0,-1
 -457 -430 l 1,1,-1
 -566 -260 l 1,2,-1
 -681 -430 l 1,3,-1
 -885 -430 l 1,4,-1
 -668 -150 l 1,5,-1
 -478 -150 l 1,6,-1
 -253 -430 l 1,0,-1
EndSplineSet
Validated: 1
EndChar

StartChar: uni032E
Encoding: 814 814 404
Width: 0
GlyphClass: 1
Flags: W
LayerCount: 2
Fore
SplineSet
-273 -150 m 1,0,1
 -286 -279 -286 -279 -370 -344.5 c 128,-1,2
 -454 -410 -454 -410 -568 -410 c 0,3,4
 -679 -410 -679 -410 -764 -349 c 128,-1,5
 -849 -288 -849 -288 -865 -150 c 1,6,-1
 -742 -150 l 1,7,8
 -729 -217 -729 -217 -687 -251 c 128,-1,9
 -645 -285 -645 -285 -574 -285 c 0,10,11
 -499 -285 -499 -285 -454.5 -251 c 128,-1,12
 -410 -217 -410 -217 -396 -150 c 1,13,-1
 -273 -150 l 1,0,1
EndSplineSet
Validated: 1
EndChar

StartChar: uni032F
Encoding: 815 815 405
Width: 0
GlyphClass: 1
Flags: W
LayerCount: 2
Fore
SplineSet
-273 -410 m 1,0,-1
 -396 -410 l 1,1,2
 -410 -342 -410 -342 -454.5 -308 c 128,-1,3
 -499 -274 -499 -274 -574 -274 c 0,4,5
 -645 -274 -645 -274 -687 -308 c 128,-1,6
 -729 -342 -729 -342 -742 -410 c 1,7,-1
 -865 -410 l 1,8,9
 -849 -271 -849 -271 -764 -210.5 c 128,-1,10
 -679 -150 -679 -150 -568 -150 c 0,11,12
 -454 -150 -454 -150 -370 -215 c 128,-1,13
 -286 -280 -286 -280 -273 -410 c 1,0,-1
EndSplineSet
Validated: 1
EndChar

StartChar: uni0330
Encoding: 816 816 406
Width: 0
GlyphClass: 1
Flags: W
LayerCount: 2
Fore
SplineSet
-234 -147 m 1,0,1
 -239 -264 -239 -264 -293 -320.5 c 128,-1,2
 -347 -377 -347 -377 -431 -377 c 0,3,4
 -493 -377 -493 -377 -615 -309 c 0,5,6
 -662 -283 -662 -283 -695 -283 c 0,7,8
 -733 -283 -733 -283 -752 -307 c 128,-1,9
 -771 -331 -771 -331 -771 -379 c 1,10,-1
 -904 -379 l 1,11,12
 -904 -267 -904 -267 -844 -208.5 c 128,-1,13
 -784 -150 -784 -150 -701 -150 c 0,14,15
 -649 -150 -649 -150 -560 -190 c 0,16,17
 -467 -233 -467 -233 -437 -233 c 0,18,19
 -399 -233 -399 -233 -384.5 -211 c 128,-1,20
 -370 -189 -370 -189 -365 -147 c 1,21,-1
 -234 -147 l 1,0,1
EndSplineSet
Validated: 1
EndChar

StartChar: uni0331
Encoding: 817 817 407
Width: 0
GlyphClass: 1
Flags: W
LayerCount: 2
Fore
SplineSet
-257 -367 m 1,0,-1
 -881 -367 l 1,1,-1
 -881 -217 l 1,2,-1
 -257 -217 l 1,3,-1
 -257 -367 l 1,0,-1
EndSplineSet
Validated: 1
EndChar

StartChar: uni0332
Encoding: 818 818 408
Width: 0
GlyphClass: 1
Flags: W
LayerCount: 2
Fore
SplineSet
-45 -256 m 1,0,-1
 -1093 -256 l 1,1,-1
 -1093 -154 l 1,2,-1
 -45 -154 l 1,3,-1
 -45 -256 l 1,0,-1
EndSplineSet
Validated: 1
EndChar

StartChar: uni0333
Encoding: 819 819 409
Width: 0
GlyphClass: 1
Flags: W
LayerCount: 2
Fore
SplineSet
-45 -215 m 1,0,-1
 -1093 -215 l 1,1,-1
 -1093 -113 l 1,2,-1
 -45 -113 l 1,3,-1
 -45 -215 l 1,0,-1
-45 -430 m 1,4,-1
 -1093 -430 l 1,5,-1
 -1093 -328 l 1,6,-1
 -45 -328 l 1,7,-1
 -45 -430 l 1,4,-1
EndSplineSet
Validated: 1
EndChar

StartChar: uni0334
Encoding: 820 820 410
Width: 0
GlyphClass: 1
Flags: W
LayerCount: 2
Fore
SplineSet
-234 647 m 1,0,1
 -239 530 -239 530 -293 474 c 128,-1,2
 -347 418 -347 418 -431 418 c 0,3,4
 -493 418 -493 418 -615 485 c 0,5,6
 -662 512 -662 512 -695 512 c 0,7,8
 -733 512 -733 512 -752 488 c 128,-1,9
 -771 464 -771 464 -771 416 c 1,10,-1
 -904 416 l 1,11,12
 -904 528 -904 528 -844 586.5 c 128,-1,13
 -784 645 -784 645 -701 645 c 0,14,15
 -649 645 -649 645 -560 604 c 0,16,17
 -467 561 -467 561 -437 561 c 0,18,19
 -399 561 -399 561 -384.5 583.5 c 128,-1,20
 -370 606 -370 606 -365 647 c 1,21,-1
 -234 647 l 1,0,1
EndSplineSet
Validated: 1
EndChar

StartChar: uni0335
Encoding: 821 821 411
Width: 0
GlyphClass: 1
Flags: W
LayerCount: 2
Fore
SplineSet
-257 457 m 1,0,-1
 -881 457 l 1,1,-1
 -881 606 l 1,2,-1
 -257 606 l 1,3,-1
 -257 457 l 1,0,-1
EndSplineSet
Validated: 1
EndChar

StartChar: uni0336
Encoding: 822 822 412
Width: 0
GlyphClass: 1
Flags: W
LayerCount: 2
Fore
SplineSet
-114 457 m 1,0,-1
 -1025 457 l 1,1,-1
 -1025 606 l 1,2,-1
 -114 606 l 1,3,-1
 -114 457 l 1,0,-1
EndSplineSet
Validated: 1
EndChar

StartChar: uni0337
Encoding: 823 823 413
Width: 0
GlyphClass: 1
Flags: W
LayerCount: 2
Fore
SplineSet
-200 791 m 1,0,-1
 -841 172 l 1,1,-1
 -938 270 l 1,2,-1
 -297 889 l 1,3,-1
 -200 791 l 1,0,-1
EndSplineSet
Validated: 1
EndChar

StartChar: uni0338
Encoding: 824 824 414
Width: 0
GlyphClass: 1
Flags: W
LayerCount: 2
Fore
SplineSet
-204 1466 m 1,0,-1
 -1222 -49 l 1,1,-1
 -1388 -49 l 1,2,-1
 -370 1466 l 1,3,-1
 -204 1466 l 1,0,-1
EndSplineSet
Validated: 1
EndChar

StartChar: uni0339
Encoding: 825 825 415
Width: 0
GlyphClass: 1
Flags: W
LayerCount: 2
Fore
SplineSet
-637 -82 m 1,0,1
 -549 -82 -549 -82 -495.5 -131 c 128,-1,2
 -442 -180 -442 -180 -442 -256 c 0,3,4
 -442 -331 -442 -331 -494.5 -380.5 c 128,-1,5
 -547 -430 -547 -430 -637 -430 c 1,6,-1
 -637 -334 l 1,7,8
 -588 -334 -588 -334 -563 -314 c 128,-1,9
 -538 -294 -538 -294 -538 -254 c 0,10,11
 -538 -215 -538 -215 -563 -195.5 c 128,-1,12
 -588 -176 -588 -176 -637 -176 c 1,13,-1
 -637 -82 l 1,0,1
EndSplineSet
Validated: 1
EndChar

StartChar: uni033A
Encoding: 826 826 416
Width: 0
GlyphClass: 1
Flags: W
LayerCount: 2
Fore
SplineSet
-304 -389 m 1,0,-1
 -834 -389 l 1,1,-1
 -834 -158 l 1,2,-1
 -740 -158 l 1,3,-1
 -740 -295 l 1,4,-1
 -398 -295 l 1,5,-1
 -398 -158 l 1,6,-1
 -304 -158 l 1,7,-1
 -304 -389 l 1,0,-1
EndSplineSet
Validated: 1
EndChar

StartChar: uni033B
Encoding: 827 827 417
Width: 0
GlyphClass: 1
Flags: W
LayerCount: 2
Fore
SplineSet
-402 -430 m 1,0,-1
 -736 -430 l 1,1,-1
 -736 -96 l 1,2,-1
 -402 -96 l 1,3,-1
 -402 -430 l 1,0,-1
-484 -348 m 1,4,-1
 -484 -178 l 1,5,-1
 -654 -178 l 1,6,-1
 -654 -348 l 1,7,-1
 -484 -348 l 1,4,-1
EndSplineSet
Validated: 1
EndChar

StartChar: uni033C
Encoding: 828 828 418
Width: 0
GlyphClass: 1
Flags: W
LayerCount: 2
Fore
SplineSet
-291 -266 m 1,0,-1
 -366 -317 l 1,1,2
 -396 -254 -396 -254 -444 -254 c 0,3,4
 -521 -254 -521 -254 -542 -381 c 1,5,-1
 -596 -381 l 1,6,7
 -617 -254 -617 -254 -694 -254 c 0,8,9
 -742 -254 -742 -254 -772 -317 c 1,10,-1
 -848 -266 l 1,11,12
 -799 -170 -799 -170 -704 -170 c 0,13,14
 -595 -170 -595 -170 -569 -266 c 1,15,16
 -543 -170 -543 -170 -434 -170 c 0,17,18
 -339 -170 -339 -170 -291 -266 c 1,0,-1
EndSplineSet
Validated: 1
EndChar

StartChar: uni033D
Encoding: 829 829 419
Width: 0
GlyphClass: 1
Flags: W
LayerCount: 2
Fore
SplineSet
-294 1190 m 1,0,-1
 -335 1143 l 1,1,-1
 -570 1339 l 1,2,-1
 -804 1145 l 1,3,-1
 -844 1190 l 1,4,-1
 -617 1380 l 1,5,-1
 -844 1571 l 1,6,-1
 -804 1616 l 1,7,-1
 -570 1421 l 1,8,-1
 -335 1618 l 1,9,-1
 -294 1571 l 1,10,-1
 -523 1380 l 1,11,-1
 -294 1190 l 1,0,-1
EndSplineSet
Validated: 1
EndChar

StartChar: uni033E
Encoding: 830 830 420
Width: 0
GlyphClass: 1
Flags: W
LayerCount: 2
Fore
SplineSet
-455 1765 m 1,0,1
 -549 1755 -549 1755 -549 1686 c 0,2,3
 -549 1645 -549 1645 -500 1559 c 0,4,5
 -455 1478 -455 1478 -455 1421 c 0,6,7
 -455 1335 -455 1335 -516 1277 c 128,-1,8
 -577 1219 -577 1219 -683 1219 c 1,9,-1
 -683 1341 l 1,10,11
 -588 1344 -588 1344 -588 1427 c 0,12,13
 -588 1470 -588 1470 -633 1540 c 0,14,15
 -662 1584 -662 1584 -672.5 1614.5 c 128,-1,16
 -683 1645 -683 1645 -683 1692 c 0,17,18
 -683 1774 -683 1774 -625 1831 c 128,-1,19
 -567 1888 -567 1888 -455 1888 c 1,20,-1
 -455 1765 l 1,0,1
EndSplineSet
Validated: 1
EndChar

StartChar: uni033F
Encoding: 831 831 421
Width: 0
GlyphClass: 1
Flags: W
LayerCount: 2
Fore
SplineSet
-45 1493 m 1,0,-1
 -1093 1493 l 1,1,-1
 -1093 1595 l 1,2,-1
 -45 1595 l 1,3,-1
 -45 1493 l 1,0,-1
-45 1278 m 1,4,-1
 -1093 1278 l 1,5,-1
 -1093 1380 l 1,6,-1
 -45 1380 l 1,7,-1
 -45 1278 l 1,4,-1
EndSplineSet
Validated: 1
EndChar

StartChar: uni0340
Encoding: 832 832 422
Width: 0
GlyphClass: 1
Flags: W
LayerCount: 2
Fore
SplineSet
-385 1478 m 1,0,-1
 -533 1478 l 1,1,-1
 -754 1759 l 1,2,-1
 -518 1759 l 1,3,-1
 -385 1478 l 1,0,-1
EndSplineSet
Validated: 1
EndChar

StartChar: uni0341
Encoding: 833 833 423
Width: 0
GlyphClass: 1
Flags: W
LayerCount: 2
Fore
SplineSet
-334 1759 m 1,0,-1
 -555 1478 l 1,1,-1
 -703 1478 l 1,2,-1
 -570 1759 l 1,3,-1
 -334 1759 l 1,0,-1
EndSplineSet
Validated: 1
EndChar

StartChar: uni0342
Encoding: 834 834 424
Width: 0
GlyphClass: 1
Flags: W
LayerCount: 2
Fore
SplineSet
-234 1468 m 1,0,1
 -239 1351 -239 1351 -293 1295 c 128,-1,2
 -347 1239 -347 1239 -431 1239 c 0,3,4
 -493 1239 -493 1239 -615 1307 c 0,5,6
 -662 1333 -662 1333 -695 1333 c 0,7,8
 -733 1333 -733 1333 -752 1309 c 128,-1,9
 -771 1285 -771 1285 -771 1237 c 1,10,-1
 -904 1237 l 1,11,12
 -904 1347 -904 1347 -844.5 1406.5 c 128,-1,13
 -785 1466 -785 1466 -701 1466 c 0,14,15
 -649 1466 -649 1466 -560 1425 c 0,16,17
 -467 1382 -467 1382 -437 1382 c 0,18,19
 -399 1382 -399 1382 -384.5 1404.5 c 128,-1,20
 -370 1427 -370 1427 -365 1468 c 1,21,-1
 -234 1468 l 1,0,1
EndSplineSet
Validated: 1
EndChar

StartChar: uni0343
Encoding: 835 835 425
Width: 0
GlyphClass: 1
Flags: W
LayerCount: 2
Fore
SplineSet
-456 1571 m 2,0,1
 -456 1499 -456 1499 -464 1446.5 c 128,-1,2
 -472 1394 -472 1394 -508 1341.5 c 128,-1,3
 -544 1289 -544 1289 -620 1255 c 1,4,-1
 -665 1325 l 1,5,6
 -610 1347 -610 1347 -582.5 1397 c 128,-1,7
 -555 1447 -555 1447 -554 1525 c 1,8,-1
 -648 1525 l 1,9,-1
 -648 1734 l 1,10,-1
 -456 1734 l 1,11,-1
 -456 1571 l 2,0,1
EndSplineSet
Validated: 1
EndChar

StartChar: uni0344
Encoding: 836 836 426
Width: 0
GlyphClass: 1
Flags: W
LayerCount: 2
Fore
SplineSet
-378 1475 m 1,0,-1
 -578 1198 l 1,1,-1
 -695 1198 l 1,2,-1
 -564 1475 l 1,3,-1
 -378 1475 l 1,0,-1
-205 1198 m 1,4,-1
 -378 1198 l 1,5,-1
 -378 1389 l 1,6,-1
 -205 1389 l 1,7,-1
 -205 1198 l 1,4,-1
-760 1198 m 1,8,-1
 -933 1198 l 1,9,-1
 -933 1389 l 1,10,-1
 -760 1389 l 1,11,-1
 -760 1198 l 1,8,-1
EndSplineSet
Validated: 1
EndChar

StartChar: uni0345
Encoding: 837 837 427
Width: 0
GlyphClass: 1
Flags: W
LayerCount: 2
Fore
SplineSet
-368 -377 m 1,0,1
 -419 -430 -419 -430 -482 -430 c 0,2,3
 -549 -430 -549 -430 -582.5 -389 c 128,-1,4
 -616 -348 -616 -348 -616 -266 c 2,5,-1
 -616 -123 l 1,6,-1
 -525 -123 l 1,7,-1
 -525 -264 l 2,8,9
 -525 -323 -525 -323 -512 -337.5 c 128,-1,10
 -499 -352 -499 -352 -470 -352 c 0,11,12
 -437 -352 -437 -352 -419 -328 c 1,13,-1
 -368 -377 l 1,0,1
EndSplineSet
Validated: 1
EndChar

StartChar: uni0360
Encoding: 864 864 428
Width: 0
GlyphClass: 1
Flags: W
LayerCount: 2
Fore
SplineSet
-206 1466 m 1,0,1
 -231 1351 -231 1351 -332 1294 c 128,-1,2
 -433 1237 -433 1237 -609 1237 c 0,3,4
 -752 1237 -752 1237 -1168 1286 c 0,5,6
 -1595 1335 -1595 1335 -1738 1335 c 0,7,8
 -1835 1335 -1835 1335 -1880.5 1314.5 c 128,-1,9
 -1926 1294 -1926 1294 -1946 1237 c 1,10,-1
 -2071 1237 l 1,11,12
 -2046 1351 -2046 1351 -1945.5 1408.5 c 128,-1,13
 -1845 1466 -1845 1466 -1668 1466 c 0,14,15
 -1525 1466 -1525 1466 -1109 1417 c 0,16,17
 -682 1368 -682 1368 -540 1368 c 0,18,19
 -442 1368 -442 1368 -397 1389 c 128,-1,20
 -352 1410 -352 1410 -331 1466 c 1,21,-1
 -206 1466 l 1,0,1
EndSplineSet
Validated: 1
EndChar

StartChar: uni0361
Encoding: 865 865 429
Width: 0
GlyphClass: 1
Flags: W
LayerCount: 2
Fore
SplineSet
-229 1219 m 1,0,-1
 -387 1219 l 1,1,2
 -432 1279 -432 1279 -635 1316.5 c 128,-1,3
 -838 1354 -838 1354 -1139 1354 c 0,4,5
 -1439 1354 -1439 1354 -1642.5 1316.5 c 128,-1,6
 -1846 1279 -1846 1279 -1890 1219 c 1,7,-1
 -2048 1219 l 1,8,9
 -1984 1344 -1984 1344 -1748.5 1411.5 c 128,-1,10
 -1513 1479 -1513 1479 -1139 1479 c 0,11,12
 -764 1479 -764 1479 -528.5 1411.5 c 128,-1,13
 -293 1344 -293 1344 -229 1219 c 1,0,-1
EndSplineSet
Validated: 1
EndChar

StartChar: uni0374
Encoding: 884 884 430
Width: 631
GlyphClass: 1
Flags: W
LayerCount: 2
Fore
SplineSet
616 1466 m 1,0,-1
 193 950 l 1,1,-1
 61 950 l 1,2,-1
 334 1466 l 1,3,-1
 616 1466 l 1,0,-1
EndSplineSet
Validated: 1
EndChar

StartChar: uni0375
Encoding: 885 885 431
Width: 631
GlyphClass: 1
Flags: W
LayerCount: 2
Fore
SplineSet
616 246 m 1,0,-1
 193 -270 l 1,1,-1
 61 -270 l 1,2,-1
 334 246 l 1,3,-1
 616 246 l 1,0,-1
EndSplineSet
Validated: 1
EndChar

StartChar: uni037A
Encoding: 890 890 432
Width: 569
GlyphClass: 1
Flags: W
LayerCount: 2
Fore
SplineSet
528 -340 m 1,0,1
 439 -426 439 -426 358 -426 c 0,2,3
 265 -426 265 -426 214.5 -374.5 c 128,-1,4
 164 -323 164 -323 164 -225 c 2,5,-1
 164 -86 l 1,6,-1
 291 -86 l 1,7,-1
 291 -213 l 2,8,9
 291 -313 291 -313 358 -313 c 0,10,11
 405 -313 405 -313 465 -264 c 1,12,-1
 528 -340 l 1,0,1
EndSplineSet
Validated: 1
EndChar

StartChar: dieresistonos
Encoding: 901 901 434
Width: 723
GlyphClass: 1
Flags: W
LayerCount: 2
Fore
SplineSet
601 1778 m 2,0,-1
 573 1778 l 2,1,2
 472 1778 472 1778 472 1665 c 0,3,4
 472 1570 472 1570 573 1570 c 2,5,-1
 635 1570 l 1,6,-1
 703 1646 l 1,7,-1
 703 1665 l 2,8,9
 703 1778 703 1778 601 1778 c 2,0,-1
142 1766 m 2,10,-1
 113 1766 l 2,11,12
 12 1766 12 1766 12 1653 c 0,13,14
 12 1558 12 1558 113 1558 c 2,15,-1
 176 1558 l 1,16,-1
 243 1634 l 1,17,-1
 243 1653 l 2,18,19
 243 1766 243 1766 142 1766 c 2,10,-1
436 1760 m 2,20,-1
 424 1776 l 2,21,22
 378 1831 378 1831 320 1748 c 0,23,24
 271 1678 271 1678 225 1503 c 1,25,-1
 253 1469 l 1,26,-1
 414 1607 l 1,27,-1
 424 1621 l 2,28,29
 482 1704 482 1704 436 1760 c 2,20,-1
EndSplineSet
Validated: 41
EndChar

StartChar: Iotatonos
Encoding: 906 906 439
Width: 1039
GlyphClass: 1
Flags: W
LayerCount: 2
Fore
SplineSet
356 1397 m 1,0,-1
 984 1397 l 1,1,-1
 1036 1356 l 1,2,-1
 1036 1315 l 2,3,4
 1036 1280 1036 1280 879 1253 c 1,5,-1
 853 1150 l 1,6,-1
 853 822 l 2,7,8
 853 699 853 699 1036 699 c 1,9,-1
 1036 657 l 1,10,-1
 879 575 l 1,11,12
 853 144 853 144 958 144 c 0,13,14
 1036 144 1036 144 1036 103 c 2,15,-1
 1036 41 l 1,16,-1
 984 0 l 1,17,-1
 330 0 l 1,18,-1
 278 41 l 1,19,-1
 278 103 l 1,20,-1
 330 144 l 1,21,-1
 461 144 l 1,22,-1
 499 353 l 1,23,24
 487 587 487 587 278 637 c 1,25,-1
 278 657 l 2,26,27
 278 719 278 719 461 719 c 1,28,-1
 487 822 l 1,29,-1
 487 1212 l 2,30,31
 487 1261 487 1261 278 1294 c 1,32,-1
 278 1335 l 1,33,-1
 356 1397 l 1,0,-1
274 1497 m 2,34,-1
 257 1513 l 2,35,36
 197 1568 197 1568 120 1485 c 0,37,38
 56 1415 56 1415 -5 1240 c 1,39,-1
 32 1206 l 1,40,-1
 245 1344 l 1,41,-1
 258 1358 l 2,42,43
 334 1441 334 1441 274 1497 c 2,34,-1
EndSplineSet
Validated: 41
EndChar

StartChar: iotadieresistonos
Encoding: 912 912 443
Width: 860
GlyphClass: 1
Flags: W
LayerCount: 2
Fore
SplineSet
107 1397 m 1,0,-1
 735 1397 l 1,1,-1
 787 1356 l 1,2,-1
 787 1315 l 2,3,4
 787 1280 787 1280 630 1253 c 1,5,-1
 604 1150 l 1,6,-1
 604 822 l 2,7,8
 604 699 604 699 787 699 c 1,9,-1
 787 657 l 1,10,-1
 630 575 l 1,11,12
 604 144 604 144 709 144 c 0,13,14
 787 144 787 144 787 103 c 2,15,-1
 787 41 l 1,16,-1
 735 0 l 1,17,-1
 81 0 l 1,18,-1
 29 41 l 1,19,-1
 29 103 l 1,20,-1
 81 144 l 1,21,-1
 212 144 l 1,22,-1
 250 353 l 1,23,24
 238 587 238 587 29 637 c 1,25,-1
 29 657 l 2,26,27
 29 719 29 719 212 719 c 1,28,-1
 238 822 l 1,29,-1
 238 1212 l 2,30,31
 238 1261 238 1261 29 1294 c 1,32,-1
 29 1335 l 1,33,-1
 107 1397 l 1,0,-1
650 1726 m 2,34,-1
 622 1726 l 2,35,36
 521 1726 521 1726 521 1613 c 0,37,38
 521 1518 521 1518 622 1518 c 2,39,-1
 684 1518 l 1,40,-1
 752 1594 l 1,41,-1
 752 1613 l 2,42,43
 752 1726 752 1726 650 1726 c 2,34,-1
191 1714 m 2,44,-1
 162 1714 l 2,45,46
 61 1714 61 1714 61 1601 c 0,47,48
 61 1506 61 1506 162 1506 c 2,49,-1
 225 1506 l 1,50,-1
 292 1582 l 1,51,-1
 292 1601 l 2,52,53
 292 1714 292 1714 191 1714 c 2,44,-1
485 1708 m 2,54,-1
 473 1724 l 2,55,56
 427 1779 427 1779 369 1696 c 0,57,58
 320 1626 320 1626 274 1451 c 1,59,-1
 302 1417 l 1,60,-1
 463 1555 l 1,61,-1
 473 1569 l 2,62,63
 531 1652 531 1652 485 1708 c 2,54,-1
EndSplineSet
Validated: 41
EndChar

StartChar: Gamma
Encoding: 915 915 446
Width: 1308
GlyphClass: 1
Flags: W
LayerCount: 2
Fore
SplineSet
53 1397 m 1,0,-1
 1166 1397 l 1,1,2
 1272 1384 1272 1384 1272 1336 c 1,3,-1
 1257 1239 l 1,4,-1
 512 1235 l 1,5,6
 459 1215 459 1215 459 1114 c 2,7,-1
 459 243 l 2,8,9
 459 146 459 146 565 81 c 1,10,-1
 565 40 l 1,11,-1
 530 0 l 1,12,-1
 35 0 l 1,13,-1
 0 40 l 1,14,-1
 0 81 l 2,15,16
 0 115 0 115 124 142 c 1,17,-1
 124 1195 l 2,18,19
 124 1228 124 1228 0 1255 c 1,20,-1
 0 1336 l 1,21,-1
 53 1397 l 1,0,-1
EndSplineSet
Validated: 1
EndChar

StartChar: uni0394
Encoding: 916 916 447
Width: 1368
GlyphClass: 1
Flags: W
LayerCount: 2
Fore
SplineSet
427 1401 m 2,0,1
 793 1401 793 1401 1060 403 c 1,2,-1
 1203 164 l 1,3,-1
 1345 164 l 1,4,-1
 1377 124 l 1,5,-1
 1377 64 l 1,6,-1
 1330 4 l 1,7,-1
 32 4 l 1,8,-1
 0 44 l 1,9,-1
 0 124 l 1,10,-1
 32 164 l 1,11,-1
 174 164 l 1,12,13
 395 481 395 481 570 982 c 1,14,-1
 570 1062 l 2,15,16
 570 1187 570 1187 412 1221 c 1,17,-1
 332 1221 l 1,18,-1
 332 1201 l 1,19,-1
 459 1062 l 1,20,-1
 459 1042 l 2,21,22
 459 922 459 922 317 822 c 1,23,-1
 222 822 l 2,24,25
 142 822 142 822 127 1102 c 1,26,27
 127 1322 127 1322 317 1401 c 1,28,-1
 427 1401 l 2,0,1
601 742 m 1,29,30
 601 683 601 683 380 224 c 1,31,-1
 380 164 l 1,32,-1
 839 164 l 1,33,-1
 871 204 l 1,34,-1
 649 742 l 1,35,-1
 601 742 l 1,29,30
EndSplineSet
Validated: 1
EndChar

StartChar: Theta
Encoding: 920 920 451
Width: 1397
GlyphClass: 1
Flags: W
LayerCount: 2
Fore
SplineSet
685 1494 m 0,0,1
 1197 1494 1197 1494 1369 896 c 1,2,-1
 1369 619 l 2,3,4
 1369 217 1369 217 850 0 c 1,5,-1
 566 0 l 2,6,7
 285 0 285 0 24 491 c 1,8,-1
 0 747 l 1,9,10
 99 1494 99 1494 685 1494 c 0,0,1
425 1131 m 1,11,-1
 425 875 l 1,12,-1
 472 832 l 1,13,-1
 921 832 l 1,14,-1
 968 875 l 1,15,-1
 968 1110 l 1,16,17
 882 1271 882 1271 755 1323 c 1,18,-1
 637 1323 l 1,19,20
 494 1255 494 1255 425 1131 c 1,11,-1
425 619 m 1,21,-1
 425 406 l 1,22,23
 481 149 481 149 708 149 c 0,24,25
 968 149 968 149 968 640 c 1,26,-1
 897 683 l 1,27,-1
 496 683 l 1,28,-1
 425 619 l 1,21,-1
EndSplineSet
Validated: 1
EndChar

StartChar: Iota
Encoding: 921 921 452
Width: 795
GlyphClass: 1
Flags: W
LayerCount: 2
Fore
SplineSet
78 1397 m 1,0,-1
 706 1397 l 1,1,-1
 758 1356 l 1,2,-1
 758 1315 l 2,3,4
 758 1280 758 1280 601 1253 c 1,5,-1
 575 1150 l 1,6,-1
 575 822 l 2,7,8
 575 699 575 699 758 699 c 1,9,-1
 758 657 l 1,10,-1
 601 575 l 1,11,12
 575 144 575 144 680 144 c 0,13,14
 758 144 758 144 758 103 c 2,15,-1
 758 41 l 1,16,-1
 706 0 l 1,17,-1
 52 0 l 1,18,-1
 0 41 l 1,19,-1
 0 103 l 1,20,-1
 52 144 l 1,21,-1
 183 144 l 1,22,-1
 221 353 l 1,23,24
 209 587 209 587 0 637 c 1,25,-1
 0 657 l 2,26,27
 0 719 0 719 183 719 c 1,28,-1
 209 822 l 1,29,-1
 209 1212 l 2,30,31
 209 1261 209 1261 0 1294 c 1,32,-1
 0 1335 l 1,33,-1
 78 1397 l 1,0,-1
EndSplineSet
Validated: 33
EndChar

StartChar: Lambda
Encoding: 923 923 454
Width: 1438
GlyphClass: 1
Flags: W
LayerCount: 2
Fore
SplineSet
321 1397 m 1,0,1
 748 1397 748 1397 964 619 c 1,2,3
 1131 180 1131 180 1268 180 c 0,4,5
 1393 180 1393 180 1393 140 c 2,6,-1
 1393 60 l 1,7,-1
 1339 0 l 1,8,-1
 964 0 l 2,9,10
 839 0 839 0 839 220 c 1,11,12
 583 758 583 758 554 758 c 1,13,14
 362 418 362 418 286 180 c 1,15,-1
 518 180 l 1,16,-1
 554 140 l 1,17,-1
 554 60 l 1,18,19
 536 0 536 0 446 0 c 2,20,-1
 107 0 l 1,21,-1
 71 40 l 1,22,-1
 71 160 l 1,23,24
 500 890 500 890 500 1018 c 2,25,-1
 500 1098 l 1,26,27
 412 1237 412 1237 286 1237 c 2,28,-1
 250 1237 l 1,29,-1
 214 1197 l 1,30,31
 353 1143 353 1143 375 1078 c 1,32,-1
 375 998 l 1,33,34
 263 818 263 818 143 818 c 0,35,36
 67 818 67 818 0 958 c 1,37,-1
 0 1158 l 2,38,39
 0 1376 0 1376 321 1397 c 1,0,1
EndSplineSet
Validated: 1
EndChar

StartChar: Xi
Encoding: 926 926 457
Width: 1405
GlyphClass: 1
Flags: W
LayerCount: 2
Fore
SplineSet
32 1401 m 1,0,-1
 1357 1401 l 1,1,-1
 1389 1365 l 1,2,-1
 1389 1328 l 1,3,4
 1373 1274 1373 1274 1294 1274 c 2,5,-1
 316 1274 l 1,6,-1
 379 1055 l 1,7,-1
 331 1055 l 1,8,9
 111 1180 111 1180 0 1310 c 1,10,-1
 0 1365 l 1,11,-1
 32 1401 l 1,0,-1
56 289 m 1,12,-1
 1381 289 l 1,13,-1
 1413 253 l 1,14,-1
 1413 216 l 1,15,16
 1397 162 1397 162 1318 162 c 2,17,-1
 340 162 l 1,18,-1
 403 -57 l 1,19,-1
 355 -57 l 1,20,21
 135 68 135 68 24 198 c 1,22,-1
 24 253 l 1,23,-1
 56 289 l 1,12,-1
295 847 m 1,24,-1
 1171 847 l 1,25,-1
 1203 811 l 1,26,-1
 1203 774 l 1,27,28
 1187 720 1187 720 1108 720 c 2,29,-1
 579 720 l 1,30,-1
 642 501 l 1,31,-1
 594 501 l 1,32,33
 374 626 374 626 263 756 c 1,34,-1
 263 811 l 1,35,-1
 295 847 l 1,24,-1
EndSplineSet
Validated: 1
EndChar

StartChar: Pi
Encoding: 928 928 459
Width: 1308
GlyphClass: 1
Flags: W
LayerCount: 2
Fore
SplineSet
53 1397 m 1,0,-1
 1166 1397 l 1,1,2
 1272 1384 1272 1384 1272 1336 c 2,3,-1
 1272 1276 l 1,4,-1
 1131 1195 l 1,5,-1
 1131 182 l 2,6,7
 1131 134 1131 134 1272 101 c 1,8,-1
 1272 40 l 1,9,-1
 1237 0 l 1,10,-1
 742 0 l 1,11,-1
 707 40 l 1,12,-1
 707 81 l 2,13,14
 707 121 707 121 777 121 c 1,15,-1
 795 142 l 1,16,-1
 795 1195 l 1,17,-1
 760 1235 l 1,18,-1
 512 1235 l 1,19,20
 459 1215 459 1215 459 1114 c 2,21,-1
 459 243 l 2,22,23
 459 146 459 146 565 81 c 1,24,-1
 565 40 l 1,25,-1
 530 0 l 1,26,-1
 35 0 l 1,27,-1
 0 40 l 1,28,-1
 0 81 l 2,29,30
 0 115 0 115 124 142 c 1,31,-1
 124 1195 l 2,32,33
 124 1228 124 1228 0 1255 c 1,34,-1
 0 1336 l 1,35,-1
 53 1397 l 1,0,-1
EndSplineSet
Validated: 1
EndChar

StartChar: Sigma
Encoding: 931 931 461
Width: 1079
GlyphClass: 1
Flags: W
LayerCount: 2
Fore
SplineSet
1043 1355 m 1,0,-1
 1043 996 l 1,1,-1
 1008 954 l 1,2,-1
 781 1249 l 1,3,-1
 414 1249 l 1,4,-1
 396 1228 l 1,5,-1
 700 730 l 1,6,-1
 700 709 l 1,7,-1
 665 667 l 1,8,-1
 508 663 l 1,9,-1
 508 620 l 1,10,-1
 31 1355 l 1,11,-1
 31 1397 l 1,12,-1
 1008 1397 l 1,13,-1
 1043 1355 l 1,0,-1
1012 11 m 1,14,-1
 35 11 l 1,15,-1
 35 53 l 1,16,-1
 512 795 l 1,17,-1
 512 753 l 1,18,-1
 669 757 l 1,19,-1
 704 715 l 1,20,-1
 704 694 l 1,21,-1
 445 179 l 1,22,-1
 463 158 l 1,23,-1
 785 158 l 1,24,-1
 1012 442 l 1,25,-1
 1047 411 l 1,26,-1
 1047 53 l 1,27,-1
 1012 11 l 1,14,-1
EndSplineSet
Validated: 5
EndChar

StartChar: Phi
Encoding: 934 934 464
Width: 1634
GlyphClass: 1
Flags: W
LayerCount: 2
Fore
SplineSet
567 1393 m 1,0,-1
 1021 1393 l 1,1,-1
 1059 1352 l 1,2,-1
 1059 1311 l 2,3,4
 1059 1270 1059 1270 965 1270 c 1,5,-1
 946 1250 l 1,6,-1
 946 1209 l 1,7,8
 1551 977 1551 977 1551 656 c 0,9,10
 1551 419 1551 419 946 205 c 1,11,-1
 946 143 l 1,12,13
 1059 143 1059 143 1059 102 c 2,14,-1
 1059 41 l 1,15,-1
 1021 0 l 1,16,-1
 549 0 l 1,17,-1
 511 41 l 1,18,-1
 511 102 l 1,19,-1
 549 143 l 1,20,-1
 643 143 l 1,21,-1
 643 205 l 1,22,23
 0 348 0 348 0 799 c 1,24,25
 29 1127 29 1127 265 1127 c 2,26,-1
 340 1127 l 1,27,28
 511 1100 511 1100 511 942 c 2,29,-1
 511 922 l 2,30,31
 511 809 511 809 397 737 c 1,32,-1
 359 737 l 1,33,-1
 189 901 l 1,34,-1
 151 778 l 1,35,-1
 151 656 l 1,36,37
 270 389 270 389 511 389 c 1,38,39
 511 348 511 348 605 348 c 1,40,-1
 662 410 l 1,41,-1
 662 553 l 2,42,43
 662 586 662 586 511 635 c 1,44,-1
 511 656 l 2,45,46
 511 717 511 717 643 717 c 1,47,-1
 662 819 l 1,48,-1
 662 1209 l 2,49,50
 662 1258 662 1258 511 1291 c 1,51,-1
 511 1332 l 1,52,-1
 567 1393 l 1,0,-1
946 983 m 1,53,-1
 927 799 l 1,54,55
 927 709 927 709 1059 697 c 1,56,-1
 1059 656 l 1,57,-1
 946 574 l 1,58,-1
 927 451 l 1,59,-1
 946 389 l 1,60,-1
 1040 389 l 1,61,62
 1248 487 1248 487 1248 676 c 1,63,64
 1177 860 1177 860 946 983 c 1,53,-1
EndSplineSet
Validated: 1
EndChar

StartChar: Psi
Encoding: 936 936 466
Width: 1462
GlyphClass: 1
Flags: W
LayerCount: 2
Fore
SplineSet
575 1397 m 2,0,-1
 927 1397 l 1,1,-1
 983 1338 l 1,2,3
 890 1253 890 1253 890 1181 c 2,4,-1
 890 866 l 1,5,-1
 945 807 l 1,6,-1
 983 807 l 1,7,-1
 1020 846 l 1,8,9
 978 898 978 898 964 1043 c 1,10,11
 1019 1259 1019 1259 1224 1259 c 0,12,13
 1321 1259 1321 1259 1409 1122 c 1,14,-1
 1409 1043 l 1,15,16
 1380 954 1380 954 1224 866 c 1,17,-1
 1224 846 l 1,18,19
 1446 733 1446 733 1446 590 c 2,20,-1
 1446 453 l 1,21,22
 1321 216 1321 216 1112 216 c 1,23,-1
 1020 177 l 1,24,-1
 1038 157 l 1,25,-1
 1038 59 l 1,26,27
 1020 0 1020 0 927 0 c 2,28,-1
 482 0 l 1,29,-1
 426 59 l 1,30,-1
 426 197 l 1,31,32
 0 256 0 256 0 551 c 0,33,34
 0 708 0 708 222 846 c 1,35,-1
 222 905 l 1,36,37
 116 905 116 905 56 1023 c 1,38,-1
 56 1141 l 1,39,40
 120 1259 120 1259 241 1259 c 0,41,42
 390 1259 390 1259 482 1102 c 1,43,-1
 482 964 l 1,44,-1
 445 826 l 1,45,-1
 463 807 l 1,46,-1
 501 807 l 1,47,-1
 556 866 l 1,48,-1
 556 1240 l 1,49,-1
 463 1338 l 1,50,51
 482 1397 482 1397 575 1397 c 2,0,-1
371 708 m 1,52,-1
 334 610 l 1,53,-1
 334 551 l 2,54,55
 334 433 334 433 501 334 c 1,56,-1
 519 334 l 1,57,-1
 556 374 l 1,58,-1
 556 610 l 2,59,60
 556 646 556 646 389 708 c 1,61,-1
 371 708 l 1,52,-1
890 610 m 2,62,-1
 890 433 l 1,63,-1
 908 334 l 1,64,-1
 945 334 l 1,65,66
 1131 433 1131 433 1131 571 c 1,67,68
 1087 708 1087 708 1057 708 c 1,69,70
 890 646 890 646 890 610 c 2,62,-1
EndSplineSet
Validated: 1
EndChar

StartChar: uni03A9
Encoding: 937 937 467
Width: 1401
GlyphClass: 1
Flags: W
LayerCount: 2
Fore
SplineSet
4 41 m 1,0,-1
 4 62 l 1,1,2
 21 115 21 115 186 247 c 1,3,4
 72 541 72 541 40 762 c 1,5,-1
 40 927 l 1,6,7
 242 1401 242 1401 460 1401 c 1,8,9
 715 1482 715 1482 939 1380 c 1,10,11
 1341 1150 1341 1150 1341 886 c 2,12,-1
 1341 762 l 2,13,14
 1341 613 1341 613 1195 288 c 1,15,-1
 1195 247 l 1,16,-1
 1377 62 l 1,17,-1
 1322 0 l 1,18,-1
 921 0 l 1,19,-1
 903 21 l 1,20,21
 1030 587 1030 587 1030 721 c 0,22,23
 1030 1166 1030 1166 830 1236 c 1,24,25
 701 1321 701 1321 570 1236 c 1,26,27
 396 1236 396 1236 351 701 c 1,28,29
 387 344 387 344 478 62 c 1,30,31
 478 0 478 0 442 0 c 2,32,-1
 40 0 l 1,33,-1
 4 41 l 1,0,-1
EndSplineSet
Validated: 33
EndChar

StartChar: Iotadieresis
Encoding: 938 938 468
Width: 823
GlyphClass: 1
Flags: W
LayerCount: 2
Fore
SplineSet
78 1397 m 1,0,-1
 706 1397 l 1,1,-1
 758 1356 l 1,2,-1
 758 1315 l 2,3,4
 758 1280 758 1280 601 1253 c 1,5,-1
 575 1150 l 1,6,-1
 575 822 l 2,7,8
 575 699 575 699 758 699 c 1,9,-1
 758 657 l 1,10,-1
 601 575 l 1,11,12
 575 144 575 144 680 144 c 0,13,14
 758 144 758 144 758 103 c 2,15,-1
 758 41 l 1,16,-1
 706 0 l 1,17,-1
 52 0 l 1,18,-1
 0 41 l 1,19,-1
 0 103 l 1,20,-1
 52 144 l 1,21,-1
 183 144 l 1,22,-1
 221 353 l 1,23,24
 209 587 209 587 0 637 c 1,25,-1
 0 657 l 2,26,27
 0 719 0 719 183 719 c 1,28,-1
 209 822 l 1,29,-1
 209 1212 l 2,30,31
 209 1261 209 1261 0 1294 c 1,32,-1
 0 1335 l 1,33,-1
 78 1397 l 1,0,-1
585 1636 m 2,34,-1
 547 1636 l 2,35,36
 414 1636 414 1636 414 1523 c 0,37,38
 414 1428 414 1428 547 1428 c 2,39,-1
 630 1428 l 1,40,-1
 719 1504 l 1,41,-1
 719 1523 l 2,42,43
 719 1636 719 1636 585 1636 c 2,34,-1
233 1640 m 2,44,-1
 195 1640 l 2,45,46
 62 1640 62 1640 62 1527 c 0,47,48
 62 1432 62 1432 195 1432 c 2,49,-1
 278 1432 l 1,50,-1
 367 1508 l 1,51,-1
 367 1527 l 2,52,53
 367 1640 367 1640 233 1640 c 2,44,-1
EndSplineSet
Validated: 41
EndChar

StartChar: alpha
Encoding: 945 945 475
Width: 1089
GlyphClass: 1
Flags: W
LayerCount: 2
Fore
SplineSet
957.5 1031.5 m 128,-1,1
 1038 961 1038 961 1038 874 c 128,-1,2
 1038 787 1038 787 986.5 740 c 128,-1,3
 935 693 935 693 858 693 c 128,-1,4
 781 693 781 693 747 724 c 128,-1,5
 713 755 713 755 713 779 c 128,-1,6
 713 803 713 803 747 897 c 1,7,-1
 730 944 l 1,8,9
 668 944 668 944 628 866 c 1,10,-1
 628 299 l 2,11,12
 628 213 628 213 713 173 c 1,13,-1
 781 173 l 1,14,-1
 781 189 l 1,15,-1
 713 283 l 1,16,-1
 713 331 l 1,17,18
 735 382 735 382 867 425 c 1,19,20
 1033 425 1033 425 1089 299 c 1,21,22
 1048 0 1048 0 815 0 c 2,23,-1
 798 0 l 2,24,25
 720 0 720 0 593 94 c 1,26,-1
 559 94 l 1,27,-1
 371 0 l 1,28,29
 239 31 239 31 119.5 120.5 c 128,-1,30
 0 210 0 210 53 656 c 128,-1,31
 106 1102 106 1102 661 1102 c 0,32,0
 877 1102 877 1102 957.5 1031.5 c 128,-1,1
456 835 m 1,33,-1
 439 819 l 1,34,35
 193 784 193 784 234 378 c 1,36,37
 234 194 234 194 336 142 c 1,38,-1
 371 142 l 2,39,40
 429 142 429 142 473 315 c 1,41,-1
 473 835 l 1,42,-1
 456 835 l 1,33,-1
EndSplineSet
Validated: 33
EndChar

StartChar: beta
Encoding: 946 946 476
Width: 962
GlyphClass: 1
Flags: W
LayerCount: 2
Fore
SplineSet
401 1296 m 2,0,-1
 499 1296 l 1,1,2
 868 1214 868 1214 868 1018 c 0,3,4
 868 901 868 901 696 741 c 1,5,-1
 696 694 l 1,6,7
 799 694 799 694 942 417 c 1,8,9
 929 280 929 280 794 139 c 1,10,-1
 678 0 l 1,11,-1
 47 -5 l 1,12,-1
 31 903 l 1,13,14
 93 1296 93 1296 401 1296 c 2,0,-1
302 972 m 2,15,-1
 302 856 l 1,16,-1
 351 787 l 1,17,18
 573 833 573 833 573 995 c 2,19,-1
 573 1041 l 1,20,-1
 474 1134 l 1,21,22
 302 1104 302 1104 302 972 c 2,15,-1
351 625 m 1,23,-1
 351 162 l 1,24,-1
 376 162 l 1,25,26
 647 214 647 214 647 440 c 1,27,28
 587 625 587 625 401 625 c 2,29,-1
 351 625 l 1,23,-1
52 832 m 1,30,-1
 211 832 l 1,31,32
 301 799 301 799 301 689 c 2,33,-1
 301 -122 l 1,34,-1
 324 -143 l 1,35,36
 392 -143 392 -143 392 -184 c 1,37,38
 342 -291 342 -291 188 -327 c 1,39,40
 52 -279 52 -279 52 -245 c 2,41,-1
 52 566 l 1,42,-1
 97 574 l 1,43,-1
 52 832 l 1,30,-1
EndSplineSet
Validated: 5
EndChar

StartChar: gamma
Encoding: 947 947 477
Width: 1108
GlyphClass: 1
Flags: W
LayerCount: 2
Fore
SplineSet
362 132 m 1,1,-1
 362 197 l 2,2,3
 362 301 362 301 8 895 c 1,4,-1
 8 993 l 1,5,-1
 38 1025 l 1,6,-1
 318 1025 l 2,7,8
 392 1025 392 1025 407 976 c 1,9,-1
 407 911 l 1,10,-1
 377 879 l 1,11,-1
 185 879 l 1,12,13
 248 685 248 685 407 408 c 1,14,15
 430 408 430 408 643 847 c 1,16,17
 643 1025 643 1025 746 1025 c 2,18,-1
 1055 1025 l 1,19,-1
 1100 976 l 1,20,-1
 1100 911 l 2,21,22
 1100 879 1100 879 997 879 c 0,23,24
 883 879 883 879 746 522 c 1,25,26
 469 -413 469 -413 381 -368.5 c 128,-1,0
 293 -324 293 -324 362 132 c 1,1,-1
EndSplineSet
Validated: 33
EndChar

StartChar: delta
Encoding: 948 948 478
Width: 973
GlyphClass: 1
Flags: W
LayerCount: 2
Fore
SplineSet
944 1304 m 1,0,-1
 944 1263 l 1,1,2
 799 1035 799 1035 679 1035 c 2,3,-1
 315 1035 l 1,4,5
 237 989 237 989 199 890 c 1,6,-1
 199 807 l 1,7,-1
 331 849 l 1,8,-1
 381 849 l 2,9,10
 601 849 601 849 613 435 c 1,11,12
 613 141 613 141 431 41 c 1,13,-1
 315 0 l 1,14,15
 52 0 52 0 0 580 c 1,16,17
 0 962 0 962 315 1242 c 1,18,-1
 414 1263 l 1,19,-1
 745 1242 l 1,20,-1
 944 1304 l 1,0,-1
318 687 m 2,22,-1
 302 687 l 1,23,-1
 236 604 l 1,24,-1
 236 294 l 2,25,26
 236 170 236 170 318 170 c 0,27,28
 418 170 418 170 418 294 c 2,29,-1
 418 563 l 2,30,21
 418 687 418 687 318 687 c 2,22,-1
EndSplineSet
Validated: 1
EndChar

StartChar: epsilon
Encoding: 949 949 479
Width: 793
GlyphClass: 1
Flags: W
LayerCount: 2
Fore
SplineSet
417 588 m 1,0,1
 632 588 632 588 653 505 c 1,2,-1
 450 511 l 1,3,-1
 384 511 l 1,4,-1
 304 452 l 1,5,-1
 304 137 l 1,6,7
 323 43 323 43 429 43 c 1,8,9
 531 71 531 71 622.5 132 c 128,-1,10
 714 193 714 193 756 154 c 1,11,12
 685 34 685 34 496 -17 c 1,13,-1
 349 -17 l 2,14,15
 193 -17 193 -17 68 170 c 1,16,-1
 45 247 l 1,17,-1
 45 316 l 2,18,19
 45 493 45 493 338 580 c 1,20,-1
 417 588 l 1,0,1
338 441 m 1,21,22
 45 534 45 534 45 723 c 2,23,-1
 45 797 l 1,24,-1
 68 879 l 1,25,26
 193 1079 193 1079 349 1079 c 2,27,-1
 496 1079 l 1,28,29
 685 1025 685 1025 756 896 c 1,30,31
 714 854 714 854 587 815 c 1,32,-1
 564 815 l 2,33,34
 537 815 537 815 531 888 c 1,35,36
 531 984 531 984 429 1015 c 1,37,38
 323 1015 323 1015 304 915 c 1,39,-1
 304 578 l 1,40,-1
 384 514 l 1,41,-1
 450 514 l 1,42,-1
 653 522 l 1,43,44
 632 432 632 432 417 432 c 1,45,-1
 338 441 l 1,21,22
EndSplineSet
Validated: 37
EndChar

StartChar: zeta
Encoding: 950 950 480
Width: 827
GlyphClass: 1
Flags: W
LayerCount: 2
Fore
SplineSet
31 1199 m 1,0,-1
 671 1199 l 1,1,-1
 703 1157 l 1,2,-1
 399 515 l 1,3,4
 299 336 299 336 342 142 c 0,5,6
 358 79 358 79 438 79 c 2,7,-1
 694 79 l 1,8,9
 806 26 806 26 806 -89 c 0,10,11
 806 -228 806 -228 630 -257 c 1,12,13
 534 -236 534 -236 534 -194 c 2,14,-1
 534 -131 l 1,15,-1
 550 -110 l 1,16,-1
 550 -89 l 1,17,18
 516 -51 516 -51 182 -26 c 1,19,-1
 118 79 l 1,20,21
 207 681 207 681 415 1010 c 1,22,-1
 415 1052 l 1,23,-1
 175 1052 l 2,24,25
 143 1052 143 1052 143 968 c 1,26,-1
 127 947 l 1,27,-1
 111 947 l 2,28,29
 84 950 84 950 -1 1136 c 1,30,-1
 -1 1157 l 1,31,-1
 31 1199 l 1,0,-1
EndSplineSet
Validated: 33
EndChar

StartChar: eta
Encoding: 951 951 481
Width: 997
GlyphClass: 1
Flags: W
LayerCount: 2
Fore
SplineSet
317 878 m 1,1,-1
 317 594 l 1,2,-1
 385 594 l 1,3,4
 435 751 435 751 612 840 c 1,5,-1
 771 840 l 1,6,7
 861 807 861 807 861 697 c 2,8,-1
 861 -114 l 1,9,-1
 884 -135 l 1,10,11
 952 -135 952 -135 952 -176 c 1,12,13
 902 -283 902 -283 748 -319 c 1,14,15
 612 -271 612 -271 612 -237 c 2,16,-1
 612 574 l 1,17,-1
 544 574 l 1,18,-1
 317 205 l 1,19,-1
 317 41 l 1,20,-1
 272 0 l 1,21,-1
 113 0 l 1,22,-1
 68 41 l 1,23,-1
 68 755 l 1,24,-1
 0 776 l 1,25,26
 0 933 0 933 204 960 c 1,27,0
 307 920 307 920 317 878 c 1,1,-1
EndSplineSet
Validated: 1
EndChar

StartChar: uni03BC
Encoding: 956 956 486
Width: 1114
GlyphClass: 1
Flags: W
LayerCount: 2
Fore
SplineSet
139 1053 m 2,0,-1
 331 1053 l 1,1,2
 436 1044 436 1044 436 1008 c 2,3,-1
 436 286 l 2,4,5
 436 196 436 196 540 150 c 1,6,7
 662 177 662 177 662 286 c 2,8,-1
 662 918 l 1,9,-1
 592 993 l 1,10,-1
 592 1008 l 2,11,12
 592 1053 592 1053 784 1053 c 2,13,-1
 889 1053 l 1,14,15
 993 1044 993 1044 993 1008 c 2,16,-1
 993 286 l 2,17,18
 993 257 993 257 1133 196 c 1,19,-1
 1150 181 l 1,20,-1
 1150 120 l 2,21,22
 1150 75 1150 75 1080 75 c 0,23,24
 1015 75 1015 75 819 196 c 1,25,26
 708 0 708 0 540 0 c 0,27,28
 410 0 410 0 279 196 c 1,29,-1
 280 -273 l 1,30,-1
 48 -281 l 1,31,-1
 -4 -236 l 1,32,-1
 -4 -206 l 1,33,34
 101 -115 101 -115 101 -56 c 2,35,-1
 105 918 l 2,36,37
 105 948 105 948 52 948 c 1,38,-1
 35 963 l 1,39,-1
 35 1008 l 1,40,41
 52 1053 52 1053 139 1053 c 2,0,-1
EndSplineSet
Validated: 1
EndChar

StartChar: nu
Encoding: 957 957 487
Width: 900
GlyphClass: 1
Flags: W
LayerCount: 2
Fore
SplineSet
93 984 m 2,0,-1
 262 984 l 1,1,2
 354 974 354 974 354 939 c 2,3,-1
 354 221 l 2,4,5
 354 132 354 132 459 18 c 1,6,7
 555 113 555 113 555 221 c 2,8,-1
 555 849 l 1,9,-1
 494 924 l 1,10,-1
 494 939 l 2,11,12
 494 984 494 984 663 984 c 2,13,-1
 755 984 l 1,14,15
 848 974 848 974 848 939 c 1,16,-1
 694 132 l 1,17,18
 596 -63 596 -63 463 -164 c 1,19,20
 332 -63 332 -63 216 132 c 1,21,-1
 62 849 l 1,22,23
 62 879 62 879 15 879 c 1,24,-1
 0 894 l 1,25,-1
 0 939 l 1,26,27
 15 984 15 984 93 984 c 2,0,-1
EndSplineSet
Validated: 1
EndChar

StartChar: xi
Encoding: 958 958 488
Width: 789
GlyphClass: 1
Flags: W
LayerCount: 2
Fore
SplineSet
437 609 m 1,1,-1
 340 596 l 1,2,3
 179 500 179 500 177 265 c 1,4,5
 231 10 231 10 437 34 c 1,6,-1
 729 34 l 1,7,8
 810 -54 810 -54 833 -174 c 1,9,10
 833 -227 833 -227 812 -227 c 2,11,-1
 614 -227 l 1,12,13
 584 -70 584 -70 489 -70 c 2,14,-1
 479 -70 l 1,15,-1
 281 -87 l 1,16,17
 62 90 62 90 62 313 c 2,18,-1
 62 330 l 2,19,20
 62 643 62 643 395 731 c 1,21,-1
 460 738 l 1,22,-1
 492 754 l 1,23,0
 503 591 503 591 437 609 c 1,1,-1
285 687 m 1,24,25
 91 763 91 763 91 917 c 2,26,-1
 91 977 l 1,27,-1
 106 1044 l 1,28,29
 189 1207 189 1207 292 1207 c 2,30,-1
 389 1207 l 1,31,32
 514 1163 514 1163 561 1058 c 1,33,34
 533 1024 533 1024 449 992 c 1,35,-1
 434 992 l 2,36,37
 416 992 416 992 412 1051 c 1,38,39
 412 1130 412 1130 345 1155 c 1,40,41
 275 1155 275 1155 262 1073 c 1,42,-1
 262 799 l 1,43,-1
 315 747 l 1,44,-1
 359 747 l 1,45,-1
 493 753 l 1,46,47
 479 680 479 680 337 680 c 1,48,-1
 285 687 l 1,24,25
EndSplineSet
Validated: 37
EndChar

StartChar: rho
Encoding: 961 961 491
Width: 633
GlyphClass: 1
Flags: W
LayerCount: 2
Fore
SplineSet
8 -265 m 1,0,-1
 8 562 l 1,1,2
 60 1142 60 1142 323 1142 c 1,3,-1
 439 1101 l 1,4,5
 621 1001 621 1001 621 707 c 1,6,7
 609 293 609 293 389 293 c 2,8,-1
 339 293 l 1,9,-1
 207 335 l 1,10,-1
 207 -265 l 1,11,-1
 8 -265 l 1,0,-1
426 579 m 2,12,-1
 426 848 l 2,13,14
 426 972 426 972 326 972 c 0,15,16
 244 972 244 972 244 848 c 2,17,-1
 244 538 l 1,18,-1
 310 455 l 1,19,-1
 326 455 l 2,20,21
 426 455 426 455 426 579 c 2,12,-1
EndSplineSet
Validated: 1
EndChar

StartChar: sigma1
Encoding: 962 962 492
Width: 1159
GlyphClass: 1
Flags: W
LayerCount: 2
Fore
SplineSet
89 192 m 1,1,2
 132 308 132 308 218 308 c 0,3,4
 347 308 347 308 379 162 c 1,5,-1
 379 90 l 1,6,-1
 412 90 l 2,7,8
 525 90 525 90 574 192 c 1,9,10
 574 271 574 271 460 337 c 1,11,12
 8 403 8 403 8 599 c 1,13,-1
 40 716 l 1,14,15
 223 963 223 963 428 963 c 2,16,-1
 670 963 l 1,17,-1
 783 934 l 1,18,19
 1122 745 1122 745 1122 629 c 2,20,-1
 1122 570 l 2,21,22
 1122 530 1122 530 961 512 c 1,23,-1
 864 512 l 1,24,-1
 832 657 l 1,25,26
 832 836 832 836 509 876 c 1,27,28
 250 818 250 818 250 687 c 0,29,30
 250 638 250 638 298 584 c 1,31,32
 815 440 815 440 815 323 c 1,33,34
 718 -12 718 -12 476 -12 c 2,35,-1
 315 -12 l 2,36,0
 141 -12 141 -12 89 192 c 1,1,2
EndSplineSet
Validated: 1
EndChar

StartChar: sigma
Encoding: 963 963 493
Width: 957
GlyphClass: 1
Flags: W
LayerCount: 2
Fore
SplineSet
1042 1045 m 1,0,-1
 1042 1004 l 1,1,2
 874 776 874 776 734 776 c 2,3,-1
 312 776 l 1,4,5
 221 730 221 730 177 631 c 1,6,-1
 232 807 l 1,7,-1
 386 849 l 1,8,-1
 444 849 l 2,9,10
 700 849 700 849 713 435 c 1,11,12
 713 141 713 141 502 41 c 1,13,-1
 367 0 l 1,14,15
 62 0 62 0 1 580 c 1,16,17
 -8 747 -8 747 62.5 848.5 c 128,-1,18
 133 950 133 950 427 1004 c 1,19,-1
 811 983 l 1,20,-1
 1042 1045 l 1,0,-1
371 687 m 2,22,-1
 352 687 l 1,23,-1
 275 604 l 1,24,-1
 275 294 l 2,25,26
 275 170 275 170 371 170 c 0,27,28
 487 170 487 170 487 294 c 2,29,-1
 487 563 l 2,30,21
 487 687 487 687 371 687 c 2,22,-1
EndSplineSet
Validated: 37
EndChar

StartChar: tau
Encoding: 964 964 494
Width: 1203
GlyphClass: 1
Flags: W
LayerCount: 2
Fore
SplineSet
64 1033 m 1,0,-1
 1128 1033 l 1,1,-1
 1171 983 l 1,2,-1
 1171 907 l 1,3,-1
 1128 857 l 1,4,-1
 916 857 l 1,5,-1
 873 806 l 1,6,-1
 873 176 l 2,7,8
 873 41 873 41 788 0 c 1,9,-1
 681 0 l 1,10,11
 532 81 532 81 532 227 c 1,12,-1
 617 302 l 1,13,-1
 617 806 l 1,14,-1
 575 857 l 1,15,-1
 405 857 l 1,16,-1
 405 731 l 1,17,-1
 362 680 l 1,18,19
 55 840 55 840 0 957 c 1,20,-1
 64 1033 l 1,0,-1
EndSplineSet
Validated: 1
EndChar

StartChar: upsilon
Encoding: 965 965 495
Width: 1025
GlyphClass: 1
Flags: W
LayerCount: 2
Fore
SplineSet
0 517 m 1,0,1
 0 833 0 833 277 998 c 1,2,-1
 291 998 l 1,3,-1
 374 733 l 1,4,5
 374 709 374 709 194 666 c 1,6,-1
 125 566 l 1,7,-1
 208 340 l 1,8,-1
 402 134 l 1,9,-1
 651 133 l 1,10,11
 886 378 886 378 886 533 c 1,12,13
 840 683 840 683 692 683 c 1,14,15
 582 693 582 693 582 733 c 2,16,-1
 582 766 l 1,17,18
 643 952 643 952 706 1015 c 1,19,20
 902 911 902 911 984 633 c 1,21,-1
 984 417 l 2,22,23
 984 189 984 189 679 2 c 1,24,-1
 554 -31 l 1,25,-1
 443 -31 l 2,26,27
 156 -31 156 -31 14 401 c 1,28,-1
 0 517 l 1,0,1
EndSplineSet
Validated: 1
EndChar

StartChar: phi
Encoding: 966 966 496
Width: 1328
GlyphClass: 1
Flags: W
LayerCount: 2
Fore
SplineSet
445 1284 m 1,0,-1
 705 1284 l 1,1,-1
 748 1242 l 1,2,-1
 748 1073 l 1,3,-1
 943 1073 l 1,4,5
 1215 1021 1215 1021 1268 757 c 1,6,-1
 1268 714 l 2,7,8
 1268 469 1268 469 857 250 c 1,9,10
 742 250 742 250 727 -23 c 1,11,-1
 618 -45 l 1,12,13
 558 -45 558 -45 532 166 c 1,14,15
 86 166 86 166 12 862 c 1,16,17
 105 1031 105 1031 229 1031 c 1,18,19
 353 989 353 989 402 883 c 1,20,-1
 402 799 l 1,21,-1
 315 736 l 1,22,-1
 185 820 l 1,23,-1
 164 799 l 1,24,-1
 142 799 l 1,25,26
 239 356 239 356 510 356 c 2,27,-1
 532 356 l 1,28,-1
 553 440 l 1,29,-1
 423 588 l 1,30,-1
 423 609 l 1,31,32
 553 714 553 714 553 799 c 2,33,-1
 553 1052 l 2,34,35
 553 1179 553 1179 402 1179 c 1,36,-1
 380 1200 l 1,37,-1
 380 1221 l 1,38,-1
 445 1284 l 1,0,-1
748 883 m 1,39,-1
 748 714 l 2,40,41
 748 672 748 672 857 672 c 1,42,-1
 878 651 l 1,43,-1
 878 588 l 2,44,45
 878 546 878 546 748 503 c 1,46,-1
 748 419 l 1,47,48
 928 419 928 419 1008 736 c 1,49,50
 1008 850 1008 850 813 904 c 1,51,-1
 748 883 l 1,39,-1
EndSplineSet
Validated: 1
EndChar

StartChar: chi
Encoding: 967 967 497
Width: 1231
GlyphClass: 1
Flags: W
LayerCount: 2
Fore
SplineSet
993 1037 m 2,0,-1
 1089 1037 l 2,1,2
 1171 1037 1171 1037 1227 949 c 1,3,-1
 1227 906 l 1,4,5
 1189 833 1189 833 1034 745 c 1,6,-1
 869 774 l 1,7,8
 744 774 744 774 744 555 c 1,9,10
 783 434 783 434 1144 59 c 1,11,-1
 1144 44 l 1,12,-1
 1103 0 l 1,13,-1
 855 0 l 1,14,15
 758 75 758 75 620 321 c 1,16,-1
 607 336 l 1,17,-1
 593 336 l 1,18,19
 458 0 458 0 290 0 c 2,20,-1
 248 0 l 2,21,22
 96 0 96 0 28 117 c 1,23,-1
 28 160 l 1,24,-1
 193 336 l 1,25,-1
 207 336 l 2,26,27
 229 336 229 336 290 219 c 1,28,-1
 372 219 l 1,29,30
 446 249 446 249 524 482 c 1,31,32
 375 891 375 891 166 891 c 1,33,-1
 152 877 l 1,34,-1
 152 847 l 1,35,36
 224 847 224 847 290 745 c 1,37,-1
 290 672 l 1,38,39
 217 569 217 569 166 569 c 1,40,41
 0 633 0 633 0 745 c 2,42,-1
 0 818 l 2,43,44
 0 864 0 864 179 1008 c 1,45,-1
 317 1008 l 2,46,47
 461 1008 461 1008 593 745 c 1,48,-1
 634 730 l 1,49,50
 855 1037 855 1037 993 1037 c 2,0,-1
EndSplineSet
Validated: 1
EndChar

StartChar: psi
Encoding: 968 968 498
Width: 1284
GlyphClass: 1
Flags: W
LayerCount: 2
Fore
SplineSet
448 1187 m 1,0,-1
 699 1187 l 1,1,-1
 735 1149 l 1,2,-1
 735 772 l 2,3,4
 735 728 735 728 878 716 c 1,5,6
 878 999 878 999 1057 999 c 2,7,-1
 1147 999 l 1,8,9
 1272 920 1272 920 1272 886 c 2,10,-1
 1272 772 l 1,11,12
 1243 678 1243 678 1057 603 c 1,13,14
 1057 226 1057 226 770 226 c 1,15,16
 735 197 735 197 735 19 c 1,17,-1
 717 0 l 1,18,-1
 591 0 l 1,19,-1
 537 57 l 1,20,-1
 537 207 l 1,21,22
 233 207 233 207 233 622 c 1,23,24
 91 622 91 622 0 791 c 1,25,-1
 0 810 l 2,26,27
 0 921 0 921 143 999 c 1,28,-1
 269 999 l 1,29,30
 412 930 412 930 412 754 c 2,31,-1
 412 716 l 1,32,-1
 537 735 l 1,33,-1
 537 1055 l 1,34,35
 423 1055 423 1055 412 1112 c 1,36,-1
 412 1149 l 1,37,-1
 448 1187 l 1,0,-1
412 565 m 1,38,-1
 412 471 l 1,39,40
 423 358 423 358 466 358 c 2,41,-1
 537 358 l 1,42,-1
 537 546 l 1,43,-1
 448 565 l 1,44,-1
 412 565 l 1,38,-1
735 528 m 1,45,-1
 752 509 l 1,46,-1
 752 358 l 1,47,-1
 806 358 l 1,48,49
 878 377 878 377 878 565 c 1,50,-1
 788 565 l 1,51,-1
 735 528 l 1,45,-1
EndSplineSet
Validated: 1
EndChar

StartChar: omega
Encoding: 969 969 499
Width: 1222
GlyphClass: 1
Flags: W
LayerCount: 2
Fore
SplineSet
336 981 m 1,0,1
 365 981 365 981 365 937 c 1,2,3
 292 740 292 740 263 490 c 1,4,5
 299 115 299 115 438 115 c 1,6,7
 517 144 517 144 526 187 c 1,8,-1
 424 490 l 1,9,-1
 424 606 l 1,10,11
 490 911 490 911 570 952 c 1,12,-1
 613 952 l 1,13,14
 789 823 789 823 789 620 c 2,15,-1
 789 433 l 1,16,-1
 701 173 l 1,17,18
 730 115 730 115 789 115 c 1,19,20
 949 165 949 165 949 476 c 0,21,22
 949 570 949 570 847 966 c 1,23,-1
 862 981 l 1,24,25
 988 941 988 941 1077 779 c 0,26,27
 1197 552 1197 552 1197 447 c 2,28,-1
 1197 361 l 2,29,30
 1197 175 1197 175 876 14 c 1,31,-1
 745 14 l 1,32,-1
 643 72 l 1,33,-1
 584 72 l 1,34,35
 467 0 467 0 351 0 c 0,36,37
 176 0 176 0 15 332 c 1,38,-1
 15 447 l 1,39,40
 40 602 40 602 132 808 c 1,41,42
 217 956 217 956 336 981 c 1,0,1
EndSplineSet
Validated: 1
EndChar

StartChar: uni03E2
Encoding: 994 994 505
Width: 1155
GlyphClass: 1
Flags: W
LayerCount: 2
Fore
SplineSet
0 1397 m 1,0,-1
 278 1397 l 1,1,-1
 305 1367 l 1,2,-1
 305 1338 l 1,3,-1
 225 966 l 1,4,-1
 225 758 l 2,5,6
 225 539 225 539 385 505 c 1,7,8
 467 535 467 535 477 580 c 1,9,-1
 477 609 l 1,10,11
 371 791 371 791 371 907 c 2,12,-1
 371 1070 l 1,13,14
 404 1241 404 1241 517 1367 c 1,15,-1
 544 1367 l 1,16,17
 703 1181 703 1181 703 996 c 2,18,-1
 703 951 l 2,19,20
 703 823 703 823 583 594 c 1,21,22
 614 505 614 505 689 505 c 0,23,24
 828 505 828 505 849 862 c 1,25,26
 849 955 849 955 756 1382 c 1,27,-1
 769 1397 l 1,28,-1
 1047 1397 l 1,29,-1
 1074 1367 l 1,30,31
 941 1259 941 1259 941 1219 c 1,32,33
 1085 928 1085 928 1100 743 c 1,34,-1
 1100 490 l 2,35,36
 1100 317 1100 317 888 119 c 1,37,-1
 742 59 l 1,38,-1
 676 59 l 2,39,40
 551 59 551 59 331 238 c 1,41,-1
 278 253 l 1,42,-1
 265 238 l 1,43,-1
 265 223 l 1,44,45
 318 223 318 223 318 104 c 1,46,47
 279 0 279 0 199 0 c 2,48,-1
 186 0 l 1,49,50
 80 64 80 64 80 163 c 2,51,-1
 80 223 l 1,52,53
 192 372 192 372 265 372 c 1,54,-1
 265 386 l 1,55,-1
 106 505 l 1,56,57
 27 691 27 691 27 773 c 2,58,-1
 27 951 l 1,59,-1
 119 1234 l 1,60,61
 119 1278 119 1278 80 1278 c 1,62,-1
 0 1367 l 1,63,-1
 0 1397 l 1,0,-1
716 386 m 1,64,65
 597 425 597 425 544 476 c 1,66,-1
 517 476 l 1,67,-1
 398 386 l 1,68,-1
 650 238 l 1,69,-1
 769 208 l 1,70,71
 910 208 910 208 981 476 c 1,72,-1
 981 535 l 1,73,74
 856 386 856 386 716 386 c 1,64,65
EndSplineSet
Validated: 1
EndChar

StartChar: uni03E3
Encoding: 995 995 506
Width: 981
GlyphClass: 1
Flags: W
LayerCount: 2
Fore
SplineSet
143 981 m 1,0,1
 239 970 239 970 239 928 c 1,2,-1
 143 663 l 1,3,-1
 143 646 l 2,4,5
 143 497 143 497 287 415 c 1,6,7
 370 415 370 415 414 505 c 1,8,-1
 351 698 l 1,9,-1
 351 786 l 2,10,11
 351 910 351 910 478 981 c 1,12,13
 621 888 621 888 621 734 c 1,14,-1
 557 505 l 1,15,-1
 557 487 l 2,16,17
 557 440 557 440 669 415 c 1,18,19
 796 458 796 458 796 593 c 2,20,-1
 796 752 l 1,21,22
 717 871 717 871 717 928 c 1,23,-1
 781 981 l 1,24,-1
 812 981 l 1,25,26
 956 871 956 871 956 593 c 2,27,-1
 956 487 l 2,28,29
 956 9 956 9 573 9 c 0,30,31
 450 9 450 9 334 98 c 1,32,-1
 223 98 l 1,33,-1
 223 80 l 1,34,35
 270 80 270 80 303 9 c 1,36,-1
 303 -43 l 1,37,-1
 223 -131 l 1,38,-1
 175 -131 l 2,39,40
 83 -131 83 -131 32 -7 c 1,41,42
 32 180 32 180 255 274 c 1,43,-1
 255 310 l 1,44,45
 0 408 0 408 0 610 c 2,46,-1
 0 698 l 1,47,48
 77 981 77 981 143 981 c 1,0,1
398 310 m 1,49,-1
 398 292 l 1,50,-1
 685 222 l 1,51,52
 827 257 827 257 827 310 c 2,53,-1
 827 363 l 1,54,-1
 685 310 l 1,55,-1
 621 310 l 1,56,-1
 462 363 l 1,57,-1
 398 310 l 1,49,-1
EndSplineSet
Validated: 1
EndChar

StartChar: uni03E4
Encoding: 996 996 507
Width: 1276
GlyphClass: 1
Flags: W
LayerCount: 2
Fore
SplineSet
322 1405 m 0,0,1
 527 1405 527 1405 589 1265 c 1,2,-1
 589 1145 l 1,3,4
 517 1025 517 1025 404 1025 c 2,5,-1
 322 1025 l 1,6,7
 217 1125 217 1125 138 1125 c 1,8,-1
 97 1025 l 1,9,10
 243 685 243 685 445 685 c 2,11,-1
 486 685 l 2,12,13
 752 685 752 685 752 1005 c 2,14,-1
 752 1345 l 1,15,-1
 793 1385 l 1,16,-1
 1141 1385 l 1,17,-1
 1203 1325 l 1,18,-1
 1203 1305 l 1,19,-1
 1080 1225 l 1,20,-1
 1080 185 l 2,21,22
 1080 137 1080 137 1244 104 c 1,23,-1
 1244 44 l 1,24,-1
 1203 4 l 1,25,-1
 650 4 l 1,26,-1
 589 64 l 1,27,-1
 589 84 l 2,28,29
 589 131 589 131 732 144 c 1,30,-1
 752 285 l 1,31,-1
 752 525 l 1,32,-1
 732 625 l 1,33,-1
 466 565 l 1,34,35
 147 565 147 565 -5 905 c 1,36,-1
 -5 1165 l 1,37,38
 113 1405 113 1405 322 1405 c 0,0,1
EndSplineSet
Validated: 1
EndChar

StartChar: uni03E5
Encoding: 997 997 508
Width: 948
GlyphClass: 1
Flags: W
LayerCount: 2
Fore
SplineSet
292 1001 m 2,0,-1
 335 1001 l 2,1,2
 450 1001 450 1001 505 902 c 1,3,-1
 505 803 l 1,4,-1
 378 683 l 1,5,-1
 292 683 l 1,6,-1
 165 763 l 1,7,-1
 122 763 l 1,8,-1
 122 624 l 1,9,10
 241 404 241 404 399 404 c 0,11,12
 537 404 537 404 611 523 c 1,13,-1
 611 843 l 1,14,-1
 569 902 l 1,15,-1
 569 942 l 1,16,-1
 611 982 l 1,17,-1
 824 982 l 1,18,19
 888 962 888 962 888 862 c 2,20,-1
 888 -53 l 1,21,22
 973 -53 973 -53 973 -93 c 2,23,-1
 973 -133 l 1,24,-1
 931 -173 l 1,25,-1
 676 -173 l 1,26,27
 611 -152 611 -152 611 -53 c 2,28,-1
 611 325 l 1,29,-1
 590 325 l 1,30,-1
 399 285 l 1,31,32
 175 285 175 285 16 563 c 1,33,-1
 16 822 l 1,34,35
 106 1001 106 1001 292 1001 c 2,0,-1
EndSplineSet
Validated: 1
EndChar

StartChar: uni03E6
Encoding: 998 998 509
Width: 1243
GlyphClass: 1
Flags: W
LayerCount: 2
Fore
SplineSet
213 1405 m 2,0,-1
 427 1405 l 1,1,2
 526 1394 526 1394 526 1352 c 2,3,-1
 526 1001 l 1,4,-1
 559 966 l 1,5,-1
 673 966 l 1,6,7
 1199 878 1199 878 1199 562 c 2,8,-1
 1199 544 l 2,9,10
 1199 319 1199 319 855 141 c 1,11,-1
 542 158 l 1,12,-1
 526 158 l 2,13,14
 377 158 377 158 329 0 c 1,15,-1
 33 0 l 1,16,-1
 0 35 l 1,17,-1
 0 53 l 2,18,19
 0 169 0 169 147 263 c 1,20,-1
 608 263 l 1,21,22
 937 304 937 304 937 527 c 0,23,24
 937 669 937 669 740 808 c 1,25,-1
 608 843 l 1,26,27
 526 820 526 820 526 790 c 2,28,-1
 526 439 l 1,29,-1
 493 404 l 1,30,-1
 296 404 l 1,31,-1
 264 439 l 1,32,-1
 264 1229 l 2,33,34
 264 1274 264 1274 115 1300 c 1,35,-1
 115 1352 l 1,36,37
 131 1405 131 1405 213 1405 c 2,0,-1
EndSplineSet
Validated: 1
EndChar

StartChar: uni03E7
Encoding: 999 999 510
Width: 884
GlyphClass: 1
Flags: W
LayerCount: 2
Fore
SplineSet
359 1025 m 2,0,-1
 703 1025 l 1,1,-1
 739 986 l 1,2,-1
 739 931 l 2,3,4
 739 900 739 900 612 874 c 1,5,-1
 612 817 l 1,6,7
 847 640 847 640 847 498 c 2,8,-1
 847 384 l 1,9,10
 743 28 743 28 540 28 c 2,11,-1
 432 28 l 1,12,-1
 232 159 l 1,13,-1
 232 140 l 1,14,-1
 268 83 l 1,15,-1
 268 65 l 1,16,-1
 195 -10 l 1,17,-1
 123 -10 l 1,18,-1
 69 46 l 1,19,-1
 69 197 l 1,20,21
 149 329 149 329 268 329 c 1,22,-1
 594 234 l 1,23,24
 684 234 684 234 721 347 c 1,25,26
 659 610 659 610 522 610 c 1,27,28
 486 471 486 471 304 366 c 1,29,-1
 159 366 l 1,30,-1
 123 404 l 1,31,32
 123 625 123 625 432 799 c 1,33,-1
 432 856 l 2,34,35
 432 893 432 893 322 893 c 1,36,-1
 304 949 l 1,37,38
 331 1025 331 1025 359 1025 c 2,0,-1
250 460 m 1,39,-1
 286 460 l 1,40,41
 396 525 396 525 396 610 c 1,42,-1
 377 630 l 1,43,-1
 359 630 l 1,44,45
 250 563 250 563 250 460 c 1,39,-1
EndSplineSet
Validated: 1
EndChar

StartChar: uni03E8
Encoding: 1000 1000 511
Width: 1227
GlyphClass: 1
Flags: W
LayerCount: 2
Fore
SplineSet
337 1397 m 2,0,-1
 511 1397 l 2,1,2
 769 1397 769 1397 874 919 c 1,3,4
 874 753 874 753 320 545 c 1,5,6
 268 469 268 469 268 400 c 0,7,8
 268 211 268 211 545 130 c 1,9,10
 892 186 892 186 892 441 c 1,11,-1
 926 649 l 1,12,-1
 1030 649 l 1,13,14
 1204 623 1204 623 1204 566 c 2,15,-1
 1204 483 l 2,16,17
 1204 316 1204 316 840 46 c 1,18,-1
 718 5 l 1,19,-1
 459 5 l 2,20,21
 239 5 239 5 43 358 c 1,22,-1
 8 524 l 1,23,24
 8 804 8 804 493 898 c 1,25,26
 614 993 614 993 614 1106 c 1,27,28
 562 1252 562 1252 441 1252 c 2,29,-1
 407 1252 l 1,30,-1
 407 1148 l 1,31,32
 372 940 372 940 233 940 c 0,33,34
 141 940 141 940 95 1106 c 1,35,36
 151 1397 151 1397 337 1397 c 2,0,-1
EndSplineSet
Validated: 1
EndChar

StartChar: uni03E9
Encoding: 1001 1001 512
Width: 920
GlyphClass: 1
Flags: W
LayerCount: 2
Fore
SplineSet
352 1033 m 0,0,1
 557 1033 557 1033 667 730 c 1,2,-1
 667 627 l 1,3,4
 592 539 592 539 222 365 c 1,5,-1
 222 324 l 1,6,-1
 204 324 l 1,7,8
 204 142 204 142 445 122 c 1,9,10
 681 122 681 122 723 466 c 1,11,-1
 741 486 l 1,12,-1
 760 486 l 2,13,14
 908 486 908 486 908 264 c 1,15,16
 771 0 771 0 426 0 c 1,17,18
 0 64 0 64 0 425 c 0,19,20
 0 557 0 557 445 709 c 1,21,-1
 463 730 l 1,22,-1
 463 851 l 1,23,-1
 334 912 l 1,24,25
 281 689 281 689 222 689 c 2,26,-1
 148 689 l 1,27,28
 56 741 56 741 56 851 c 1,29,30
 145 1033 145 1033 352 1033 c 0,0,1
EndSplineSet
Validated: 1
EndChar

StartChar: uni03EA
Encoding: 1002 1002 513
Width: 1296
GlyphClass: 1
Flags: W
LayerCount: 2
Fore
SplineSet
240 1393 m 1,0,-1
 382 1393 l 2,1,2
 493 1393 493 1393 651 1059 c 1,3,-1
 820 1275 l 1,4,5
 891 1373 891 1373 1004 1373 c 0,6,7
 1230 1373 1230 1373 1230 1099 c 0,8,9
 1230 943 1230 943 1131 863 c 1,10,-1
 1032 863 l 1,11,12
 933 926 933 926 933 1040 c 1,13,-1
 990 1197 l 1,14,-1
 990 1216 l 1,15,-1
 948 1216 l 1,16,17
 735 1034 735 1034 735 883 c 1,18,19
 893 418 893 418 1103 137 c 1,20,-1
 1230 137 l 2,21,22
 1263 137 1263 137 1273 39 c 1,23,-1
 1230 0 l 1,24,-1
 42 0 l 1,25,-1
 0 59 l 1,26,-1
 0 78 l 2,27,28
 0 137 0 137 127 137 c 1,29,30
 495 696 495 696 495 785 c 2,31,-1
 495 844 l 1,32,33
 317 1256 317 1256 269 1256 c 2,34,-1
 212 1256 l 1,35,-1
 212 1236 l 1,36,37
 256 1236 256 1236 311 1118 c 1,38,-1
 311 961 l 1,39,-1
 240 863 l 1,40,-1
 170 863 l 2,41,42
 52 863 52 863 28 1079 c 1,43,44
 28 1310 28 1310 240 1393 c 1,0,-1
537 628 m 1,45,46
 537 574 537 574 311 177 c 1,47,-1
 311 137 l 1,48,-1
 778 137 l 1,49,50
 778 250 778 250 566 628 c 1,51,-1
 537 628 l 1,45,46
EndSplineSet
Validated: 1
EndChar

StartChar: uni03EC
Encoding: 1004 1004 515
Width: 1369
GlyphClass: 1
Flags: W
LayerCount: 2
Fore
SplineSet
503 1405 m 1,0,1
 673 1405 673 1405 948 1049 c 1,2,-1
 1034 970 l 1,3,-1
 1135 970 l 1,4,-1
 1192 1009 l 1,5,-1
 1049 1207 l 1,6,-1
 1049 1306 l 1,7,-1
 1121 1405 l 1,8,-1
 1221 1405 l 1,9,10
 1350 1311 1350 1311 1350 1128 c 1,11,12
 1287 752 1287 752 1092 752 c 2,13,-1
 991 752 l 2,14,15
 858 752 858 752 560 1187 c 1,16,-1
 488 1227 l 1,17,-1
 374 1227 l 2,18,19
 302 1227 302 1227 244 970 c 1,20,-1
 244 910 l 1,21,-1
 503 1009 l 1,22,23
 661 1009 661 1009 848 613 c 1,24,-1
 848 455 l 2,25,26
 848 180 848 180 517 20 c 1,27,-1
 431 0 l 1,28,29
 101 63 101 63 29 435 c 1,30,-1
 0 633 l 1,31,-1
 0 772 l 1,32,33
 80 1385 80 1385 445 1385 c 1,34,-1
 503 1405 l 1,0,1
244 574 m 2,35,-1
 244 416 l 2,36,37
 244 197 244 197 431 158 c 1,38,39
 557 158 557 158 603 455 c 1,40,-1
 603 534 l 1,41,42
 560 831 560 831 431 831 c 2,43,-1
 374 831 l 1,44,45
 244 724 244 724 244 574 c 2,35,-1
EndSplineSet
Validated: 1
EndChar

StartChar: uni03ED
Encoding: 1005 1005 516
Width: 1009
GlyphClass: 1
Flags: W
LayerCount: 2
Fore
SplineSet
997 1389 m 1,0,-1
 997 1345 l 1,1,2
 844 1102 844 1102 717 1102 c 2,3,-1
 332 1102 l 1,4,5
 250 1053 250 1053 210 948 c 1,6,-1
 210 860 l 1,7,-1
 350 904 l 1,8,-1
 402 904 l 2,9,10
 634 904 634 904 647 463 c 1,11,12
 647 150 647 150 455 44 c 1,13,-1
 332 0 l 1,14,15
 55 0 55 0 0 617 c 1,16,17
 0 1024 0 1024 332 1323 c 1,18,-1
 437 1345 l 1,19,-1
 787 1323 l 1,20,-1
 997 1389 l 1,0,-1
227 595 m 2,21,-1
 227 309 l 2,22,23
 227 176 227 176 332 176 c 0,24,25
 420 176 420 176 420 309 c 2,26,-1
 420 639 l 1,27,-1
 350 727 l 1,28,-1
 332 727 l 2,29,30
 227 727 227 727 227 595 c 2,21,-1
EndSplineSet
Validated: 1
EndChar

StartChar: uni03EE
Encoding: 1006 1006 517
Width: 1156
GlyphClass: 1
Flags: W
LayerCount: 2
Fore
SplineSet
418 1405 m 1,0,-1
 610 1405 l 1,1,-1
 634 1373 l 1,2,-1
 634 1042 l 1,3,-1
 658 995 l 1,4,-1
 693 1010 l 1,5,-1
 693 1310 l 1,6,7
 701 1405 701 1405 729 1405 c 2,8,-1
 909 1405 l 1,9,-1
 933 1373 l 1,10,-1
 933 1342 l 1,11,-1
 873 1263 l 1,12,-1
 873 1105 l 1,13,14
 880 1010 880 1010 909 1010 c 2,15,-1
 1076 1010 l 1,16,17
 1148 1000 1148 1000 1148 963 c 1,18,19
 1125 891 1125 891 1100 884 c 1,20,-1
 909 884 l 2,21,22
 885 884 885 884 885 837 c 2,23,-1
 873 237 l 1,24,25
 787 16 787 16 646 16 c 1,26,-1
 287 126 l 1,27,-1
 275 126 l 1,28,-1
 179 0 l 1,29,30
 0 32 0 32 0 79 c 2,31,-1
 0 111 l 1,32,33
 28 201 28 201 120 300 c 1,34,-1
 215 300 l 1,35,-1
 442 205 l 1,36,-1
 454 205 l 1,37,-1
 466 395 l 1,38,-1
 466 868 l 1,39,-1
 442 900 l 1,40,-1
 347 900 l 1,41,-1
 335 884 l 1,42,-1
 323 884 l 1,43,44
 418 714 418 714 418 663 c 2,45,-1
 418 647 l 1,46,47
 301 647 301 647 60 931 c 1,48,49
 60 973 60 973 155 995 c 1,50,-1
 442 995 l 1,51,-1
 466 1026 l 1,52,-1
 466 1263 l 1,53,-1
 395 1326 l 1,54,-1
 395 1373 l 1,55,-1
 418 1405 l 1,0,-1
646 884 m 1,56,-1
 634 300 l 1,57,-1
 634 268 l 2,58,59
 634 208 634 208 574 126 c 1,60,-1
 586 126 l 2,61,62
 652 126 652 126 693 237 c 1,63,-1
 693 852 l 1,64,-1
 670 884 l 1,65,-1
 646 884 l 1,56,-1
EndSplineSet
Validated: 1
EndChar

StartChar: uni03EF
Encoding: 1007 1007 518
Width: 690
GlyphClass: 1
Flags: W
LayerCount: 2
Fore
SplineSet
319 1247 m 1,0,-1
 412 1247 l 1,1,-1
 439 1213 l 1,2,-1
 439 939 l 1,3,-1
 465 905 l 1,4,-1
 652 905 l 1,5,-1
 678 871 l 1,6,-1
 678 853 l 1,7,-1
 625 785 l 1,8,-1
 465 785 l 1,9,-1
 439 751 l 1,10,-1
 439 169 l 1,11,12
 421 -2 421 -2 306 -2 c 2,13,-1
 293 -2 l 1,14,15
 199 74 199 74 199 169 c 1,16,-1
 293 237 l 1,17,-1
 293 699 l 1,18,-1
 279 785 l 1,19,-1
 199 785 l 1,20,-1
 199 665 l 1,21,-1
 186 648 l 1,22,-1
 186 631 l 1,23,24
 152 631 152 631 0 853 c 1,25,-1
 0 905 l 1,26,-1
 253 905 l 1,27,-1
 293 956 l 1,28,-1
 293 1213 l 1,29,-1
 319 1247 l 1,0,-1
EndSplineSet
Validated: 1
EndChar

StartChar: uni03F0
Encoding: 1008 1008 519
Width: 1268
GlyphClass: 1
Flags: W
LayerCount: 2
Fore
SplineSet
601 689 m 1,1,-1
 643 702 l 1,2,3
 777 951 777 951 922 951 c 2,4,-1
 1062 951 l 1,5,6
 1244 815 1244 815 1244 771 c 2,7,-1
 1244 702 l 2,8,9
 1244 597 1244 597 1076 537 c 1,10,11
 1024 537 1024 537 950 634 c 1,12,-1
 950 702 l 1,13,14
 1017 799 1017 799 1090 799 c 1,15,-1
 1090 827 l 1,16,-1
 1076 840 l 1,17,18
 864 840 864 840 713 454 c 1,19,20
 792 235 792 235 866 207 c 1,21,-1
 950 207 l 1,22,23
 1012 317 1012 317 1034 317 c 2,24,-1
 1048 317 l 1,25,-1
 1216 151 l 1,26,-1
 1216 110 l 1,27,28
 1146 0 1146 0 993 0 c 2,29,-1
 950 0 l 2,30,31
 780 0 780 0 643 317 c 1,32,-1
 629 317 l 1,33,-1
 615 303 l 1,34,35
 476 71 476 71 378 0 c 1,36,-1
 126 0 l 1,37,-1
 84 41 l 1,38,-1
 84 55 l 1,39,40
 450 410 450 410 490 524 c 1,41,42
 490 730 490 730 363 730 c 1,43,-1
 196 702 l 1,44,45
 38 785 38 785 0 854 c 1,46,-1
 0 895 l 1,47,48
 57 978 57 978 140 978 c 2,49,-1
 238 978 l 2,50,0
 378 978 378 978 601 689 c 1,1,-1
EndSplineSet
Validated: 1
EndChar

StartChar: uni03F1
Encoding: 1009 1009 520
Width: 1009
GlyphClass: 1
Flags: W
LayerCount: 2
Fore
SplineSet
787 -102 m 1,0,-1
 437 -124 l 1,1,-1
 332 -102 l 1,2,3
 0 196 0 196 0 602 c 1,4,5
 55 1220 55 1220 332 1220 c 1,6,-1
 455 1176 l 1,7,8
 647 1069 647 1069 647 757 c 1,9,10
 634 316 634 316 402 316 c 2,11,-1
 350 316 l 1,12,-1
 210 360 l 1,13,-1
 210 272 l 1,14,15
 250 167 250 167 332 118 c 1,16,-1
 717 118 l 2,17,18
 844 118 844 118 997 -124 c 1,19,-1
 997 -169 l 1,20,-1
 787 -102 l 1,0,-1
332 492 m 2,22,-1
 350 492 l 1,23,-1
 420 580 l 1,24,-1
 420 911 l 2,25,26
 420 1043 420 1043 332 1043 c 0,27,28
 227 1043 227 1043 227 911 c 2,29,-1
 227 625 l 2,30,21
 227 492 227 492 332 492 c 2,22,-1
EndSplineSet
Validated: 1
EndChar

